<?xml version="1.0" encoding="UTF-8"?>
<svg xmlns="http://www.w3.org/2000/svg" xmlns:xlink="http://www.w3.org/1999/xlink" width="586pt" height="97pt" viewBox="0 0 586 97" version="1.1">
<g id="surface20">
<path style=" stroke:none;fill-rule:nonzero;fill:rgb(75.294118%,75.294118%,75.294118%);fill-opacity:0.2;" d="M 25 17 L 126 17 L 126 54 L 25 54 Z M 25 17 "/>
<path style=" stroke:none;fill-rule:nonzero;fill:rgb(100%,100%,100%);fill-opacity:1;" d="M 18 10 L 119 10 L 119 47 L 18 47 Z M 18 10 "/>
<path style="fill:none;stroke-width:1;stroke-linecap:butt;stroke-linejoin:miter;stroke:rgb(0%,0%,0%);stroke-opacity:1;stroke-miterlimit:10;" d="M 120 136 L 221 136 L 221 173 L 120 173 Z M 120 136 Z M 120 136 " transform="matrix(1,0,0,1,-102,-126)"/>
<path style=" stroke:none;fill-rule:nonzero;fill:rgb(0%,0%,0%);fill-opacity:1;" d="M 28.125 24.621094 L 25.984375 22.292969 L 25.984375 21.902344 L 28.125 19.542969 L 29.1875 19.542969 L 29.1875 19.746094 L 27.046875 22.105469 L 29.203125 24.433594 L 29.203125 24.621094 Z M 25.15625 24.621094 L 23.03125 22.292969 L 23.03125 21.902344 L 25.15625 19.542969 L 26.21875 19.542969 L 26.21875 19.746094 L 24.09375 22.105469 L 26.234375 24.433594 L 26.234375 24.621094 Z M 36.417969 22.042969 C 36.417969 24.441406 35.574219 25.636719 33.886719 25.636719 C 32.832031 25.636719 32.125 25.242188 31.761719 24.449219 L 31.730469 24.449219 C 31.738281 24.480469 31.746094 24.839844 31.746094 25.527344 L 31.746094 28.214844 L 30.605469 28.214844 L 30.605469 20.042969 C 30.605469 19.335938 30.59375 18.867188 30.574219 18.636719 L 31.667969 18.636719 C 31.675781 18.660156 31.683594 18.722656 31.683594 18.824219 C 31.691406 18.929688 31.703125 19.089844 31.714844 19.308594 C 31.722656 19.519531 31.730469 19.664062 31.730469 19.746094 L 31.761719 19.746094 C 31.96875 19.320312 32.238281 19.011719 32.574219 18.824219 C 32.90625 18.628906 33.34375 18.527344 33.886719 18.527344 C 34.730469 18.527344 35.359375 18.816406 35.777344 19.386719 C 36.203125 19.949219 36.417969 20.835938 36.417969 22.042969 Z M 35.214844 22.074219 C 35.214844 21.117188 35.082031 20.433594 34.824219 20.027344 C 34.5625 19.613281 34.152344 19.402344 33.589844 19.402344 C 33.140625 19.402344 32.785156 19.503906 32.527344 19.699219 C 32.277344 19.886719 32.082031 20.183594 31.949219 20.589844 C 31.8125 20.988281 31.746094 21.507812 31.746094 22.152344 C 31.746094 23.058594 31.886719 23.726562 32.167969 24.152344 C 32.457031 24.582031 32.933594 24.792969 33.589844 24.792969 C 34.152344 24.792969 34.5625 24.585938 34.824219 24.167969 C 35.082031 23.753906 35.214844 23.054688 35.214844 22.074219 Z M 37.867188 25.511719 L 37.867188 20.246094 C 37.867188 19.757812 37.851562 19.222656 37.820312 18.636719 L 38.898438 18.636719 C 38.9375 19.417969 38.960938 19.886719 38.960938 20.042969 L 38.976562 20.042969 C 39.164062 19.460938 39.371094 19.058594 39.601562 18.839844 C 39.839844 18.621094 40.179688 18.511719 40.617188 18.511719 C 40.761719 18.511719 40.914062 18.535156 41.070312 18.574219 L 41.070312 19.621094 C 40.921875 19.582031 40.71875 19.558594 40.460938 19.558594 C 39.992188 19.558594 39.632812 19.769531 39.382812 20.183594 C 39.132812 20.589844 39.007812 21.175781 39.007812 21.933594 L 39.007812 25.511719 Z M 42.164062 17.183594 L 42.164062 16.089844 L 43.304688 16.089844 L 43.304688 17.183594 Z M 42.164062 25.511719 L 42.164062 18.636719 L 43.304688 18.636719 L 43.304688 25.511719 Z M 49.054688 25.511719 L 49.054688 21.152344 C 49.054688 20.496094 48.960938 20.042969 48.773438 19.792969 C 48.59375 19.535156 48.273438 19.402344 47.804688 19.402344 C 47.3125 19.402344 46.921875 19.589844 46.632812 19.964844 C 46.351562 20.332031 46.210938 20.851562 46.210938 21.527344 L 46.210938 25.511719 L 45.085938 25.511719 L 45.085938 20.105469 C 45.085938 19.304688 45.070312 18.816406 45.039062 18.636719 L 46.117188 18.636719 C 46.125 18.660156 46.132812 18.714844 46.132812 18.808594 C 46.140625 18.902344 46.148438 19.011719 46.148438 19.136719 C 46.15625 19.253906 46.167969 19.480469 46.179688 19.824219 L 46.195312 19.824219 C 46.433594 19.335938 46.710938 18.996094 47.023438 18.808594 C 47.34375 18.613281 47.734375 18.511719 48.195312 18.511719 C 48.714844 18.511719 49.125 18.617188 49.429688 18.824219 C 49.730469 19.035156 49.945312 19.367188 50.070312 19.824219 L 50.085938 19.824219 C 50.324219 19.355469 50.609375 19.023438 50.945312 18.824219 C 51.277344 18.617188 51.683594 18.511719 52.164062 18.511719 C 52.859375 18.511719 53.367188 18.707031 53.679688 19.089844 C 53.992188 19.464844 54.148438 20.082031 54.148438 20.933594 L 54.148438 25.511719 L 53.023438 25.511719 L 53.023438 21.152344 C 53.023438 20.496094 52.929688 20.042969 52.742188 19.792969 C 52.5625 19.535156 52.234375 19.402344 51.757812 19.402344 C 51.265625 19.402344 50.882812 19.589844 50.601562 19.964844 C 50.320312 20.332031 50.179688 20.851562 50.179688 21.527344 L 50.179688 25.511719 Z M 55.882812 17.183594 L 55.882812 16.089844 L 57.023438 16.089844 L 57.023438 17.183594 Z M 55.882812 25.511719 L 55.882812 18.636719 L 57.023438 18.636719 L 57.023438 25.511719 Z M 61.414062 25.464844 C 61.039062 25.566406 60.652344 25.621094 60.257812 25.621094 C 59.339844 25.621094 58.882812 25.101562 58.882812 24.058594 L 58.882812 19.480469 L 58.101562 19.480469 L 58.101562 18.636719 L 58.929688 18.636719 L 59.273438 17.105469 L 60.039062 17.105469 L 60.039062 18.636719 L 61.304688 18.636719 L 61.304688 19.480469 L 60.039062 19.480469 L 60.039062 23.808594 C 60.039062 24.144531 60.089844 24.378906 60.195312 24.511719 C 60.296875 24.636719 60.484375 24.699219 60.757812 24.699219 C 60.902344 24.699219 61.121094 24.675781 61.414062 24.621094 Z M 62.382812 17.183594 L 62.382812 16.089844 L 63.523438 16.089844 L 63.523438 17.183594 Z M 62.382812 25.511719 L 62.382812 18.636719 L 63.523438 18.636719 L 63.523438 25.511719 Z M 68.289062 25.511719 L 66.945312 25.511719 L 64.445312 18.636719 L 65.664062 18.636719 L 67.179688 23.105469 C 67.230469 23.285156 67.375 23.789062 67.617188 24.621094 L 67.835938 23.871094 L 68.085938 23.121094 L 69.648438 18.636719 L 70.851562 18.636719 Z M 72.648438 22.324219 C 72.648438 23.105469 72.808594 23.710938 73.132812 24.136719 C 73.464844 24.566406 73.945312 24.777344 74.570312 24.777344 C 75.058594 24.777344 75.453125 24.679688 75.757812 24.480469 C 76.058594 24.285156 76.261719 24.035156 76.367188 23.730469 L 77.367188 24.011719 C 76.960938 25.097656 76.027344 25.636719 74.570312 25.636719 C 73.546875 25.636719 72.773438 25.335938 72.242188 24.730469 C 71.710938 24.128906 71.445312 23.226562 71.445312 22.027344 C 71.445312 20.894531 71.710938 20.023438 72.242188 19.417969 C 72.773438 18.816406 73.53125 18.511719 74.523438 18.511719 C 76.542969 18.511719 77.554688 19.730469 77.554688 22.167969 L 77.554688 22.324219 Z M 76.367188 21.449219 C 76.304688 20.722656 76.121094 20.191406 75.820312 19.855469 C 75.515625 19.523438 75.078125 19.355469 74.507812 19.355469 C 73.953125 19.355469 73.511719 19.542969 73.179688 19.917969 C 72.855469 20.285156 72.683594 20.792969 72.664062 21.449219 Z M 82.707031 17.558594 L 82.707031 25.511719 L 81.488281 25.511719 L 81.488281 17.558594 L 78.425781 17.558594 L 78.425781 16.574219 L 85.769531 16.574219 L 85.769531 17.558594 Z M 86.570312 28.214844 C 86.257812 28.214844 85.992188 28.1875 85.773438 28.136719 L 85.773438 27.277344 C 85.9375 27.308594 86.117188 27.324219 86.304688 27.324219 C 87.023438 27.324219 87.585938 26.796875 87.992188 25.746094 L 88.101562 25.480469 L 85.382812 18.636719 L 86.601562 18.636719 L 88.054688 22.433594 C 88.074219 22.496094 88.09375 22.570312 88.117188 22.652344 C 88.148438 22.738281 88.242188 23.011719 88.398438 23.480469 C 88.5625 23.949219 88.652344 24.210938 88.664062 24.261719 L 89.117188 23.011719 L 90.617188 18.636719 L 91.820312 18.636719 L 89.179688 25.511719 C 88.898438 26.238281 88.632812 26.78125 88.382812 27.136719 C 88.140625 27.5 87.871094 27.769531 87.570312 27.949219 C 87.277344 28.125 86.945312 28.214844 86.570312 28.214844 Z M 98.539062 22.042969 C 98.539062 24.441406 97.695312 25.636719 96.007812 25.636719 C 94.953125 25.636719 94.246094 25.242188 93.882812 24.449219 L 93.851562 24.449219 C 93.859375 24.480469 93.867188 24.839844 93.867188 25.527344 L 93.867188 28.214844 L 92.726562 28.214844 L 92.726562 20.042969 C 92.726562 19.335938 92.714844 18.867188 92.695312 18.636719 L 93.789062 18.636719 C 93.796875 18.660156 93.804688 18.722656 93.804688 18.824219 C 93.8125 18.929688 93.824219 19.089844 93.835938 19.308594 C 93.84375 19.519531 93.851562 19.664062 93.851562 19.746094 L 93.882812 19.746094 C 94.089844 19.320312 94.359375 19.011719 94.695312 18.824219 C 95.027344 18.628906 95.464844 18.527344 96.007812 18.527344 C 96.851562 18.527344 97.480469 18.816406 97.898438 19.386719 C 98.324219 19.949219 98.539062 20.835938 98.539062 22.042969 Z M 97.335938 22.074219 C 97.335938 21.117188 97.203125 20.433594 96.945312 20.027344 C 96.683594 19.613281 96.273438 19.402344 95.710938 19.402344 C 95.261719 19.402344 94.90625 19.503906 94.648438 19.699219 C 94.398438 19.886719 94.203125 20.183594 94.070312 20.589844 C 93.933594 20.988281 93.867188 21.507812 93.867188 22.152344 C 93.867188 23.058594 94.007812 23.726562 94.289062 24.152344 C 94.578125 24.582031 95.054688 24.792969 95.710938 24.792969 C 96.273438 24.792969 96.683594 24.585938 96.945312 24.167969 C 97.203125 23.753906 97.335938 23.054688 97.335938 22.074219 Z M 100.832031 22.324219 C 100.832031 23.105469 100.992188 23.710938 101.316406 24.136719 C 101.648438 24.566406 102.128906 24.777344 102.753906 24.777344 C 103.242188 24.777344 103.636719 24.679688 103.941406 24.480469 C 104.242188 24.285156 104.445312 24.035156 104.550781 23.730469 L 105.550781 24.011719 C 105.144531 25.097656 104.210938 25.636719 102.753906 25.636719 C 101.730469 25.636719 100.957031 25.335938 100.425781 24.730469 C 99.894531 24.128906 99.628906 23.226562 99.628906 22.027344 C 99.628906 20.894531 99.894531 20.023438 100.425781 19.417969 C 100.957031 18.816406 101.714844 18.511719 102.707031 18.511719 C 104.726562 18.511719 105.738281 19.730469 105.738281 22.167969 L 105.738281 22.324219 Z M 104.550781 21.449219 C 104.488281 20.722656 104.304688 20.191406 104.003906 19.855469 C 103.699219 19.523438 103.261719 19.355469 102.691406 19.355469 C 102.136719 19.355469 101.695312 19.542969 101.363281 19.917969 C 101.039062 20.285156 100.867188 20.792969 100.847656 21.449219 Z M 110.875 24.621094 L 109.796875 24.621094 L 109.796875 24.433594 L 111.953125 22.105469 L 109.8125 19.746094 L 109.8125 19.542969 L 110.875 19.542969 L 113.015625 21.902344 L 113.015625 22.292969 Z M 107.921875 24.621094 L 106.84375 24.621094 L 106.84375 24.433594 L 108.984375 22.105469 L 106.859375 19.746094 L 106.859375 19.542969 L 107.921875 19.542969 L 110.046875 21.902344 L 110.046875 22.292969 Z M 22.5 13.742188 "/>
<path style=" stroke:none;fill-rule:nonzero;fill:rgb(0%,0%,0%);fill-opacity:1;" d="M 53.828125 40.636719 C 52.898438 40.636719 52.1875 40.441406 51.6875 40.042969 C 51.1875 39.636719 50.859375 38.988281 50.703125 38.089844 L 52.5625 37.808594 C 52.632812 38.277344 52.773438 38.621094 52.984375 38.839844 C 53.191406 39.058594 53.476562 39.167969 53.84375 39.167969 C 54.207031 39.167969 54.484375 39.042969 54.671875 38.792969 C 54.867188 38.542969 54.96875 38.191406 54.96875 37.730469 L 54.96875 33.027344 L 53.1875 33.027344 L 53.1875 31.574219 L 56.84375 31.574219 L 56.84375 37.683594 C 56.84375 38.613281 56.578125 39.335938 56.046875 39.855469 C 55.515625 40.378906 54.773438 40.636719 53.828125 40.636719 Z M 65.886719 37.933594 C 65.886719 38.808594 65.5625 39.480469 64.917969 39.949219 C 64.269531 40.410156 63.316406 40.636719 62.058594 40.636719 C 60.910156 40.636719 60.011719 40.433594 59.355469 40.027344 C 58.707031 39.621094 58.292969 39.007812 58.105469 38.183594 L 59.917969 37.886719 C 60.042969 38.355469 60.28125 38.699219 60.636719 38.917969 C 60.988281 39.128906 61.480469 39.230469 62.105469 39.230469 C 63.417969 39.230469 64.074219 38.835938 64.074219 38.042969 C 64.074219 37.792969 63.996094 37.585938 63.839844 37.417969 C 63.691406 37.253906 63.484375 37.117188 63.214844 37.011719 C 62.941406 36.898438 62.417969 36.761719 61.636719 36.605469 C 60.96875 36.449219 60.503906 36.324219 60.246094 36.230469 C 59.984375 36.128906 59.746094 36.011719 59.527344 35.886719 C 59.316406 35.761719 59.140625 35.613281 58.996094 35.433594 C 58.847656 35.246094 58.734375 35.035156 58.652344 34.792969 C 58.566406 34.542969 58.527344 34.257812 58.527344 33.933594 C 58.527344 33.132812 58.828125 32.519531 59.433594 32.089844 C 60.035156 31.652344 60.921875 31.433594 62.089844 31.433594 C 63.191406 31.433594 64.019531 31.613281 64.574219 31.964844 C 65.136719 32.308594 65.496094 32.878906 65.652344 33.667969 L 63.839844 33.917969 C 63.746094 33.535156 63.550781 33.246094 63.261719 33.058594 C 62.980469 32.863281 62.574219 32.761719 62.042969 32.761719 C 60.90625 32.761719 60.339844 33.117188 60.339844 33.824219 C 60.339844 34.066406 60.402344 34.257812 60.527344 34.402344 C 60.652344 34.550781 60.828125 34.675781 61.058594 34.777344 C 61.296875 34.882812 61.78125 35.011719 62.511719 35.167969 C 63.363281 35.347656 63.972656 35.511719 64.339844 35.667969 C 64.714844 35.824219 65.011719 36.007812 65.230469 36.214844 C 65.449219 36.414062 65.609375 36.660156 65.714844 36.949219 C 65.828125 37.230469 65.886719 37.558594 65.886719 37.933594 Z M 75.964844 35.996094 C 75.964844 36.933594 75.78125 37.757812 75.417969 38.464844 C 75.050781 39.164062 74.527344 39.699219 73.839844 40.074219 C 73.152344 40.449219 72.347656 40.636719 71.433594 40.636719 C 70.027344 40.636719 68.921875 40.226562 68.121094 39.402344 C 67.328125 38.570312 66.933594 37.433594 66.933594 35.996094 C 66.933594 34.558594 67.328125 33.441406 68.121094 32.636719 C 68.921875 31.835938 70.03125 31.433594 71.449219 31.433594 C 72.863281 31.433594 73.96875 31.839844 74.761719 32.652344 C 75.5625 33.464844 75.964844 34.582031 75.964844 35.996094 Z M 74.058594 35.996094 C 74.058594 35.039062 73.828125 34.285156 73.371094 33.730469 C 72.910156 33.179688 72.269531 32.902344 71.449219 32.902344 C 70.613281 32.902344 69.96875 33.179688 69.511719 33.730469 C 69.050781 34.273438 68.824219 35.027344 68.824219 35.996094 C 68.824219 36.976562 69.058594 37.753906 69.527344 38.324219 C 69.996094 38.886719 70.628906 39.167969 71.433594 39.167969 C 72.277344 39.167969 72.921875 38.894531 73.371094 38.339844 C 73.828125 37.789062 74.058594 37.007812 74.058594 35.996094 Z M 82.828125 40.511719 L 78.9375 33.621094 C 79.007812 34.289062 79.046875 34.824219 79.046875 35.230469 L 79.046875 40.511719 L 77.390625 40.511719 L 77.390625 31.574219 L 79.53125 31.574219 L 83.484375 38.511719 C 83.398438 37.878906 83.359375 37.292969 83.359375 36.761719 L 83.359375 31.574219 L 85.03125 31.574219 L 85.03125 40.511719 Z M 50.5 28.742188 "/>
<path style=" stroke:none;fill-rule:nonzero;fill:rgb(75.294118%,75.294118%,75.294118%);fill-opacity:0.2;" d="M 137 17 L 239 17 L 239 54 L 137 54 Z M 137 17 "/>
<path style=" stroke:none;fill-rule:nonzero;fill:rgb(100%,100%,100%);fill-opacity:1;" d="M 130 10 L 232 10 L 232 47 L 130 47 Z M 130 10 "/>
<path style="fill:none;stroke-width:1;stroke-linecap:butt;stroke-linejoin:miter;stroke:rgb(0%,0%,0%);stroke-opacity:1;stroke-miterlimit:10;" d="M 232 136 L 334 136 L 334 173 L 232 173 Z M 232 136 Z M 232 136 " transform="matrix(1,0,0,1,-102,-126)"/>
<path style=" stroke:none;fill-rule:nonzero;fill:rgb(0%,0%,0%);fill-opacity:1;" d="M 140.625 24.621094 L 138.484375 22.292969 L 138.484375 21.902344 L 140.625 19.542969 L 141.6875 19.542969 L 141.6875 19.746094 L 139.546875 22.105469 L 141.703125 24.433594 L 141.703125 24.621094 Z M 137.65625 24.621094 L 135.53125 22.292969 L 135.53125 21.902344 L 137.65625 19.542969 L 138.71875 19.542969 L 138.71875 19.746094 L 136.59375 22.105469 L 138.734375 24.433594 L 138.734375 24.621094 Z M 148.917969 22.042969 C 148.917969 24.441406 148.074219 25.636719 146.386719 25.636719 C 145.332031 25.636719 144.625 25.242188 144.261719 24.449219 L 144.230469 24.449219 C 144.238281 24.480469 144.246094 24.839844 144.246094 25.527344 L 144.246094 28.214844 L 143.105469 28.214844 L 143.105469 20.042969 C 143.105469 19.335938 143.09375 18.867188 143.074219 18.636719 L 144.167969 18.636719 C 144.175781 18.660156 144.183594 18.722656 144.183594 18.824219 C 144.191406 18.929688 144.203125 19.089844 144.214844 19.308594 C 144.222656 19.519531 144.230469 19.664062 144.230469 19.746094 L 144.261719 19.746094 C 144.46875 19.320312 144.738281 19.011719 145.074219 18.824219 C 145.40625 18.628906 145.84375 18.527344 146.386719 18.527344 C 147.230469 18.527344 147.859375 18.816406 148.277344 19.386719 C 148.703125 19.949219 148.917969 20.835938 148.917969 22.042969 Z M 147.714844 22.074219 C 147.714844 21.117188 147.582031 20.433594 147.324219 20.027344 C 147.0625 19.613281 146.652344 19.402344 146.089844 19.402344 C 145.640625 19.402344 145.285156 19.503906 145.027344 19.699219 C 144.777344 19.886719 144.582031 20.183594 144.449219 20.589844 C 144.3125 20.988281 144.246094 21.507812 144.246094 22.152344 C 144.246094 23.058594 144.386719 23.726562 144.667969 24.152344 C 144.957031 24.582031 145.433594 24.792969 146.089844 24.792969 C 146.652344 24.792969 147.0625 24.585938 147.324219 24.167969 C 147.582031 23.753906 147.714844 23.054688 147.714844 22.074219 Z M 150.367188 25.511719 L 150.367188 20.246094 C 150.367188 19.757812 150.351562 19.222656 150.320312 18.636719 L 151.398438 18.636719 C 151.4375 19.417969 151.460938 19.886719 151.460938 20.042969 L 151.476562 20.042969 C 151.664062 19.460938 151.871094 19.058594 152.101562 18.839844 C 152.339844 18.621094 152.679688 18.511719 153.117188 18.511719 C 153.261719 18.511719 153.414062 18.535156 153.570312 18.574219 L 153.570312 19.621094 C 153.421875 19.582031 153.21875 19.558594 152.960938 19.558594 C 152.492188 19.558594 152.132812 19.769531 151.882812 20.183594 C 151.632812 20.589844 151.507812 21.175781 151.507812 21.933594 L 151.507812 25.511719 Z M 154.664062 17.183594 L 154.664062 16.089844 L 155.804688 16.089844 L 155.804688 17.183594 Z M 154.664062 25.511719 L 154.664062 18.636719 L 155.804688 18.636719 L 155.804688 25.511719 Z M 161.554688 25.511719 L 161.554688 21.152344 C 161.554688 20.496094 161.460938 20.042969 161.273438 19.792969 C 161.09375 19.535156 160.773438 19.402344 160.304688 19.402344 C 159.8125 19.402344 159.421875 19.589844 159.132812 19.964844 C 158.851562 20.332031 158.710938 20.851562 158.710938 21.527344 L 158.710938 25.511719 L 157.585938 25.511719 L 157.585938 20.105469 C 157.585938 19.304688 157.570312 18.816406 157.539062 18.636719 L 158.617188 18.636719 C 158.625 18.660156 158.632812 18.714844 158.632812 18.808594 C 158.640625 18.902344 158.648438 19.011719 158.648438 19.136719 C 158.65625 19.253906 158.667969 19.480469 158.679688 19.824219 L 158.695312 19.824219 C 158.933594 19.335938 159.210938 18.996094 159.523438 18.808594 C 159.84375 18.613281 160.234375 18.511719 160.695312 18.511719 C 161.214844 18.511719 161.625 18.617188 161.929688 18.824219 C 162.230469 19.035156 162.445312 19.367188 162.570312 19.824219 L 162.585938 19.824219 C 162.824219 19.355469 163.109375 19.023438 163.445312 18.824219 C 163.777344 18.617188 164.183594 18.511719 164.664062 18.511719 C 165.359375 18.511719 165.867188 18.707031 166.179688 19.089844 C 166.492188 19.464844 166.648438 20.082031 166.648438 20.933594 L 166.648438 25.511719 L 165.523438 25.511719 L 165.523438 21.152344 C 165.523438 20.496094 165.429688 20.042969 165.242188 19.792969 C 165.0625 19.535156 164.734375 19.402344 164.257812 19.402344 C 163.765625 19.402344 163.382812 19.589844 163.101562 19.964844 C 162.820312 20.332031 162.679688 20.851562 162.679688 21.527344 L 162.679688 25.511719 Z M 168.382812 17.183594 L 168.382812 16.089844 L 169.523438 16.089844 L 169.523438 17.183594 Z M 168.382812 25.511719 L 168.382812 18.636719 L 169.523438 18.636719 L 169.523438 25.511719 Z M 173.914062 25.464844 C 173.539062 25.566406 173.152344 25.621094 172.757812 25.621094 C 171.839844 25.621094 171.382812 25.101562 171.382812 24.058594 L 171.382812 19.480469 L 170.601562 19.480469 L 170.601562 18.636719 L 171.429688 18.636719 L 171.773438 17.105469 L 172.539062 17.105469 L 172.539062 18.636719 L 173.804688 18.636719 L 173.804688 19.480469 L 172.539062 19.480469 L 172.539062 23.808594 C 172.539062 24.144531 172.589844 24.378906 172.695312 24.511719 C 172.796875 24.636719 172.984375 24.699219 173.257812 24.699219 C 173.402344 24.699219 173.621094 24.675781 173.914062 24.621094 Z M 174.882812 17.183594 L 174.882812 16.089844 L 176.023438 16.089844 L 176.023438 17.183594 Z M 174.882812 25.511719 L 174.882812 18.636719 L 176.023438 18.636719 L 176.023438 25.511719 Z M 180.789062 25.511719 L 179.445312 25.511719 L 176.945312 18.636719 L 178.164062 18.636719 L 179.679688 23.105469 C 179.730469 23.285156 179.875 23.789062 180.117188 24.621094 L 180.335938 23.871094 L 180.585938 23.121094 L 182.148438 18.636719 L 183.351562 18.636719 Z M 185.148438 22.324219 C 185.148438 23.105469 185.308594 23.710938 185.632812 24.136719 C 185.964844 24.566406 186.445312 24.777344 187.070312 24.777344 C 187.558594 24.777344 187.953125 24.679688 188.257812 24.480469 C 188.558594 24.285156 188.761719 24.035156 188.867188 23.730469 L 189.867188 24.011719 C 189.460938 25.097656 188.527344 25.636719 187.070312 25.636719 C 186.046875 25.636719 185.273438 25.335938 184.742188 24.730469 C 184.210938 24.128906 183.945312 23.226562 183.945312 22.027344 C 183.945312 20.894531 184.210938 20.023438 184.742188 19.417969 C 185.273438 18.816406 186.03125 18.511719 187.023438 18.511719 C 189.042969 18.511719 190.054688 19.730469 190.054688 22.167969 L 190.054688 22.324219 Z M 188.867188 21.449219 C 188.804688 20.722656 188.621094 20.191406 188.320312 19.855469 C 188.015625 19.523438 187.578125 19.355469 187.007812 19.355469 C 186.453125 19.355469 186.011719 19.542969 185.679688 19.917969 C 185.355469 20.285156 185.183594 20.792969 185.164062 21.449219 Z M 195.207031 17.558594 L 195.207031 25.511719 L 193.988281 25.511719 L 193.988281 17.558594 L 190.925781 17.558594 L 190.925781 16.574219 L 198.269531 16.574219 L 198.269531 17.558594 Z M 199.070312 28.214844 C 198.757812 28.214844 198.492188 28.1875 198.273438 28.136719 L 198.273438 27.277344 C 198.4375 27.308594 198.617188 27.324219 198.804688 27.324219 C 199.523438 27.324219 200.085938 26.796875 200.492188 25.746094 L 200.601562 25.480469 L 197.882812 18.636719 L 199.101562 18.636719 L 200.554688 22.433594 C 200.574219 22.496094 200.59375 22.570312 200.617188 22.652344 C 200.648438 22.738281 200.742188 23.011719 200.898438 23.480469 C 201.0625 23.949219 201.152344 24.210938 201.164062 24.261719 L 201.617188 23.011719 L 203.117188 18.636719 L 204.320312 18.636719 L 201.679688 25.511719 C 201.398438 26.238281 201.132812 26.78125 200.882812 27.136719 C 200.640625 27.5 200.371094 27.769531 200.070312 27.949219 C 199.777344 28.125 199.445312 28.214844 199.070312 28.214844 Z M 211.039062 22.042969 C 211.039062 24.441406 210.195312 25.636719 208.507812 25.636719 C 207.453125 25.636719 206.746094 25.242188 206.382812 24.449219 L 206.351562 24.449219 C 206.359375 24.480469 206.367188 24.839844 206.367188 25.527344 L 206.367188 28.214844 L 205.226562 28.214844 L 205.226562 20.042969 C 205.226562 19.335938 205.214844 18.867188 205.195312 18.636719 L 206.289062 18.636719 C 206.296875 18.660156 206.304688 18.722656 206.304688 18.824219 C 206.3125 18.929688 206.324219 19.089844 206.335938 19.308594 C 206.34375 19.519531 206.351562 19.664062 206.351562 19.746094 L 206.382812 19.746094 C 206.589844 19.320312 206.859375 19.011719 207.195312 18.824219 C 207.527344 18.628906 207.964844 18.527344 208.507812 18.527344 C 209.351562 18.527344 209.980469 18.816406 210.398438 19.386719 C 210.824219 19.949219 211.039062 20.835938 211.039062 22.042969 Z M 209.835938 22.074219 C 209.835938 21.117188 209.703125 20.433594 209.445312 20.027344 C 209.183594 19.613281 208.773438 19.402344 208.210938 19.402344 C 207.761719 19.402344 207.40625 19.503906 207.148438 19.699219 C 206.898438 19.886719 206.703125 20.183594 206.570312 20.589844 C 206.433594 20.988281 206.367188 21.507812 206.367188 22.152344 C 206.367188 23.058594 206.507812 23.726562 206.789062 24.152344 C 207.078125 24.582031 207.554688 24.792969 208.210938 24.792969 C 208.773438 24.792969 209.183594 24.585938 209.445312 24.167969 C 209.703125 23.753906 209.835938 23.054688 209.835938 22.074219 Z M 213.332031 22.324219 C 213.332031 23.105469 213.492188 23.710938 213.816406 24.136719 C 214.148438 24.566406 214.628906 24.777344 215.253906 24.777344 C 215.742188 24.777344 216.136719 24.679688 216.441406 24.480469 C 216.742188 24.285156 216.945312 24.035156 217.050781 23.730469 L 218.050781 24.011719 C 217.644531 25.097656 216.710938 25.636719 215.253906 25.636719 C 214.230469 25.636719 213.457031 25.335938 212.925781 24.730469 C 212.394531 24.128906 212.128906 23.226562 212.128906 22.027344 C 212.128906 20.894531 212.394531 20.023438 212.925781 19.417969 C 213.457031 18.816406 214.214844 18.511719 215.207031 18.511719 C 217.226562 18.511719 218.238281 19.730469 218.238281 22.167969 L 218.238281 22.324219 Z M 217.050781 21.449219 C 216.988281 20.722656 216.804688 20.191406 216.503906 19.855469 C 216.199219 19.523438 215.761719 19.355469 215.191406 19.355469 C 214.636719 19.355469 214.195312 19.542969 213.863281 19.917969 C 213.539062 20.285156 213.367188 20.792969 213.347656 21.449219 Z M 223.375 24.621094 L 222.296875 24.621094 L 222.296875 24.433594 L 224.453125 22.105469 L 222.3125 19.746094 L 222.3125 19.542969 L 223.375 19.542969 L 225.515625 21.902344 L 225.515625 22.292969 Z M 220.421875 24.621094 L 219.34375 24.621094 L 219.34375 24.433594 L 221.484375 22.105469 L 219.359375 19.746094 L 219.359375 19.542969 L 220.421875 19.542969 L 222.546875 21.902344 L 222.546875 22.292969 Z M 135 13.742188 "/>
<path style=" stroke:none;fill-rule:nonzero;fill:rgb(0%,0%,0%);fill-opacity:1;" d="M 175.84375 35.980469 C 175.84375 36.898438 175.660156 37.699219 175.296875 38.386719 C 174.929688 39.074219 174.414062 39.601562 173.75 39.964844 C 173.09375 40.332031 172.335938 40.511719 171.484375 40.511719 L 167.875 40.511719 L 167.875 31.574219 L 171.109375 31.574219 C 172.609375 31.574219 173.769531 31.957031 174.59375 32.714844 C 175.425781 33.464844 175.84375 34.554688 175.84375 35.980469 Z M 173.953125 35.980469 C 173.953125 35.011719 173.703125 34.277344 173.203125 33.777344 C 172.703125 33.269531 171.988281 33.011719 171.0625 33.011719 L 169.75 33.011719 L 169.75 39.058594 L 171.328125 39.058594 C 172.128906 39.058594 172.765625 38.785156 173.234375 38.230469 C 173.710938 37.679688 173.953125 36.929688 173.953125 35.980469 Z M 178.890625 40.636719 C 178.222656 40.636719 177.703125 40.460938 177.328125 40.105469 C 176.953125 39.742188 176.765625 39.230469 176.765625 38.574219 C 176.765625 37.855469 176.992188 37.316406 177.453125 36.949219 C 177.921875 36.574219 178.597656 36.382812 179.484375 36.371094 L 180.96875 36.339844 L 180.96875 35.996094 C 180.96875 35.550781 180.882812 35.214844 180.71875 34.996094 C 180.5625 34.777344 180.304688 34.667969 179.953125 34.667969 C 179.628906 34.667969 179.390625 34.746094 179.234375 34.902344 C 179.078125 35.050781 178.976562 35.292969 178.9375 35.636719 L 177.078125 35.558594 C 177.191406 34.894531 177.5 34.386719 178 34.042969 C 178.5 33.691406 179.175781 33.511719 180.03125 33.511719 C 180.894531 33.511719 181.5625 33.726562 182.03125 34.152344 C 182.507812 34.582031 182.75 35.191406 182.75 35.980469 L 182.75 38.480469 C 182.75 38.867188 182.789062 39.132812 182.875 39.277344 C 182.957031 39.425781 183.101562 39.496094 183.3125 39.496094 C 183.445312 39.496094 183.578125 39.488281 183.703125 39.464844 L 183.703125 40.417969 C 183.597656 40.449219 183.503906 40.476562 183.421875 40.496094 C 183.335938 40.515625 183.25 40.53125 183.15625 40.542969 C 183.070312 40.550781 182.984375 40.5625 182.890625 40.574219 C 182.796875 40.582031 182.6875 40.589844 182.5625 40.589844 C 182.113281 40.589844 181.78125 40.480469 181.5625 40.261719 C 181.351562 40.042969 181.226562 39.722656 181.1875 39.292969 L 181.140625 39.292969 C 180.640625 40.191406 179.890625 40.636719 178.890625 40.636719 Z M 180.96875 37.324219 L 180.046875 37.339844 C 179.628906 37.363281 179.332031 37.410156 179.15625 37.480469 C 178.988281 37.554688 178.859375 37.667969 178.765625 37.824219 C 178.671875 37.972656 178.625 38.175781 178.625 38.433594 C 178.625 38.757812 178.695312 38.996094 178.84375 39.152344 C 179 39.308594 179.203125 39.386719 179.453125 39.386719 C 179.734375 39.386719 179.988281 39.316406 180.21875 39.167969 C 180.445312 39.011719 180.628906 38.804688 180.765625 38.542969 C 180.898438 38.273438 180.96875 37.988281 180.96875 37.683594 Z M 186.289062 40.621094 C 185.757812 40.621094 185.351562 40.480469 185.070312 40.199219 C 184.789062 39.910156 184.648438 39.476562 184.648438 38.902344 L 184.648438 34.855469 L 183.773438 34.855469 L 183.773438 33.636719 L 184.742188 33.636719 L 185.289062 32.027344 L 186.414062 32.027344 L 186.414062 33.636719 L 187.710938 33.636719 L 187.710938 34.855469 L 186.414062 34.855469 L 186.414062 38.417969 C 186.414062 38.753906 186.476562 38.996094 186.601562 39.152344 C 186.726562 39.308594 186.921875 39.386719 187.195312 39.386719 C 187.328125 39.386719 187.527344 39.363281 187.789062 39.308594 L 187.789062 40.402344 C 187.351562 40.546875 186.851562 40.621094 186.289062 40.621094 Z M 191.667969 40.636719 C 190.636719 40.636719 189.84375 40.335938 189.292969 39.730469 C 188.738281 39.117188 188.464844 38.222656 188.464844 37.042969 C 188.464844 35.910156 188.746094 35.039062 189.308594 34.433594 C 189.871094 33.820312 190.667969 33.511719 191.699219 33.511719 C 192.675781 33.511719 193.425781 33.839844 193.949219 34.496094 C 194.46875 35.152344 194.730469 36.113281 194.730469 37.371094 L 194.730469 37.417969 L 190.324219 37.417969 C 190.324219 38.085938 190.449219 38.589844 190.699219 38.933594 C 190.949219 39.277344 191.300781 39.449219 191.761719 39.449219 C 192.386719 39.449219 192.78125 39.175781 192.949219 38.621094 L 194.636719 38.777344 C 194.144531 40.019531 193.15625 40.636719 191.667969 40.636719 Z M 191.667969 34.636719 C 191.25 34.636719 190.925781 34.785156 190.699219 35.074219 C 190.46875 35.367188 190.347656 35.777344 190.339844 36.308594 L 193.011719 36.308594 C 192.980469 35.746094 192.84375 35.332031 192.605469 35.058594 C 192.375 34.777344 192.0625 34.636719 191.667969 34.636719 Z M 167 28.742188 "/>
<path style=" stroke:none;fill-rule:nonzero;fill:rgb(75.294118%,75.294118%,75.294118%);fill-opacity:0.2;" d="M 249 17 L 351 17 L 351 54 L 249 54 Z M 249 17 "/>
<path style=" stroke:none;fill-rule:nonzero;fill:rgb(100%,100%,100%);fill-opacity:1;" d="M 242 10 L 344 10 L 344 47 L 242 47 Z M 242 10 "/>
<path style="fill:none;stroke-width:1;stroke-linecap:butt;stroke-linejoin:miter;stroke:rgb(0%,0%,0%);stroke-opacity:1;stroke-miterlimit:10;" d="M 344 136 L 446 136 L 446 173 L 344 173 Z M 344 136 Z M 344 136 " transform="matrix(1,0,0,1,-102,-126)"/>
<path style=" stroke:none;fill-rule:nonzero;fill:rgb(0%,0%,0%);fill-opacity:1;" d="M 252.625 24.621094 L 250.484375 22.292969 L 250.484375 21.902344 L 252.625 19.542969 L 253.6875 19.542969 L 253.6875 19.746094 L 251.546875 22.105469 L 253.703125 24.433594 L 253.703125 24.621094 Z M 249.65625 24.621094 L 247.53125 22.292969 L 247.53125 21.902344 L 249.65625 19.542969 L 250.71875 19.542969 L 250.71875 19.746094 L 248.59375 22.105469 L 250.734375 24.433594 L 250.734375 24.621094 Z M 260.917969 22.042969 C 260.917969 24.441406 260.074219 25.636719 258.386719 25.636719 C 257.332031 25.636719 256.625 25.242188 256.261719 24.449219 L 256.230469 24.449219 C 256.238281 24.480469 256.246094 24.839844 256.246094 25.527344 L 256.246094 28.214844 L 255.105469 28.214844 L 255.105469 20.042969 C 255.105469 19.335938 255.09375 18.867188 255.074219 18.636719 L 256.167969 18.636719 C 256.175781 18.660156 256.183594 18.722656 256.183594 18.824219 C 256.191406 18.929688 256.203125 19.089844 256.214844 19.308594 C 256.222656 19.519531 256.230469 19.664062 256.230469 19.746094 L 256.261719 19.746094 C 256.46875 19.320312 256.738281 19.011719 257.074219 18.824219 C 257.40625 18.628906 257.84375 18.527344 258.386719 18.527344 C 259.230469 18.527344 259.859375 18.816406 260.277344 19.386719 C 260.703125 19.949219 260.917969 20.835938 260.917969 22.042969 Z M 259.714844 22.074219 C 259.714844 21.117188 259.582031 20.433594 259.324219 20.027344 C 259.0625 19.613281 258.652344 19.402344 258.089844 19.402344 C 257.640625 19.402344 257.285156 19.503906 257.027344 19.699219 C 256.777344 19.886719 256.582031 20.183594 256.449219 20.589844 C 256.3125 20.988281 256.246094 21.507812 256.246094 22.152344 C 256.246094 23.058594 256.386719 23.726562 256.667969 24.152344 C 256.957031 24.582031 257.433594 24.792969 258.089844 24.792969 C 258.652344 24.792969 259.0625 24.585938 259.324219 24.167969 C 259.582031 23.753906 259.714844 23.054688 259.714844 22.074219 Z M 262.367188 25.511719 L 262.367188 20.246094 C 262.367188 19.757812 262.351562 19.222656 262.320312 18.636719 L 263.398438 18.636719 C 263.4375 19.417969 263.460938 19.886719 263.460938 20.042969 L 263.476562 20.042969 C 263.664062 19.460938 263.871094 19.058594 264.101562 18.839844 C 264.339844 18.621094 264.679688 18.511719 265.117188 18.511719 C 265.261719 18.511719 265.414062 18.535156 265.570312 18.574219 L 265.570312 19.621094 C 265.421875 19.582031 265.21875 19.558594 264.960938 19.558594 C 264.492188 19.558594 264.132812 19.769531 263.882812 20.183594 C 263.632812 20.589844 263.507812 21.175781 263.507812 21.933594 L 263.507812 25.511719 Z M 266.664062 17.183594 L 266.664062 16.089844 L 267.804688 16.089844 L 267.804688 17.183594 Z M 266.664062 25.511719 L 266.664062 18.636719 L 267.804688 18.636719 L 267.804688 25.511719 Z M 273.554688 25.511719 L 273.554688 21.152344 C 273.554688 20.496094 273.460938 20.042969 273.273438 19.792969 C 273.09375 19.535156 272.773438 19.402344 272.304688 19.402344 C 271.8125 19.402344 271.421875 19.589844 271.132812 19.964844 C 270.851562 20.332031 270.710938 20.851562 270.710938 21.527344 L 270.710938 25.511719 L 269.585938 25.511719 L 269.585938 20.105469 C 269.585938 19.304688 269.570312 18.816406 269.539062 18.636719 L 270.617188 18.636719 C 270.625 18.660156 270.632812 18.714844 270.632812 18.808594 C 270.640625 18.902344 270.648438 19.011719 270.648438 19.136719 C 270.65625 19.253906 270.667969 19.480469 270.679688 19.824219 L 270.695312 19.824219 C 270.933594 19.335938 271.210938 18.996094 271.523438 18.808594 C 271.84375 18.613281 272.234375 18.511719 272.695312 18.511719 C 273.214844 18.511719 273.625 18.617188 273.929688 18.824219 C 274.230469 19.035156 274.445312 19.367188 274.570312 19.824219 L 274.585938 19.824219 C 274.824219 19.355469 275.109375 19.023438 275.445312 18.824219 C 275.777344 18.617188 276.183594 18.511719 276.664062 18.511719 C 277.359375 18.511719 277.867188 18.707031 278.179688 19.089844 C 278.492188 19.464844 278.648438 20.082031 278.648438 20.933594 L 278.648438 25.511719 L 277.523438 25.511719 L 277.523438 21.152344 C 277.523438 20.496094 277.429688 20.042969 277.242188 19.792969 C 277.0625 19.535156 276.734375 19.402344 276.257812 19.402344 C 275.765625 19.402344 275.382812 19.589844 275.101562 19.964844 C 274.820312 20.332031 274.679688 20.851562 274.679688 21.527344 L 274.679688 25.511719 Z M 280.382812 17.183594 L 280.382812 16.089844 L 281.523438 16.089844 L 281.523438 17.183594 Z M 280.382812 25.511719 L 280.382812 18.636719 L 281.523438 18.636719 L 281.523438 25.511719 Z M 285.914062 25.464844 C 285.539062 25.566406 285.152344 25.621094 284.757812 25.621094 C 283.839844 25.621094 283.382812 25.101562 283.382812 24.058594 L 283.382812 19.480469 L 282.601562 19.480469 L 282.601562 18.636719 L 283.429688 18.636719 L 283.773438 17.105469 L 284.539062 17.105469 L 284.539062 18.636719 L 285.804688 18.636719 L 285.804688 19.480469 L 284.539062 19.480469 L 284.539062 23.808594 C 284.539062 24.144531 284.589844 24.378906 284.695312 24.511719 C 284.796875 24.636719 284.984375 24.699219 285.257812 24.699219 C 285.402344 24.699219 285.621094 24.675781 285.914062 24.621094 Z M 286.882812 17.183594 L 286.882812 16.089844 L 288.023438 16.089844 L 288.023438 17.183594 Z M 286.882812 25.511719 L 286.882812 18.636719 L 288.023438 18.636719 L 288.023438 25.511719 Z M 292.789062 25.511719 L 291.445312 25.511719 L 288.945312 18.636719 L 290.164062 18.636719 L 291.679688 23.105469 C 291.730469 23.285156 291.875 23.789062 292.117188 24.621094 L 292.335938 23.871094 L 292.585938 23.121094 L 294.148438 18.636719 L 295.351562 18.636719 Z M 297.148438 22.324219 C 297.148438 23.105469 297.308594 23.710938 297.632812 24.136719 C 297.964844 24.566406 298.445312 24.777344 299.070312 24.777344 C 299.558594 24.777344 299.953125 24.679688 300.257812 24.480469 C 300.558594 24.285156 300.761719 24.035156 300.867188 23.730469 L 301.867188 24.011719 C 301.460938 25.097656 300.527344 25.636719 299.070312 25.636719 C 298.046875 25.636719 297.273438 25.335938 296.742188 24.730469 C 296.210938 24.128906 295.945312 23.226562 295.945312 22.027344 C 295.945312 20.894531 296.210938 20.023438 296.742188 19.417969 C 297.273438 18.816406 298.03125 18.511719 299.023438 18.511719 C 301.042969 18.511719 302.054688 19.730469 302.054688 22.167969 L 302.054688 22.324219 Z M 300.867188 21.449219 C 300.804688 20.722656 300.621094 20.191406 300.320312 19.855469 C 300.015625 19.523438 299.578125 19.355469 299.007812 19.355469 C 298.453125 19.355469 298.011719 19.542969 297.679688 19.917969 C 297.355469 20.285156 297.183594 20.792969 297.164062 21.449219 Z M 307.207031 17.558594 L 307.207031 25.511719 L 305.988281 25.511719 L 305.988281 17.558594 L 302.925781 17.558594 L 302.925781 16.574219 L 310.269531 16.574219 L 310.269531 17.558594 Z M 311.070312 28.214844 C 310.757812 28.214844 310.492188 28.1875 310.273438 28.136719 L 310.273438 27.277344 C 310.4375 27.308594 310.617188 27.324219 310.804688 27.324219 C 311.523438 27.324219 312.085938 26.796875 312.492188 25.746094 L 312.601562 25.480469 L 309.882812 18.636719 L 311.101562 18.636719 L 312.554688 22.433594 C 312.574219 22.496094 312.59375 22.570312 312.617188 22.652344 C 312.648438 22.738281 312.742188 23.011719 312.898438 23.480469 C 313.0625 23.949219 313.152344 24.210938 313.164062 24.261719 L 313.617188 23.011719 L 315.117188 18.636719 L 316.320312 18.636719 L 313.679688 25.511719 C 313.398438 26.238281 313.132812 26.78125 312.882812 27.136719 C 312.640625 27.5 312.371094 27.769531 312.070312 27.949219 C 311.777344 28.125 311.445312 28.214844 311.070312 28.214844 Z M 323.039062 22.042969 C 323.039062 24.441406 322.195312 25.636719 320.507812 25.636719 C 319.453125 25.636719 318.746094 25.242188 318.382812 24.449219 L 318.351562 24.449219 C 318.359375 24.480469 318.367188 24.839844 318.367188 25.527344 L 318.367188 28.214844 L 317.226562 28.214844 L 317.226562 20.042969 C 317.226562 19.335938 317.214844 18.867188 317.195312 18.636719 L 318.289062 18.636719 C 318.296875 18.660156 318.304688 18.722656 318.304688 18.824219 C 318.3125 18.929688 318.324219 19.089844 318.335938 19.308594 C 318.34375 19.519531 318.351562 19.664062 318.351562 19.746094 L 318.382812 19.746094 C 318.589844 19.320312 318.859375 19.011719 319.195312 18.824219 C 319.527344 18.628906 319.964844 18.527344 320.507812 18.527344 C 321.351562 18.527344 321.980469 18.816406 322.398438 19.386719 C 322.824219 19.949219 323.039062 20.835938 323.039062 22.042969 Z M 321.835938 22.074219 C 321.835938 21.117188 321.703125 20.433594 321.445312 20.027344 C 321.183594 19.613281 320.773438 19.402344 320.210938 19.402344 C 319.761719 19.402344 319.40625 19.503906 319.148438 19.699219 C 318.898438 19.886719 318.703125 20.183594 318.570312 20.589844 C 318.433594 20.988281 318.367188 21.507812 318.367188 22.152344 C 318.367188 23.058594 318.507812 23.726562 318.789062 24.152344 C 319.078125 24.582031 319.554688 24.792969 320.210938 24.792969 C 320.773438 24.792969 321.183594 24.585938 321.445312 24.167969 C 321.703125 23.753906 321.835938 23.054688 321.835938 22.074219 Z M 325.332031 22.324219 C 325.332031 23.105469 325.492188 23.710938 325.816406 24.136719 C 326.148438 24.566406 326.628906 24.777344 327.253906 24.777344 C 327.742188 24.777344 328.136719 24.679688 328.441406 24.480469 C 328.742188 24.285156 328.945312 24.035156 329.050781 23.730469 L 330.050781 24.011719 C 329.644531 25.097656 328.710938 25.636719 327.253906 25.636719 C 326.230469 25.636719 325.457031 25.335938 324.925781 24.730469 C 324.394531 24.128906 324.128906 23.226562 324.128906 22.027344 C 324.128906 20.894531 324.394531 20.023438 324.925781 19.417969 C 325.457031 18.816406 326.214844 18.511719 327.207031 18.511719 C 329.226562 18.511719 330.238281 19.730469 330.238281 22.167969 L 330.238281 22.324219 Z M 329.050781 21.449219 C 328.988281 20.722656 328.804688 20.191406 328.503906 19.855469 C 328.199219 19.523438 327.761719 19.355469 327.191406 19.355469 C 326.636719 19.355469 326.195312 19.542969 325.863281 19.917969 C 325.539062 20.285156 325.367188 20.792969 325.347656 21.449219 Z M 335.375 24.621094 L 334.296875 24.621094 L 334.296875 24.433594 L 336.453125 22.105469 L 334.3125 19.746094 L 334.3125 19.542969 L 335.375 19.542969 L 337.515625 21.902344 L 337.515625 22.292969 Z M 332.421875 24.621094 L 331.34375 24.621094 L 331.34375 24.433594 L 333.484375 22.105469 L 331.359375 19.746094 L 331.359375 19.542969 L 332.421875 19.542969 L 334.546875 21.902344 L 334.546875 22.292969 Z M 247 13.742188 "/>
<path style=" stroke:none;fill-rule:nonzero;fill:rgb(0%,0%,0%);fill-opacity:1;" d="M 279.75 33.011719 L 279.75 35.777344 L 284.3125 35.777344 L 284.3125 37.230469 L 279.75 37.230469 L 279.75 40.511719 L 277.875 40.511719 L 277.875 31.574219 L 284.46875 31.574219 L 284.46875 33.011719 Z M 285.847656 40.511719 L 285.847656 31.089844 L 287.628906 31.089844 L 287.628906 40.511719 Z M 295.992188 37.074219 C 295.992188 38.191406 295.679688 39.066406 295.054688 39.699219 C 294.4375 40.324219 293.585938 40.636719 292.492188 40.636719 C 291.429688 40.636719 290.589844 40.320312 289.976562 39.683594 C 289.371094 39.050781 289.070312 38.179688 289.070312 37.074219 C 289.070312 35.972656 289.371094 35.101562 289.976562 34.464844 C 290.589844 33.832031 291.445312 33.511719 292.539062 33.511719 C 293.652344 33.511719 294.507812 33.820312 295.101562 34.433594 C 295.695312 35.050781 295.992188 35.929688 295.992188 37.074219 Z M 294.117188 37.074219 C 294.117188 36.253906 293.980469 35.660156 293.710938 35.292969 C 293.449219 34.929688 293.0625 34.746094 292.554688 34.746094 C 291.46875 34.746094 290.929688 35.523438 290.929688 37.074219 C 290.929688 37.835938 291.058594 38.417969 291.320312 38.824219 C 291.589844 39.222656 291.976562 39.417969 292.476562 39.417969 C 293.570312 39.417969 294.117188 38.636719 294.117188 37.074219 Z M 298.996094 40.636719 C 298.328125 40.636719 297.808594 40.460938 297.433594 40.105469 C 297.058594 39.742188 296.871094 39.230469 296.871094 38.574219 C 296.871094 37.855469 297.097656 37.316406 297.558594 36.949219 C 298.027344 36.574219 298.703125 36.382812 299.589844 36.371094 L 301.074219 36.339844 L 301.074219 35.996094 C 301.074219 35.550781 300.988281 35.214844 300.824219 34.996094 C 300.667969 34.777344 300.410156 34.667969 300.058594 34.667969 C 299.734375 34.667969 299.496094 34.746094 299.339844 34.902344 C 299.183594 35.050781 299.082031 35.292969 299.042969 35.636719 L 297.183594 35.558594 C 297.296875 34.894531 297.605469 34.386719 298.105469 34.042969 C 298.605469 33.691406 299.28125 33.511719 300.136719 33.511719 C 301 33.511719 301.667969 33.726562 302.136719 34.152344 C 302.613281 34.582031 302.855469 35.191406 302.855469 35.980469 L 302.855469 38.480469 C 302.855469 38.867188 302.894531 39.132812 302.980469 39.277344 C 303.0625 39.425781 303.207031 39.496094 303.417969 39.496094 C 303.550781 39.496094 303.683594 39.488281 303.808594 39.464844 L 303.808594 40.417969 C 303.703125 40.449219 303.609375 40.476562 303.527344 40.496094 C 303.441406 40.515625 303.355469 40.53125 303.261719 40.542969 C 303.175781 40.550781 303.089844 40.5625 302.996094 40.574219 C 302.902344 40.582031 302.792969 40.589844 302.667969 40.589844 C 302.21875 40.589844 301.886719 40.480469 301.667969 40.261719 C 301.457031 40.042969 301.332031 39.722656 301.292969 39.292969 L 301.246094 39.292969 C 300.746094 40.191406 299.996094 40.636719 298.996094 40.636719 Z M 301.074219 37.324219 L 300.152344 37.339844 C 299.734375 37.363281 299.4375 37.410156 299.261719 37.480469 C 299.09375 37.554688 298.964844 37.667969 298.871094 37.824219 C 298.777344 37.972656 298.730469 38.175781 298.730469 38.433594 C 298.730469 38.757812 298.800781 38.996094 298.949219 39.152344 C 299.105469 39.308594 299.308594 39.386719 299.558594 39.386719 C 299.839844 39.386719 300.09375 39.316406 300.324219 39.167969 C 300.550781 39.011719 300.734375 38.804688 300.871094 38.542969 C 301.003906 38.273438 301.074219 37.988281 301.074219 37.683594 Z M 306.398438 40.621094 C 305.867188 40.621094 305.460938 40.480469 305.179688 40.199219 C 304.898438 39.910156 304.757812 39.476562 304.757812 38.902344 L 304.757812 34.855469 L 303.882812 34.855469 L 303.882812 33.636719 L 304.851562 33.636719 L 305.398438 32.027344 L 306.523438 32.027344 L 306.523438 33.636719 L 307.820312 33.636719 L 307.820312 34.855469 L 306.523438 34.855469 L 306.523438 38.417969 C 306.523438 38.753906 306.585938 38.996094 306.710938 39.152344 C 306.835938 39.308594 307.03125 39.386719 307.304688 39.386719 C 307.4375 39.386719 307.636719 39.363281 307.898438 39.308594 L 307.898438 40.402344 C 307.460938 40.546875 306.960938 40.621094 306.398438 40.621094 Z M 277 28.742188 "/>
<path style=" stroke:none;fill-rule:nonzero;fill:rgb(75.294118%,75.294118%,75.294118%);fill-opacity:0.2;" d="M 369 17 L 471 17 L 471 54 L 369 54 Z M 369 17 "/>
<path style=" stroke:none;fill-rule:nonzero;fill:rgb(100%,100%,100%);fill-opacity:1;" d="M 362 10 L 464 10 L 464 47 L 362 47 Z M 362 10 "/>
<path style="fill:none;stroke-width:1;stroke-linecap:butt;stroke-linejoin:miter;stroke:rgb(0%,0%,0%);stroke-opacity:1;stroke-miterlimit:10;" d="M 464 136 L 566 136 L 566 173 L 464 173 Z M 464 136 Z M 464 136 " transform="matrix(1,0,0,1,-102,-126)"/>
<path style=" stroke:none;fill-rule:nonzero;fill:rgb(0%,0%,0%);fill-opacity:1;" d="M 372.625 24.621094 L 370.484375 22.292969 L 370.484375 21.902344 L 372.625 19.542969 L 373.6875 19.542969 L 373.6875 19.746094 L 371.546875 22.105469 L 373.703125 24.433594 L 373.703125 24.621094 Z M 369.65625 24.621094 L 367.53125 22.292969 L 367.53125 21.902344 L 369.65625 19.542969 L 370.71875 19.542969 L 370.71875 19.746094 L 368.59375 22.105469 L 370.734375 24.433594 L 370.734375 24.621094 Z M 380.917969 22.042969 C 380.917969 24.441406 380.074219 25.636719 378.386719 25.636719 C 377.332031 25.636719 376.625 25.242188 376.261719 24.449219 L 376.230469 24.449219 C 376.238281 24.480469 376.246094 24.839844 376.246094 25.527344 L 376.246094 28.214844 L 375.105469 28.214844 L 375.105469 20.042969 C 375.105469 19.335938 375.09375 18.867188 375.074219 18.636719 L 376.167969 18.636719 C 376.175781 18.660156 376.183594 18.722656 376.183594 18.824219 C 376.191406 18.929688 376.203125 19.089844 376.214844 19.308594 C 376.222656 19.519531 376.230469 19.664062 376.230469 19.746094 L 376.261719 19.746094 C 376.46875 19.320312 376.738281 19.011719 377.074219 18.824219 C 377.40625 18.628906 377.84375 18.527344 378.386719 18.527344 C 379.230469 18.527344 379.859375 18.816406 380.277344 19.386719 C 380.703125 19.949219 380.917969 20.835938 380.917969 22.042969 Z M 379.714844 22.074219 C 379.714844 21.117188 379.582031 20.433594 379.324219 20.027344 C 379.0625 19.613281 378.652344 19.402344 378.089844 19.402344 C 377.640625 19.402344 377.285156 19.503906 377.027344 19.699219 C 376.777344 19.886719 376.582031 20.183594 376.449219 20.589844 C 376.3125 20.988281 376.246094 21.507812 376.246094 22.152344 C 376.246094 23.058594 376.386719 23.726562 376.667969 24.152344 C 376.957031 24.582031 377.433594 24.792969 378.089844 24.792969 C 378.652344 24.792969 379.0625 24.585938 379.324219 24.167969 C 379.582031 23.753906 379.714844 23.054688 379.714844 22.074219 Z M 382.367188 25.511719 L 382.367188 20.246094 C 382.367188 19.757812 382.351562 19.222656 382.320312 18.636719 L 383.398438 18.636719 C 383.4375 19.417969 383.460938 19.886719 383.460938 20.042969 L 383.476562 20.042969 C 383.664062 19.460938 383.871094 19.058594 384.101562 18.839844 C 384.339844 18.621094 384.679688 18.511719 385.117188 18.511719 C 385.261719 18.511719 385.414062 18.535156 385.570312 18.574219 L 385.570312 19.621094 C 385.421875 19.582031 385.21875 19.558594 384.960938 19.558594 C 384.492188 19.558594 384.132812 19.769531 383.882812 20.183594 C 383.632812 20.589844 383.507812 21.175781 383.507812 21.933594 L 383.507812 25.511719 Z M 386.664062 17.183594 L 386.664062 16.089844 L 387.804688 16.089844 L 387.804688 17.183594 Z M 386.664062 25.511719 L 386.664062 18.636719 L 387.804688 18.636719 L 387.804688 25.511719 Z M 393.554688 25.511719 L 393.554688 21.152344 C 393.554688 20.496094 393.460938 20.042969 393.273438 19.792969 C 393.09375 19.535156 392.773438 19.402344 392.304688 19.402344 C 391.8125 19.402344 391.421875 19.589844 391.132812 19.964844 C 390.851562 20.332031 390.710938 20.851562 390.710938 21.527344 L 390.710938 25.511719 L 389.585938 25.511719 L 389.585938 20.105469 C 389.585938 19.304688 389.570312 18.816406 389.539062 18.636719 L 390.617188 18.636719 C 390.625 18.660156 390.632812 18.714844 390.632812 18.808594 C 390.640625 18.902344 390.648438 19.011719 390.648438 19.136719 C 390.65625 19.253906 390.667969 19.480469 390.679688 19.824219 L 390.695312 19.824219 C 390.933594 19.335938 391.210938 18.996094 391.523438 18.808594 C 391.84375 18.613281 392.234375 18.511719 392.695312 18.511719 C 393.214844 18.511719 393.625 18.617188 393.929688 18.824219 C 394.230469 19.035156 394.445312 19.367188 394.570312 19.824219 L 394.585938 19.824219 C 394.824219 19.355469 395.109375 19.023438 395.445312 18.824219 C 395.777344 18.617188 396.183594 18.511719 396.664062 18.511719 C 397.359375 18.511719 397.867188 18.707031 398.179688 19.089844 C 398.492188 19.464844 398.648438 20.082031 398.648438 20.933594 L 398.648438 25.511719 L 397.523438 25.511719 L 397.523438 21.152344 C 397.523438 20.496094 397.429688 20.042969 397.242188 19.792969 C 397.0625 19.535156 396.734375 19.402344 396.257812 19.402344 C 395.765625 19.402344 395.382812 19.589844 395.101562 19.964844 C 394.820312 20.332031 394.679688 20.851562 394.679688 21.527344 L 394.679688 25.511719 Z M 400.382812 17.183594 L 400.382812 16.089844 L 401.523438 16.089844 L 401.523438 17.183594 Z M 400.382812 25.511719 L 400.382812 18.636719 L 401.523438 18.636719 L 401.523438 25.511719 Z M 405.914062 25.464844 C 405.539062 25.566406 405.152344 25.621094 404.757812 25.621094 C 403.839844 25.621094 403.382812 25.101562 403.382812 24.058594 L 403.382812 19.480469 L 402.601562 19.480469 L 402.601562 18.636719 L 403.429688 18.636719 L 403.773438 17.105469 L 404.539062 17.105469 L 404.539062 18.636719 L 405.804688 18.636719 L 405.804688 19.480469 L 404.539062 19.480469 L 404.539062 23.808594 C 404.539062 24.144531 404.589844 24.378906 404.695312 24.511719 C 404.796875 24.636719 404.984375 24.699219 405.257812 24.699219 C 405.402344 24.699219 405.621094 24.675781 405.914062 24.621094 Z M 406.882812 17.183594 L 406.882812 16.089844 L 408.023438 16.089844 L 408.023438 17.183594 Z M 406.882812 25.511719 L 406.882812 18.636719 L 408.023438 18.636719 L 408.023438 25.511719 Z M 412.789062 25.511719 L 411.445312 25.511719 L 408.945312 18.636719 L 410.164062 18.636719 L 411.679688 23.105469 C 411.730469 23.285156 411.875 23.789062 412.117188 24.621094 L 412.335938 23.871094 L 412.585938 23.121094 L 414.148438 18.636719 L 415.351562 18.636719 Z M 417.148438 22.324219 C 417.148438 23.105469 417.308594 23.710938 417.632812 24.136719 C 417.964844 24.566406 418.445312 24.777344 419.070312 24.777344 C 419.558594 24.777344 419.953125 24.679688 420.257812 24.480469 C 420.558594 24.285156 420.761719 24.035156 420.867188 23.730469 L 421.867188 24.011719 C 421.460938 25.097656 420.527344 25.636719 419.070312 25.636719 C 418.046875 25.636719 417.273438 25.335938 416.742188 24.730469 C 416.210938 24.128906 415.945312 23.226562 415.945312 22.027344 C 415.945312 20.894531 416.210938 20.023438 416.742188 19.417969 C 417.273438 18.816406 418.03125 18.511719 419.023438 18.511719 C 421.042969 18.511719 422.054688 19.730469 422.054688 22.167969 L 422.054688 22.324219 Z M 420.867188 21.449219 C 420.804688 20.722656 420.621094 20.191406 420.320312 19.855469 C 420.015625 19.523438 419.578125 19.355469 419.007812 19.355469 C 418.453125 19.355469 418.011719 19.542969 417.679688 19.917969 C 417.355469 20.285156 417.183594 20.792969 417.164062 21.449219 Z M 427.207031 17.558594 L 427.207031 25.511719 L 425.988281 25.511719 L 425.988281 17.558594 L 422.925781 17.558594 L 422.925781 16.574219 L 430.269531 16.574219 L 430.269531 17.558594 Z M 431.070312 28.214844 C 430.757812 28.214844 430.492188 28.1875 430.273438 28.136719 L 430.273438 27.277344 C 430.4375 27.308594 430.617188 27.324219 430.804688 27.324219 C 431.523438 27.324219 432.085938 26.796875 432.492188 25.746094 L 432.601562 25.480469 L 429.882812 18.636719 L 431.101562 18.636719 L 432.554688 22.433594 C 432.574219 22.496094 432.59375 22.570312 432.617188 22.652344 C 432.648438 22.738281 432.742188 23.011719 432.898438 23.480469 C 433.0625 23.949219 433.152344 24.210938 433.164062 24.261719 L 433.617188 23.011719 L 435.117188 18.636719 L 436.320312 18.636719 L 433.679688 25.511719 C 433.398438 26.238281 433.132812 26.78125 432.882812 27.136719 C 432.640625 27.5 432.371094 27.769531 432.070312 27.949219 C 431.777344 28.125 431.445312 28.214844 431.070312 28.214844 Z M 443.039062 22.042969 C 443.039062 24.441406 442.195312 25.636719 440.507812 25.636719 C 439.453125 25.636719 438.746094 25.242188 438.382812 24.449219 L 438.351562 24.449219 C 438.359375 24.480469 438.367188 24.839844 438.367188 25.527344 L 438.367188 28.214844 L 437.226562 28.214844 L 437.226562 20.042969 C 437.226562 19.335938 437.214844 18.867188 437.195312 18.636719 L 438.289062 18.636719 C 438.296875 18.660156 438.304688 18.722656 438.304688 18.824219 C 438.3125 18.929688 438.324219 19.089844 438.335938 19.308594 C 438.34375 19.519531 438.351562 19.664062 438.351562 19.746094 L 438.382812 19.746094 C 438.589844 19.320312 438.859375 19.011719 439.195312 18.824219 C 439.527344 18.628906 439.964844 18.527344 440.507812 18.527344 C 441.351562 18.527344 441.980469 18.816406 442.398438 19.386719 C 442.824219 19.949219 443.039062 20.835938 443.039062 22.042969 Z M 441.835938 22.074219 C 441.835938 21.117188 441.703125 20.433594 441.445312 20.027344 C 441.183594 19.613281 440.773438 19.402344 440.210938 19.402344 C 439.761719 19.402344 439.40625 19.503906 439.148438 19.699219 C 438.898438 19.886719 438.703125 20.183594 438.570312 20.589844 C 438.433594 20.988281 438.367188 21.507812 438.367188 22.152344 C 438.367188 23.058594 438.507812 23.726562 438.789062 24.152344 C 439.078125 24.582031 439.554688 24.792969 440.210938 24.792969 C 440.773438 24.792969 441.183594 24.585938 441.445312 24.167969 C 441.703125 23.753906 441.835938 23.054688 441.835938 22.074219 Z M 445.332031 22.324219 C 445.332031 23.105469 445.492188 23.710938 445.816406 24.136719 C 446.148438 24.566406 446.628906 24.777344 447.253906 24.777344 C 447.742188 24.777344 448.136719 24.679688 448.441406 24.480469 C 448.742188 24.285156 448.945312 24.035156 449.050781 23.730469 L 450.050781 24.011719 C 449.644531 25.097656 448.710938 25.636719 447.253906 25.636719 C 446.230469 25.636719 445.457031 25.335938 444.925781 24.730469 C 444.394531 24.128906 444.128906 23.226562 444.128906 22.027344 C 444.128906 20.894531 444.394531 20.023438 444.925781 19.417969 C 445.457031 18.816406 446.214844 18.511719 447.207031 18.511719 C 449.226562 18.511719 450.238281 19.730469 450.238281 22.167969 L 450.238281 22.324219 Z M 449.050781 21.449219 C 448.988281 20.722656 448.804688 20.191406 448.503906 19.855469 C 448.199219 19.523438 447.761719 19.355469 447.191406 19.355469 C 446.636719 19.355469 446.195312 19.542969 445.863281 19.917969 C 445.539062 20.285156 445.367188 20.792969 445.347656 21.449219 Z M 455.375 24.621094 L 454.296875 24.621094 L 454.296875 24.433594 L 456.453125 22.105469 L 454.3125 19.746094 L 454.3125 19.542969 L 455.375 19.542969 L 457.515625 21.902344 L 457.515625 22.292969 Z M 452.421875 24.621094 L 451.34375 24.621094 L 451.34375 24.433594 L 453.484375 22.105469 L 451.359375 19.746094 L 451.359375 19.542969 L 452.421875 19.542969 L 454.546875 21.902344 L 454.546875 22.292969 Z M 367 13.742188 "/>
<path style=" stroke:none;fill-rule:nonzero;fill:rgb(0%,0%,0%);fill-opacity:1;" d="M 402.15625 37.933594 C 402.15625 38.808594 401.832031 39.480469 401.1875 39.949219 C 400.539062 40.410156 399.585938 40.636719 398.328125 40.636719 C 397.179688 40.636719 396.28125 40.433594 395.625 40.027344 C 394.976562 39.621094 394.5625 39.007812 394.375 38.183594 L 396.1875 37.886719 C 396.3125 38.355469 396.550781 38.699219 396.90625 38.917969 C 397.257812 39.128906 397.75 39.230469 398.375 39.230469 C 399.6875 39.230469 400.34375 38.835938 400.34375 38.042969 C 400.34375 37.792969 400.265625 37.585938 400.109375 37.417969 C 399.960938 37.253906 399.753906 37.117188 399.484375 37.011719 C 399.210938 36.898438 398.6875 36.761719 397.90625 36.605469 C 397.238281 36.449219 396.773438 36.324219 396.515625 36.230469 C 396.253906 36.128906 396.015625 36.011719 395.796875 35.886719 C 395.585938 35.761719 395.410156 35.613281 395.265625 35.433594 C 395.117188 35.246094 395.003906 35.035156 394.921875 34.792969 C 394.835938 34.542969 394.796875 34.257812 394.796875 33.933594 C 394.796875 33.132812 395.097656 32.519531 395.703125 32.089844 C 396.304688 31.652344 397.191406 31.433594 398.359375 31.433594 C 399.460938 31.433594 400.289062 31.613281 400.84375 31.964844 C 401.40625 32.308594 401.765625 32.878906 401.921875 33.667969 L 400.109375 33.917969 C 400.015625 33.535156 399.820312 33.246094 399.53125 33.058594 C 399.25 32.863281 398.84375 32.761719 398.3125 32.761719 C 397.175781 32.761719 396.609375 33.117188 396.609375 33.824219 C 396.609375 34.066406 396.671875 34.257812 396.796875 34.402344 C 396.921875 34.550781 397.097656 34.675781 397.328125 34.777344 C 397.566406 34.882812 398.050781 35.011719 398.78125 35.167969 C 399.632812 35.347656 400.242188 35.511719 400.609375 35.667969 C 400.984375 35.824219 401.28125 36.007812 401.5 36.214844 C 401.71875 36.414062 401.878906 36.660156 401.984375 36.949219 C 402.097656 37.230469 402.15625 37.558594 402.15625 37.933594 Z M 405.34375 40.621094 C 404.8125 40.621094 404.40625 40.480469 404.125 40.199219 C 403.84375 39.910156 403.703125 39.476562 403.703125 38.902344 L 403.703125 34.855469 L 402.828125 34.855469 L 402.828125 33.636719 L 403.796875 33.636719 L 404.34375 32.027344 L 405.46875 32.027344 L 405.46875 33.636719 L 406.765625 33.636719 L 406.765625 34.855469 L 405.46875 34.855469 L 405.46875 38.417969 C 405.46875 38.753906 405.53125 38.996094 405.65625 39.152344 C 405.78125 39.308594 405.976562 39.386719 406.25 39.386719 C 406.382812 39.386719 406.582031 39.363281 406.84375 39.308594 L 406.84375 40.402344 C 406.40625 40.546875 405.90625 40.621094 405.34375 40.621094 Z M 407.90625 40.511719 L 407.90625 35.261719 C 407.90625 34.878906 407.898438 34.558594 407.890625 34.308594 C 407.878906 34.058594 407.867188 33.835938 407.859375 33.636719 L 409.5625 33.636719 C 409.570312 33.722656 409.585938 33.957031 409.609375 34.339844 C 409.628906 34.726562 409.640625 34.980469 409.640625 35.105469 L 409.671875 35.105469 C 409.835938 34.628906 409.988281 34.289062 410.125 34.089844 C 410.257812 33.894531 410.421875 33.746094 410.609375 33.652344 C 410.796875 33.558594 411.03125 33.511719 411.3125 33.511719 C 411.539062 33.511719 411.722656 33.542969 411.859375 33.605469 L 411.859375 35.089844 C 411.578125 35.027344 411.320312 34.996094 411.09375 34.996094 C 410.65625 34.996094 410.3125 35.179688 410.0625 35.542969 C 409.8125 35.898438 409.6875 36.429688 409.6875 37.136719 L 409.6875 40.511719 Z M 412.964844 32.402344 L 412.964844 31.089844 L 414.746094 31.089844 L 414.746094 32.402344 Z M 412.964844 40.511719 L 412.964844 33.636719 L 414.746094 33.636719 L 414.746094 40.511719 Z M 421.03125 40.511719 L 421.03125 36.652344 C 421.03125 35.457031 420.617188 34.855469 419.796875 34.855469 C 419.367188 34.855469 419.019531 35.042969 418.75 35.417969 C 418.488281 35.785156 418.359375 36.253906 418.359375 36.824219 L 418.359375 40.511719 L 416.578125 40.511719 L 416.578125 35.183594 C 416.578125 34.808594 416.570312 34.507812 416.5625 34.277344 C 416.550781 34.039062 416.539062 33.824219 416.53125 33.636719 L 418.234375 33.636719 C 418.242188 33.722656 418.257812 33.941406 418.28125 34.292969 C 418.300781 34.636719 418.3125 34.878906 418.3125 35.011719 L 418.34375 35.011719 C 418.582031 34.480469 418.882812 34.101562 419.25 33.871094 C 419.613281 33.632812 420.046875 33.511719 420.546875 33.511719 C 421.273438 33.511719 421.832031 33.738281 422.21875 34.183594 C 422.613281 34.632812 422.8125 35.289062 422.8125 36.152344 L 422.8125 40.511719 Z M 427.394531 43.261719 C 426.558594 43.261719 425.886719 43.097656 425.378906 42.777344 C 424.867188 42.464844 424.550781 42.011719 424.425781 41.417969 L 426.222656 41.214844 C 426.285156 41.484375 426.417969 41.699219 426.628906 41.855469 C 426.835938 42.011719 427.105469 42.089844 427.441406 42.089844 C 427.941406 42.089844 428.304688 41.9375 428.535156 41.636719 C 428.761719 41.332031 428.878906 40.878906 428.878906 40.277344 L 428.878906 39.917969 L 428.894531 39.230469 L 428.878906 39.230469 C 428.480469 40.074219 427.742188 40.496094 426.660156 40.496094 C 425.867188 40.496094 425.246094 40.199219 424.800781 39.605469 C 424.363281 39.003906 424.144531 38.144531 424.144531 37.027344 C 424.144531 35.902344 424.367188 35.039062 424.816406 34.433594 C 425.273438 33.820312 425.933594 33.511719 426.800781 33.511719 C 427.800781 33.511719 428.492188 33.925781 428.878906 34.746094 L 428.910156 34.746094 C 428.910156 34.601562 428.914062 34.402344 428.925781 34.152344 C 428.945312 33.894531 428.972656 33.722656 429.003906 33.636719 L 430.691406 33.636719 C 430.660156 34.097656 430.644531 34.628906 430.644531 35.230469 L 430.644531 40.308594 C 430.644531 41.277344 430.367188 42.011719 429.816406 42.511719 C 429.261719 43.011719 428.457031 43.261719 427.394531 43.261719 Z M 428.894531 36.980469 C 428.894531 36.273438 428.761719 35.722656 428.503906 35.324219 C 428.253906 34.929688 427.898438 34.730469 427.441406 34.730469 C 426.480469 34.730469 426.003906 35.496094 426.003906 37.027344 C 426.003906 38.519531 426.476562 39.261719 427.425781 39.261719 C 427.894531 39.261719 428.253906 39.066406 428.503906 38.667969 C 428.761719 38.273438 428.894531 37.710938 428.894531 36.980469 Z M 394 28.742188 "/>
<path style=" stroke:none;fill-rule:nonzero;fill:rgb(75.294118%,75.294118%,75.294118%);fill-opacity:0.2;" d="M 481 17 L 583 17 L 583 54 L 481 54 Z M 481 17 "/>
<path style=" stroke:none;fill-rule:nonzero;fill:rgb(100%,100%,100%);fill-opacity:1;" d="M 474 10 L 576 10 L 576 47 L 474 47 Z M 474 10 "/>
<path style="fill:none;stroke-width:1;stroke-linecap:butt;stroke-linejoin:miter;stroke:rgb(0%,0%,0%);stroke-opacity:1;stroke-miterlimit:10;" d="M 576 136 L 678 136 L 678 173 L 576 173 Z M 576 136 Z M 576 136 " transform="matrix(1,0,0,1,-102,-126)"/>
<path style=" stroke:none;fill-rule:nonzero;fill:rgb(0%,0%,0%);fill-opacity:1;" d="M 484.625 24.621094 L 482.484375 22.292969 L 482.484375 21.902344 L 484.625 19.542969 L 485.6875 19.542969 L 485.6875 19.746094 L 483.546875 22.105469 L 485.703125 24.433594 L 485.703125 24.621094 Z M 481.65625 24.621094 L 479.53125 22.292969 L 479.53125 21.902344 L 481.65625 19.542969 L 482.71875 19.542969 L 482.71875 19.746094 L 480.59375 22.105469 L 482.734375 24.433594 L 482.734375 24.621094 Z M 492.917969 22.042969 C 492.917969 24.441406 492.074219 25.636719 490.386719 25.636719 C 489.332031 25.636719 488.625 25.242188 488.261719 24.449219 L 488.230469 24.449219 C 488.238281 24.480469 488.246094 24.839844 488.246094 25.527344 L 488.246094 28.214844 L 487.105469 28.214844 L 487.105469 20.042969 C 487.105469 19.335938 487.09375 18.867188 487.074219 18.636719 L 488.167969 18.636719 C 488.175781 18.660156 488.183594 18.722656 488.183594 18.824219 C 488.191406 18.929688 488.203125 19.089844 488.214844 19.308594 C 488.222656 19.519531 488.230469 19.664062 488.230469 19.746094 L 488.261719 19.746094 C 488.46875 19.320312 488.738281 19.011719 489.074219 18.824219 C 489.40625 18.628906 489.84375 18.527344 490.386719 18.527344 C 491.230469 18.527344 491.859375 18.816406 492.277344 19.386719 C 492.703125 19.949219 492.917969 20.835938 492.917969 22.042969 Z M 491.714844 22.074219 C 491.714844 21.117188 491.582031 20.433594 491.324219 20.027344 C 491.0625 19.613281 490.652344 19.402344 490.089844 19.402344 C 489.640625 19.402344 489.285156 19.503906 489.027344 19.699219 C 488.777344 19.886719 488.582031 20.183594 488.449219 20.589844 C 488.3125 20.988281 488.246094 21.507812 488.246094 22.152344 C 488.246094 23.058594 488.386719 23.726562 488.667969 24.152344 C 488.957031 24.582031 489.433594 24.792969 490.089844 24.792969 C 490.652344 24.792969 491.0625 24.585938 491.324219 24.167969 C 491.582031 23.753906 491.714844 23.054688 491.714844 22.074219 Z M 494.367188 25.511719 L 494.367188 20.246094 C 494.367188 19.757812 494.351562 19.222656 494.320312 18.636719 L 495.398438 18.636719 C 495.4375 19.417969 495.460938 19.886719 495.460938 20.042969 L 495.476562 20.042969 C 495.664062 19.460938 495.871094 19.058594 496.101562 18.839844 C 496.339844 18.621094 496.679688 18.511719 497.117188 18.511719 C 497.261719 18.511719 497.414062 18.535156 497.570312 18.574219 L 497.570312 19.621094 C 497.421875 19.582031 497.21875 19.558594 496.960938 19.558594 C 496.492188 19.558594 496.132812 19.769531 495.882812 20.183594 C 495.632812 20.589844 495.507812 21.175781 495.507812 21.933594 L 495.507812 25.511719 Z M 498.664062 17.183594 L 498.664062 16.089844 L 499.804688 16.089844 L 499.804688 17.183594 Z M 498.664062 25.511719 L 498.664062 18.636719 L 499.804688 18.636719 L 499.804688 25.511719 Z M 505.554688 25.511719 L 505.554688 21.152344 C 505.554688 20.496094 505.460938 20.042969 505.273438 19.792969 C 505.09375 19.535156 504.773438 19.402344 504.304688 19.402344 C 503.8125 19.402344 503.421875 19.589844 503.132812 19.964844 C 502.851562 20.332031 502.710938 20.851562 502.710938 21.527344 L 502.710938 25.511719 L 501.585938 25.511719 L 501.585938 20.105469 C 501.585938 19.304688 501.570312 18.816406 501.539062 18.636719 L 502.617188 18.636719 C 502.625 18.660156 502.632812 18.714844 502.632812 18.808594 C 502.640625 18.902344 502.648438 19.011719 502.648438 19.136719 C 502.65625 19.253906 502.667969 19.480469 502.679688 19.824219 L 502.695312 19.824219 C 502.933594 19.335938 503.210938 18.996094 503.523438 18.808594 C 503.84375 18.613281 504.234375 18.511719 504.695312 18.511719 C 505.214844 18.511719 505.625 18.617188 505.929688 18.824219 C 506.230469 19.035156 506.445312 19.367188 506.570312 19.824219 L 506.585938 19.824219 C 506.824219 19.355469 507.109375 19.023438 507.445312 18.824219 C 507.777344 18.617188 508.183594 18.511719 508.664062 18.511719 C 509.359375 18.511719 509.867188 18.707031 510.179688 19.089844 C 510.492188 19.464844 510.648438 20.082031 510.648438 20.933594 L 510.648438 25.511719 L 509.523438 25.511719 L 509.523438 21.152344 C 509.523438 20.496094 509.429688 20.042969 509.242188 19.792969 C 509.0625 19.535156 508.734375 19.402344 508.257812 19.402344 C 507.765625 19.402344 507.382812 19.589844 507.101562 19.964844 C 506.820312 20.332031 506.679688 20.851562 506.679688 21.527344 L 506.679688 25.511719 Z M 512.382812 17.183594 L 512.382812 16.089844 L 513.523438 16.089844 L 513.523438 17.183594 Z M 512.382812 25.511719 L 512.382812 18.636719 L 513.523438 18.636719 L 513.523438 25.511719 Z M 517.914062 25.464844 C 517.539062 25.566406 517.152344 25.621094 516.757812 25.621094 C 515.839844 25.621094 515.382812 25.101562 515.382812 24.058594 L 515.382812 19.480469 L 514.601562 19.480469 L 514.601562 18.636719 L 515.429688 18.636719 L 515.773438 17.105469 L 516.539062 17.105469 L 516.539062 18.636719 L 517.804688 18.636719 L 517.804688 19.480469 L 516.539062 19.480469 L 516.539062 23.808594 C 516.539062 24.144531 516.589844 24.378906 516.695312 24.511719 C 516.796875 24.636719 516.984375 24.699219 517.257812 24.699219 C 517.402344 24.699219 517.621094 24.675781 517.914062 24.621094 Z M 518.882812 17.183594 L 518.882812 16.089844 L 520.023438 16.089844 L 520.023438 17.183594 Z M 518.882812 25.511719 L 518.882812 18.636719 L 520.023438 18.636719 L 520.023438 25.511719 Z M 524.789062 25.511719 L 523.445312 25.511719 L 520.945312 18.636719 L 522.164062 18.636719 L 523.679688 23.105469 C 523.730469 23.285156 523.875 23.789062 524.117188 24.621094 L 524.335938 23.871094 L 524.585938 23.121094 L 526.148438 18.636719 L 527.351562 18.636719 Z M 529.148438 22.324219 C 529.148438 23.105469 529.308594 23.710938 529.632812 24.136719 C 529.964844 24.566406 530.445312 24.777344 531.070312 24.777344 C 531.558594 24.777344 531.953125 24.679688 532.257812 24.480469 C 532.558594 24.285156 532.761719 24.035156 532.867188 23.730469 L 533.867188 24.011719 C 533.460938 25.097656 532.527344 25.636719 531.070312 25.636719 C 530.046875 25.636719 529.273438 25.335938 528.742188 24.730469 C 528.210938 24.128906 527.945312 23.226562 527.945312 22.027344 C 527.945312 20.894531 528.210938 20.023438 528.742188 19.417969 C 529.273438 18.816406 530.03125 18.511719 531.023438 18.511719 C 533.042969 18.511719 534.054688 19.730469 534.054688 22.167969 L 534.054688 22.324219 Z M 532.867188 21.449219 C 532.804688 20.722656 532.621094 20.191406 532.320312 19.855469 C 532.015625 19.523438 531.578125 19.355469 531.007812 19.355469 C 530.453125 19.355469 530.011719 19.542969 529.679688 19.917969 C 529.355469 20.285156 529.183594 20.792969 529.164062 21.449219 Z M 539.207031 17.558594 L 539.207031 25.511719 L 537.988281 25.511719 L 537.988281 17.558594 L 534.925781 17.558594 L 534.925781 16.574219 L 542.269531 16.574219 L 542.269531 17.558594 Z M 543.070312 28.214844 C 542.757812 28.214844 542.492188 28.1875 542.273438 28.136719 L 542.273438 27.277344 C 542.4375 27.308594 542.617188 27.324219 542.804688 27.324219 C 543.523438 27.324219 544.085938 26.796875 544.492188 25.746094 L 544.601562 25.480469 L 541.882812 18.636719 L 543.101562 18.636719 L 544.554688 22.433594 C 544.574219 22.496094 544.59375 22.570312 544.617188 22.652344 C 544.648438 22.738281 544.742188 23.011719 544.898438 23.480469 C 545.0625 23.949219 545.152344 24.210938 545.164062 24.261719 L 545.617188 23.011719 L 547.117188 18.636719 L 548.320312 18.636719 L 545.679688 25.511719 C 545.398438 26.238281 545.132812 26.78125 544.882812 27.136719 C 544.640625 27.5 544.371094 27.769531 544.070312 27.949219 C 543.777344 28.125 543.445312 28.214844 543.070312 28.214844 Z M 555.039062 22.042969 C 555.039062 24.441406 554.195312 25.636719 552.507812 25.636719 C 551.453125 25.636719 550.746094 25.242188 550.382812 24.449219 L 550.351562 24.449219 C 550.359375 24.480469 550.367188 24.839844 550.367188 25.527344 L 550.367188 28.214844 L 549.226562 28.214844 L 549.226562 20.042969 C 549.226562 19.335938 549.214844 18.867188 549.195312 18.636719 L 550.289062 18.636719 C 550.296875 18.660156 550.304688 18.722656 550.304688 18.824219 C 550.3125 18.929688 550.324219 19.089844 550.335938 19.308594 C 550.34375 19.519531 550.351562 19.664062 550.351562 19.746094 L 550.382812 19.746094 C 550.589844 19.320312 550.859375 19.011719 551.195312 18.824219 C 551.527344 18.628906 551.964844 18.527344 552.507812 18.527344 C 553.351562 18.527344 553.980469 18.816406 554.398438 19.386719 C 554.824219 19.949219 555.039062 20.835938 555.039062 22.042969 Z M 553.835938 22.074219 C 553.835938 21.117188 553.703125 20.433594 553.445312 20.027344 C 553.183594 19.613281 552.773438 19.402344 552.210938 19.402344 C 551.761719 19.402344 551.40625 19.503906 551.148438 19.699219 C 550.898438 19.886719 550.703125 20.183594 550.570312 20.589844 C 550.433594 20.988281 550.367188 21.507812 550.367188 22.152344 C 550.367188 23.058594 550.507812 23.726562 550.789062 24.152344 C 551.078125 24.582031 551.554688 24.792969 552.210938 24.792969 C 552.773438 24.792969 553.183594 24.585938 553.445312 24.167969 C 553.703125 23.753906 553.835938 23.054688 553.835938 22.074219 Z M 557.332031 22.324219 C 557.332031 23.105469 557.492188 23.710938 557.816406 24.136719 C 558.148438 24.566406 558.628906 24.777344 559.253906 24.777344 C 559.742188 24.777344 560.136719 24.679688 560.441406 24.480469 C 560.742188 24.285156 560.945312 24.035156 561.050781 23.730469 L 562.050781 24.011719 C 561.644531 25.097656 560.710938 25.636719 559.253906 25.636719 C 558.230469 25.636719 557.457031 25.335938 556.925781 24.730469 C 556.394531 24.128906 556.128906 23.226562 556.128906 22.027344 C 556.128906 20.894531 556.394531 20.023438 556.925781 19.417969 C 557.457031 18.816406 558.214844 18.511719 559.207031 18.511719 C 561.226562 18.511719 562.238281 19.730469 562.238281 22.167969 L 562.238281 22.324219 Z M 561.050781 21.449219 C 560.988281 20.722656 560.804688 20.191406 560.503906 19.855469 C 560.199219 19.523438 559.761719 19.355469 559.191406 19.355469 C 558.636719 19.355469 558.195312 19.542969 557.863281 19.917969 C 557.539062 20.285156 557.367188 20.792969 557.347656 21.449219 Z M 567.375 24.621094 L 566.296875 24.621094 L 566.296875 24.433594 L 568.453125 22.105469 L 566.3125 19.746094 L 566.3125 19.542969 L 567.375 19.542969 L 569.515625 21.902344 L 569.515625 22.292969 Z M 564.421875 24.621094 L 563.34375 24.621094 L 563.34375 24.433594 L 565.484375 22.105469 L 563.359375 19.746094 L 563.359375 19.542969 L 564.421875 19.542969 L 566.546875 21.902344 L 566.546875 22.292969 Z M 479 13.742188 "/>
<path style=" stroke:none;fill-rule:nonzero;fill:rgb(0%,0%,0%);fill-opacity:1;" d="M 507.796875 37.964844 C 507.796875 38.777344 507.488281 39.410156 506.875 39.855469 C 506.269531 40.292969 505.425781 40.511719 504.34375 40.511719 L 499.875 40.511719 L 499.875 31.574219 L 503.96875 31.574219 C 505.0625 31.574219 505.882812 31.761719 506.4375 32.136719 C 507 32.511719 507.28125 33.070312 507.28125 33.808594 C 507.28125 34.320312 507.140625 34.753906 506.859375 35.105469 C 506.578125 35.449219 506.148438 35.683594 505.578125 35.808594 C 506.296875 35.894531 506.84375 36.121094 507.21875 36.496094 C 507.601562 36.863281 507.796875 37.351562 507.796875 37.964844 Z M 505.40625 34.074219 C 505.40625 33.667969 505.273438 33.382812 505.015625 33.214844 C 504.753906 33.050781 504.375 32.964844 503.875 32.964844 L 501.75 32.964844 L 501.75 35.167969 L 503.890625 35.167969 C 504.421875 35.167969 504.804688 35.082031 505.046875 34.902344 C 505.285156 34.714844 505.40625 34.441406 505.40625 34.074219 Z M 505.921875 37.808594 C 505.921875 36.976562 505.316406 36.558594 504.109375 36.558594 L 501.75 36.558594 L 501.75 39.121094 L 504.1875 39.121094 C 504.789062 39.121094 505.226562 39.011719 505.5 38.792969 C 505.78125 38.574219 505.921875 38.246094 505.921875 37.808594 Z M 515.828125 37.074219 C 515.828125 38.191406 515.515625 39.066406 514.890625 39.699219 C 514.273438 40.324219 513.421875 40.636719 512.328125 40.636719 C 511.265625 40.636719 510.425781 40.320312 509.8125 39.683594 C 509.207031 39.050781 508.90625 38.179688 508.90625 37.074219 C 508.90625 35.972656 509.207031 35.101562 509.8125 34.464844 C 510.425781 33.832031 511.28125 33.511719 512.375 33.511719 C 513.488281 33.511719 514.34375 33.820312 514.9375 34.433594 C 515.53125 35.050781 515.828125 35.929688 515.828125 37.074219 Z M 513.953125 37.074219 C 513.953125 36.253906 513.816406 35.660156 513.546875 35.292969 C 513.285156 34.929688 512.898438 34.746094 512.390625 34.746094 C 511.304688 34.746094 510.765625 35.523438 510.765625 37.074219 C 510.765625 37.835938 510.894531 38.417969 511.15625 38.824219 C 511.425781 39.222656 511.8125 39.417969 512.3125 39.417969 C 513.40625 39.417969 513.953125 38.636719 513.953125 37.074219 Z M 523.765625 37.074219 C 523.765625 38.191406 523.453125 39.066406 522.828125 39.699219 C 522.210938 40.324219 521.359375 40.636719 520.265625 40.636719 C 519.203125 40.636719 518.363281 40.320312 517.75 39.683594 C 517.144531 39.050781 516.84375 38.179688 516.84375 37.074219 C 516.84375 35.972656 517.144531 35.101562 517.75 34.464844 C 518.363281 33.832031 519.21875 33.511719 520.3125 33.511719 C 521.425781 33.511719 522.28125 33.820312 522.875 34.433594 C 523.46875 35.050781 523.765625 35.929688 523.765625 37.074219 Z M 521.890625 37.074219 C 521.890625 36.253906 521.753906 35.660156 521.484375 35.292969 C 521.222656 34.929688 520.835938 34.746094 520.328125 34.746094 C 519.242188 34.746094 518.703125 35.523438 518.703125 37.074219 C 518.703125 37.835938 518.832031 38.417969 519.09375 38.824219 C 519.363281 39.222656 519.75 39.417969 520.25 39.417969 C 521.34375 39.417969 521.890625 38.636719 521.890625 37.074219 Z M 525.179688 40.511719 L 525.179688 31.089844 L 526.960938 31.089844 L 526.960938 40.511719 Z M 531.601562 40.636719 C 530.570312 40.636719 529.777344 40.335938 529.226562 39.730469 C 528.671875 39.117188 528.398438 38.222656 528.398438 37.042969 C 528.398438 35.910156 528.679688 35.039062 529.242188 34.433594 C 529.804688 33.820312 530.601562 33.511719 531.632812 33.511719 C 532.609375 33.511719 533.359375 33.839844 533.882812 34.496094 C 534.402344 35.152344 534.664062 36.113281 534.664062 37.371094 L 534.664062 37.417969 L 530.257812 37.417969 C 530.257812 38.085938 530.382812 38.589844 530.632812 38.933594 C 530.882812 39.277344 531.234375 39.449219 531.695312 39.449219 C 532.320312 39.449219 532.714844 39.175781 532.882812 38.621094 L 534.570312 38.777344 C 534.078125 40.019531 533.089844 40.636719 531.601562 40.636719 Z M 531.601562 34.636719 C 531.183594 34.636719 530.859375 34.785156 530.632812 35.074219 C 530.402344 35.367188 530.28125 35.777344 530.273438 36.308594 L 532.945312 36.308594 C 532.914062 35.746094 532.777344 35.332031 532.539062 35.058594 C 532.308594 34.777344 531.996094 34.636719 531.601562 34.636719 Z M 537.613281 40.636719 C 536.945312 40.636719 536.425781 40.460938 536.050781 40.105469 C 535.675781 39.742188 535.488281 39.230469 535.488281 38.574219 C 535.488281 37.855469 535.714844 37.316406 536.175781 36.949219 C 536.644531 36.574219 537.320312 36.382812 538.207031 36.371094 L 539.691406 36.339844 L 539.691406 35.996094 C 539.691406 35.550781 539.605469 35.214844 539.441406 34.996094 C 539.285156 34.777344 539.027344 34.667969 538.675781 34.667969 C 538.351562 34.667969 538.113281 34.746094 537.957031 34.902344 C 537.800781 35.050781 537.699219 35.292969 537.660156 35.636719 L 535.800781 35.558594 C 535.914062 34.894531 536.222656 34.386719 536.722656 34.042969 C 537.222656 33.691406 537.898438 33.511719 538.753906 33.511719 C 539.617188 33.511719 540.285156 33.726562 540.753906 34.152344 C 541.230469 34.582031 541.472656 35.191406 541.472656 35.980469 L 541.472656 38.480469 C 541.472656 38.867188 541.511719 39.132812 541.597656 39.277344 C 541.679688 39.425781 541.824219 39.496094 542.035156 39.496094 C 542.167969 39.496094 542.300781 39.488281 542.425781 39.464844 L 542.425781 40.417969 C 542.320312 40.449219 542.226562 40.476562 542.144531 40.496094 C 542.058594 40.515625 541.972656 40.53125 541.878906 40.542969 C 541.792969 40.550781 541.707031 40.5625 541.613281 40.574219 C 541.519531 40.582031 541.410156 40.589844 541.285156 40.589844 C 540.835938 40.589844 540.503906 40.480469 540.285156 40.261719 C 540.074219 40.042969 539.949219 39.722656 539.910156 39.292969 L 539.863281 39.292969 C 539.363281 40.191406 538.613281 40.636719 537.613281 40.636719 Z M 539.691406 37.324219 L 538.769531 37.339844 C 538.351562 37.363281 538.054688 37.410156 537.878906 37.480469 C 537.710938 37.554688 537.582031 37.667969 537.488281 37.824219 C 537.394531 37.972656 537.347656 38.175781 537.347656 38.433594 C 537.347656 38.757812 537.417969 38.996094 537.566406 39.152344 C 537.722656 39.308594 537.925781 39.386719 538.175781 39.386719 C 538.457031 39.386719 538.710938 39.316406 538.941406 39.167969 C 539.167969 39.011719 539.351562 38.804688 539.488281 38.542969 C 539.621094 38.273438 539.691406 37.988281 539.691406 37.683594 Z M 547.703125 40.511719 L 547.703125 36.652344 C 547.703125 35.457031 547.289062 34.855469 546.46875 34.855469 C 546.039062 34.855469 545.691406 35.042969 545.421875 35.417969 C 545.160156 35.785156 545.03125 36.253906 545.03125 36.824219 L 545.03125 40.511719 L 543.25 40.511719 L 543.25 35.183594 C 543.25 34.808594 543.242188 34.507812 543.234375 34.277344 C 543.222656 34.039062 543.210938 33.824219 543.203125 33.636719 L 544.90625 33.636719 C 544.914062 33.722656 544.929688 33.941406 544.953125 34.292969 C 544.972656 34.636719 544.984375 34.878906 544.984375 35.011719 L 545.015625 35.011719 C 545.253906 34.480469 545.554688 34.101562 545.921875 33.871094 C 546.285156 33.632812 546.71875 33.511719 547.21875 33.511719 C 547.945312 33.511719 548.503906 33.738281 548.890625 34.183594 C 549.285156 34.632812 549.484375 35.289062 549.484375 36.152344 L 549.484375 40.511719 Z M 499 28.742188 "/>
<path style=" stroke:none;fill-rule:nonzero;fill:rgb(75.294118%,75.294118%,75.294118%);fill-opacity:0.2;" d="M 17 57 L 119 57 L 119 94 L 17 94 Z M 17 57 "/>
<path style=" stroke:none;fill-rule:nonzero;fill:rgb(100%,100%,100%);fill-opacity:1;" d="M 10 50 L 112 50 L 112 87 L 10 87 Z M 10 50 "/>
<path style="fill:none;stroke-width:1;stroke-linecap:butt;stroke-linejoin:miter;stroke:rgb(0%,0%,0%);stroke-opacity:1;stroke-miterlimit:10;" d="M 112 176 L 214 176 L 214 213 L 112 213 Z M 112 176 Z M 112 176 " transform="matrix(1,0,0,1,-102,-126)"/>
<path style=" stroke:none;fill-rule:nonzero;fill:rgb(0%,0%,0%);fill-opacity:1;" d="M 20.625 64.621094 L 18.484375 62.292969 L 18.484375 61.902344 L 20.625 59.542969 L 21.6875 59.542969 L 21.6875 59.746094 L 19.546875 62.105469 L 21.703125 64.433594 L 21.703125 64.621094 Z M 17.65625 64.621094 L 15.53125 62.292969 L 15.53125 61.902344 L 17.65625 59.542969 L 18.71875 59.542969 L 18.71875 59.746094 L 16.59375 62.105469 L 18.734375 64.433594 L 18.734375 64.621094 Z M 28.917969 62.042969 C 28.917969 64.441406 28.074219 65.636719 26.386719 65.636719 C 25.332031 65.636719 24.625 65.242188 24.261719 64.449219 L 24.230469 64.449219 C 24.238281 64.480469 24.246094 64.839844 24.246094 65.527344 L 24.246094 68.214844 L 23.105469 68.214844 L 23.105469 60.042969 C 23.105469 59.335938 23.09375 58.867188 23.074219 58.636719 L 24.167969 58.636719 C 24.175781 58.660156 24.183594 58.722656 24.183594 58.824219 C 24.191406 58.929688 24.203125 59.089844 24.214844 59.308594 C 24.222656 59.519531 24.230469 59.664062 24.230469 59.746094 L 24.261719 59.746094 C 24.46875 59.320312 24.738281 59.011719 25.074219 58.824219 C 25.40625 58.628906 25.84375 58.527344 26.386719 58.527344 C 27.230469 58.527344 27.859375 58.816406 28.277344 59.386719 C 28.703125 59.949219 28.917969 60.835938 28.917969 62.042969 Z M 27.714844 62.074219 C 27.714844 61.117188 27.582031 60.433594 27.324219 60.027344 C 27.0625 59.613281 26.652344 59.402344 26.089844 59.402344 C 25.640625 59.402344 25.285156 59.503906 25.027344 59.699219 C 24.777344 59.886719 24.582031 60.183594 24.449219 60.589844 C 24.3125 60.988281 24.246094 61.507812 24.246094 62.152344 C 24.246094 63.058594 24.386719 63.726562 24.667969 64.152344 C 24.957031 64.582031 25.433594 64.792969 26.089844 64.792969 C 26.652344 64.792969 27.0625 64.585938 27.324219 64.167969 C 27.582031 63.753906 27.714844 63.054688 27.714844 62.074219 Z M 30.367188 65.511719 L 30.367188 60.246094 C 30.367188 59.757812 30.351562 59.222656 30.320312 58.636719 L 31.398438 58.636719 C 31.4375 59.417969 31.460938 59.886719 31.460938 60.042969 L 31.476562 60.042969 C 31.664062 59.460938 31.871094 59.058594 32.101562 58.839844 C 32.339844 58.621094 32.679688 58.511719 33.117188 58.511719 C 33.261719 58.511719 33.414062 58.535156 33.570312 58.574219 L 33.570312 59.621094 C 33.421875 59.582031 33.21875 59.558594 32.960938 59.558594 C 32.492188 59.558594 32.132812 59.769531 31.882812 60.183594 C 31.632812 60.589844 31.507812 61.175781 31.507812 61.933594 L 31.507812 65.511719 Z M 34.664062 57.183594 L 34.664062 56.089844 L 35.804688 56.089844 L 35.804688 57.183594 Z M 34.664062 65.511719 L 34.664062 58.636719 L 35.804688 58.636719 L 35.804688 65.511719 Z M 41.554688 65.511719 L 41.554688 61.152344 C 41.554688 60.496094 41.460938 60.042969 41.273438 59.792969 C 41.09375 59.535156 40.773438 59.402344 40.304688 59.402344 C 39.8125 59.402344 39.421875 59.589844 39.132812 59.964844 C 38.851562 60.332031 38.710938 60.851562 38.710938 61.527344 L 38.710938 65.511719 L 37.585938 65.511719 L 37.585938 60.105469 C 37.585938 59.304688 37.570312 58.816406 37.539062 58.636719 L 38.617188 58.636719 C 38.625 58.660156 38.632812 58.714844 38.632812 58.808594 C 38.640625 58.902344 38.648438 59.011719 38.648438 59.136719 C 38.65625 59.253906 38.667969 59.480469 38.679688 59.824219 L 38.695312 59.824219 C 38.933594 59.335938 39.210938 58.996094 39.523438 58.808594 C 39.84375 58.613281 40.234375 58.511719 40.695312 58.511719 C 41.214844 58.511719 41.625 58.617188 41.929688 58.824219 C 42.230469 59.035156 42.445312 59.367188 42.570312 59.824219 L 42.585938 59.824219 C 42.824219 59.355469 43.109375 59.023438 43.445312 58.824219 C 43.777344 58.617188 44.183594 58.511719 44.664062 58.511719 C 45.359375 58.511719 45.867188 58.707031 46.179688 59.089844 C 46.492188 59.464844 46.648438 60.082031 46.648438 60.933594 L 46.648438 65.511719 L 45.523438 65.511719 L 45.523438 61.152344 C 45.523438 60.496094 45.429688 60.042969 45.242188 59.792969 C 45.0625 59.535156 44.734375 59.402344 44.257812 59.402344 C 43.765625 59.402344 43.382812 59.589844 43.101562 59.964844 C 42.820312 60.332031 42.679688 60.851562 42.679688 61.527344 L 42.679688 65.511719 Z M 48.382812 57.183594 L 48.382812 56.089844 L 49.523438 56.089844 L 49.523438 57.183594 Z M 48.382812 65.511719 L 48.382812 58.636719 L 49.523438 58.636719 L 49.523438 65.511719 Z M 53.914062 65.464844 C 53.539062 65.566406 53.152344 65.621094 52.757812 65.621094 C 51.839844 65.621094 51.382812 65.101562 51.382812 64.058594 L 51.382812 59.480469 L 50.601562 59.480469 L 50.601562 58.636719 L 51.429688 58.636719 L 51.773438 57.105469 L 52.539062 57.105469 L 52.539062 58.636719 L 53.804688 58.636719 L 53.804688 59.480469 L 52.539062 59.480469 L 52.539062 63.808594 C 52.539062 64.144531 52.589844 64.378906 52.695312 64.511719 C 52.796875 64.636719 52.984375 64.699219 53.257812 64.699219 C 53.402344 64.699219 53.621094 64.675781 53.914062 64.621094 Z M 54.882812 57.183594 L 54.882812 56.089844 L 56.023438 56.089844 L 56.023438 57.183594 Z M 54.882812 65.511719 L 54.882812 58.636719 L 56.023438 58.636719 L 56.023438 65.511719 Z M 60.789062 65.511719 L 59.445312 65.511719 L 56.945312 58.636719 L 58.164062 58.636719 L 59.679688 63.105469 C 59.730469 63.285156 59.875 63.789062 60.117188 64.621094 L 60.335938 63.871094 L 60.585938 63.121094 L 62.148438 58.636719 L 63.351562 58.636719 Z M 65.148438 62.324219 C 65.148438 63.105469 65.308594 63.710938 65.632812 64.136719 C 65.964844 64.566406 66.445312 64.777344 67.070312 64.777344 C 67.558594 64.777344 67.953125 64.679688 68.257812 64.480469 C 68.558594 64.285156 68.761719 64.035156 68.867188 63.730469 L 69.867188 64.011719 C 69.460938 65.097656 68.527344 65.636719 67.070312 65.636719 C 66.046875 65.636719 65.273438 65.335938 64.742188 64.730469 C 64.210938 64.128906 63.945312 63.226562 63.945312 62.027344 C 63.945312 60.894531 64.210938 60.023438 64.742188 59.417969 C 65.273438 58.816406 66.03125 58.511719 67.023438 58.511719 C 69.042969 58.511719 70.054688 59.730469 70.054688 62.167969 L 70.054688 62.324219 Z M 68.867188 61.449219 C 68.804688 60.722656 68.621094 60.191406 68.320312 59.855469 C 68.015625 59.523438 67.578125 59.355469 67.007812 59.355469 C 66.453125 59.355469 66.011719 59.542969 65.679688 59.917969 C 65.355469 60.285156 65.183594 60.792969 65.164062 61.449219 Z M 75.207031 57.558594 L 75.207031 65.511719 L 73.988281 65.511719 L 73.988281 57.558594 L 70.925781 57.558594 L 70.925781 56.574219 L 78.269531 56.574219 L 78.269531 57.558594 Z M 79.070312 68.214844 C 78.757812 68.214844 78.492188 68.1875 78.273438 68.136719 L 78.273438 67.277344 C 78.4375 67.308594 78.617188 67.324219 78.804688 67.324219 C 79.523438 67.324219 80.085938 66.796875 80.492188 65.746094 L 80.601562 65.480469 L 77.882812 58.636719 L 79.101562 58.636719 L 80.554688 62.433594 C 80.574219 62.496094 80.59375 62.570312 80.617188 62.652344 C 80.648438 62.738281 80.742188 63.011719 80.898438 63.480469 C 81.0625 63.949219 81.152344 64.210938 81.164062 64.261719 L 81.617188 63.011719 L 83.117188 58.636719 L 84.320312 58.636719 L 81.679688 65.511719 C 81.398438 66.238281 81.132812 66.78125 80.882812 67.136719 C 80.640625 67.5 80.371094 67.769531 80.070312 67.949219 C 79.777344 68.125 79.445312 68.214844 79.070312 68.214844 Z M 91.039062 62.042969 C 91.039062 64.441406 90.195312 65.636719 88.507812 65.636719 C 87.453125 65.636719 86.746094 65.242188 86.382812 64.449219 L 86.351562 64.449219 C 86.359375 64.480469 86.367188 64.839844 86.367188 65.527344 L 86.367188 68.214844 L 85.226562 68.214844 L 85.226562 60.042969 C 85.226562 59.335938 85.214844 58.867188 85.195312 58.636719 L 86.289062 58.636719 C 86.296875 58.660156 86.304688 58.722656 86.304688 58.824219 C 86.3125 58.929688 86.324219 59.089844 86.335938 59.308594 C 86.34375 59.519531 86.351562 59.664062 86.351562 59.746094 L 86.382812 59.746094 C 86.589844 59.320312 86.859375 59.011719 87.195312 58.824219 C 87.527344 58.628906 87.964844 58.527344 88.507812 58.527344 C 89.351562 58.527344 89.980469 58.816406 90.398438 59.386719 C 90.824219 59.949219 91.039062 60.835938 91.039062 62.042969 Z M 89.835938 62.074219 C 89.835938 61.117188 89.703125 60.433594 89.445312 60.027344 C 89.183594 59.613281 88.773438 59.402344 88.210938 59.402344 C 87.761719 59.402344 87.40625 59.503906 87.148438 59.699219 C 86.898438 59.886719 86.703125 60.183594 86.570312 60.589844 C 86.433594 60.988281 86.367188 61.507812 86.367188 62.152344 C 86.367188 63.058594 86.507812 63.726562 86.789062 64.152344 C 87.078125 64.582031 87.554688 64.792969 88.210938 64.792969 C 88.773438 64.792969 89.183594 64.585938 89.445312 64.167969 C 89.703125 63.753906 89.835938 63.054688 89.835938 62.074219 Z M 93.332031 62.324219 C 93.332031 63.105469 93.492188 63.710938 93.816406 64.136719 C 94.148438 64.566406 94.628906 64.777344 95.253906 64.777344 C 95.742188 64.777344 96.136719 64.679688 96.441406 64.480469 C 96.742188 64.285156 96.945312 64.035156 97.050781 63.730469 L 98.050781 64.011719 C 97.644531 65.097656 96.710938 65.636719 95.253906 65.636719 C 94.230469 65.636719 93.457031 65.335938 92.925781 64.730469 C 92.394531 64.128906 92.128906 63.226562 92.128906 62.027344 C 92.128906 60.894531 92.394531 60.023438 92.925781 59.417969 C 93.457031 58.816406 94.214844 58.511719 95.207031 58.511719 C 97.226562 58.511719 98.238281 59.730469 98.238281 62.167969 L 98.238281 62.324219 Z M 97.050781 61.449219 C 96.988281 60.722656 96.804688 60.191406 96.503906 59.855469 C 96.199219 59.523438 95.761719 59.355469 95.191406 59.355469 C 94.636719 59.355469 94.195312 59.542969 93.863281 59.917969 C 93.539062 60.285156 93.367188 60.792969 93.347656 61.449219 Z M 103.375 64.621094 L 102.296875 64.621094 L 102.296875 64.433594 L 104.453125 62.105469 L 102.3125 59.746094 L 102.3125 59.542969 L 103.375 59.542969 L 105.515625 61.902344 L 105.515625 62.292969 Z M 100.421875 64.621094 L 99.34375 64.621094 L 99.34375 64.433594 L 101.484375 62.105469 L 99.359375 59.746094 L 99.359375 59.542969 L 100.421875 59.542969 L 102.546875 61.902344 L 102.546875 62.292969 Z M 15 53.742188 "/>
<path style=" stroke:none;fill-rule:nonzero;fill:rgb(0%,0%,0%);fill-opacity:1;" d="M 54.875 80.511719 L 54.875 71.574219 L 56.75 71.574219 L 56.75 80.511719 Z M 66.457031 75.980469 C 66.457031 76.898438 66.273438 77.699219 65.910156 78.386719 C 65.542969 79.074219 65.027344 79.601562 64.363281 79.964844 C 63.707031 80.332031 62.949219 80.511719 62.097656 80.511719 L 58.488281 80.511719 L 58.488281 71.574219 L 61.722656 71.574219 C 63.222656 71.574219 64.382812 71.957031 65.207031 72.714844 C 66.039062 73.464844 66.457031 74.554688 66.457031 75.980469 Z M 64.566406 75.980469 C 64.566406 75.011719 64.316406 74.277344 63.816406 73.777344 C 63.316406 73.269531 62.601562 73.011719 61.675781 73.011719 L 60.363281 73.011719 L 60.363281 79.058594 L 61.941406 79.058594 C 62.742188 79.058594 63.378906 78.785156 63.847656 78.230469 C 64.324219 77.679688 64.566406 76.929688 64.566406 75.980469 Z M 54 68.742188 "/>
</g>
</svg>
