<?xml version="1.0" encoding="UTF-8"?>
<svg xmlns="http://www.w3.org/2000/svg" xmlns:xlink="http://www.w3.org/1999/xlink" width="454pt" height="100pt" viewBox="0 0 454 100" version="1.1">
<g id="surface2">
<path style=" stroke:none;fill-rule:nonzero;fill:rgb(75.294118%,75.294118%,75.294118%);fill-opacity:0.2;" d="M 17 17 L 141 17 L 141 97 L 17 97 Z M 17 17 "/>
<path style=" stroke:none;fill-rule:nonzero;fill:rgb(100%,100%,100%);fill-opacity:1;" d="M 10 10 L 134 10 L 134 90 L 10 90 Z M 10 10 "/>
<path style="fill:none;stroke-width:1;stroke-linecap:butt;stroke-linejoin:miter;stroke:rgb(0%,0%,0%);stroke-opacity:1;stroke-miterlimit:10;" d="M 40 56 L 164 56 L 164 136 L 40 136 Z M 40 56 Z M 40 56 " transform="matrix(1,0,0,1,-30,-46)"/>
<path style="fill:none;stroke-width:1;stroke-linecap:butt;stroke-linejoin:miter;stroke:rgb(0%,0%,0%);stroke-opacity:1;stroke-miterlimit:10;" d="M 40 94 L 164 94 " transform="matrix(1,0,0,1,-30,-46)"/>
<path style=" stroke:none;fill-rule:nonzero;fill:rgb(0%,0%,0%);fill-opacity:1;" d="M 34.625 24.621094 L 32.484375 22.292969 L 32.484375 21.902344 L 34.625 19.542969 L 35.6875 19.542969 L 35.6875 19.746094 L 33.546875 22.105469 L 35.703125 24.433594 L 35.703125 24.621094 Z M 31.65625 24.621094 L 29.53125 22.292969 L 29.53125 21.902344 L 31.65625 19.542969 L 32.71875 19.542969 L 32.71875 19.746094 L 30.59375 22.105469 L 32.734375 24.433594 L 32.734375 24.621094 Z M 37.980469 22.324219 C 37.980469 23.105469 38.140625 23.710938 38.464844 24.136719 C 38.796875 24.566406 39.277344 24.777344 39.902344 24.777344 C 40.390625 24.777344 40.785156 24.679688 41.089844 24.480469 C 41.390625 24.285156 41.59375 24.035156 41.699219 23.730469 L 42.699219 24.011719 C 42.292969 25.097656 41.359375 25.636719 39.902344 25.636719 C 38.878906 25.636719 38.105469 25.335938 37.574219 24.730469 C 37.042969 24.128906 36.777344 23.226562 36.777344 22.027344 C 36.777344 20.894531 37.042969 20.023438 37.574219 19.417969 C 38.105469 18.816406 38.863281 18.511719 39.855469 18.511719 C 41.875 18.511719 42.886719 19.730469 42.886719 22.167969 L 42.886719 22.324219 Z M 41.699219 21.449219 C 41.636719 20.722656 41.453125 20.191406 41.152344 19.855469 C 40.847656 19.523438 40.410156 19.355469 39.839844 19.355469 C 39.285156 19.355469 38.84375 19.542969 38.511719 19.917969 C 38.1875 20.285156 38.015625 20.792969 37.996094 21.449219 Z M 48.695312 25.511719 L 48.695312 21.152344 C 48.695312 20.707031 48.648438 20.355469 48.554688 20.105469 C 48.46875 19.855469 48.328125 19.679688 48.132812 19.574219 C 47.945312 19.460938 47.664062 19.402344 47.289062 19.402344 C 46.734375 19.402344 46.296875 19.589844 45.976562 19.964844 C 45.664062 20.339844 45.507812 20.863281 45.507812 21.527344 L 45.507812 25.511719 L 44.367188 25.511719 L 44.367188 20.105469 C 44.367188 19.304688 44.351562 18.816406 44.320312 18.636719 L 45.398438 18.636719 C 45.40625 18.660156 45.414062 18.714844 45.414062 18.808594 C 45.421875 18.902344 45.429688 19.011719 45.429688 19.136719 C 45.4375 19.253906 45.449219 19.480469 45.460938 19.824219 L 45.476562 19.824219 C 45.734375 19.347656 46.039062 19.007812 46.382812 18.808594 C 46.726562 18.613281 47.152344 18.511719 47.664062 18.511719 C 48.421875 18.511719 48.976562 18.699219 49.320312 19.074219 C 49.671875 19.449219 49.851562 20.070312 49.851562 20.933594 L 49.851562 25.511719 Z M 52.691406 18.636719 L 52.691406 22.996094 C 52.691406 23.457031 52.730469 23.808594 52.816406 24.058594 C 52.910156 24.308594 53.050781 24.492188 53.238281 24.605469 C 53.433594 24.710938 53.722656 24.761719 54.097656 24.761719 C 54.648438 24.761719 55.082031 24.574219 55.394531 24.199219 C 55.714844 23.816406 55.878906 23.289062 55.878906 22.621094 L 55.878906 18.636719 L 57.019531 18.636719 L 57.019531 24.042969 C 57.019531 24.847656 57.027344 25.335938 57.050781 25.511719 L 55.972656 25.511719 C 55.972656 25.492188 55.964844 25.433594 55.957031 25.339844 C 55.957031 25.246094 55.949219 25.144531 55.941406 25.027344 C 55.941406 24.902344 55.933594 24.675781 55.925781 24.339844 L 55.910156 24.339844 C 55.648438 24.808594 55.347656 25.144531 55.003906 25.339844 C 54.660156 25.535156 54.226562 25.636719 53.707031 25.636719 C 52.957031 25.636719 52.402344 25.449219 52.050781 25.074219 C 51.707031 24.699219 51.535156 24.082031 51.535156 23.214844 L 51.535156 18.636719 Z M 62.796875 25.511719 L 62.796875 21.152344 C 62.796875 20.496094 62.703125 20.042969 62.515625 19.792969 C 62.335938 19.535156 62.015625 19.402344 61.546875 19.402344 C 61.054688 19.402344 60.664062 19.589844 60.375 19.964844 C 60.09375 20.332031 59.953125 20.851562 59.953125 21.527344 L 59.953125 25.511719 L 58.828125 25.511719 L 58.828125 20.105469 C 58.828125 19.304688 58.8125 18.816406 58.78125 18.636719 L 59.859375 18.636719 C 59.867188 18.660156 59.875 18.714844 59.875 18.808594 C 59.882812 18.902344 59.890625 19.011719 59.890625 19.136719 C 59.898438 19.253906 59.910156 19.480469 59.921875 19.824219 L 59.9375 19.824219 C 60.175781 19.335938 60.453125 18.996094 60.765625 18.808594 C 61.085938 18.613281 61.476562 18.511719 61.9375 18.511719 C 62.457031 18.511719 62.867188 18.617188 63.171875 18.824219 C 63.472656 19.035156 63.6875 19.367188 63.8125 19.824219 L 63.828125 19.824219 C 64.066406 19.355469 64.351562 19.023438 64.6875 18.824219 C 65.019531 18.617188 65.425781 18.511719 65.90625 18.511719 C 66.601562 18.511719 67.109375 18.707031 67.421875 19.089844 C 67.734375 19.464844 67.890625 20.082031 67.890625 20.933594 L 67.890625 25.511719 L 66.765625 25.511719 L 66.765625 21.152344 C 66.765625 20.496094 66.671875 20.042969 66.484375 19.792969 C 66.304688 19.535156 65.976562 19.402344 65.5 19.402344 C 65.007812 19.402344 64.625 19.589844 64.34375 19.964844 C 64.0625 20.332031 63.921875 20.851562 63.921875 21.527344 L 63.921875 25.511719 Z M 70.5 22.324219 C 70.5 23.105469 70.660156 23.710938 70.984375 24.136719 C 71.316406 24.566406 71.796875 24.777344 72.421875 24.777344 C 72.910156 24.777344 73.304688 24.679688 73.609375 24.480469 C 73.910156 24.285156 74.113281 24.035156 74.21875 23.730469 L 75.21875 24.011719 C 74.8125 25.097656 73.878906 25.636719 72.421875 25.636719 C 71.398438 25.636719 70.625 25.335938 70.09375 24.730469 C 69.5625 24.128906 69.296875 23.226562 69.296875 22.027344 C 69.296875 20.894531 69.5625 20.023438 70.09375 19.417969 C 70.625 18.816406 71.382812 18.511719 72.375 18.511719 C 74.394531 18.511719 75.40625 19.730469 75.40625 22.167969 L 75.40625 22.324219 Z M 74.21875 21.449219 C 74.15625 20.722656 73.972656 20.191406 73.671875 19.855469 C 73.367188 19.523438 72.929688 19.355469 72.359375 19.355469 C 71.804688 19.355469 71.363281 19.542969 71.03125 19.917969 C 70.707031 20.285156 70.535156 20.792969 70.515625 21.449219 Z M 76.886719 25.511719 L 76.886719 20.246094 C 76.886719 19.757812 76.871094 19.222656 76.839844 18.636719 L 77.917969 18.636719 C 77.957031 19.417969 77.980469 19.886719 77.980469 20.042969 L 77.996094 20.042969 C 78.183594 19.460938 78.390625 19.058594 78.621094 18.839844 C 78.859375 18.621094 79.199219 18.511719 79.636719 18.511719 C 79.78125 18.511719 79.933594 18.535156 80.089844 18.574219 L 80.089844 19.621094 C 79.941406 19.582031 79.738281 19.558594 79.480469 19.558594 C 79.011719 19.558594 78.652344 19.769531 78.402344 20.183594 C 78.152344 20.589844 78.027344 21.175781 78.027344 21.933594 L 78.027344 25.511719 Z M 82.9375 25.636719 C 82.25 25.636719 81.726562 25.457031 81.375 25.089844 C 81.03125 24.726562 80.859375 24.226562 80.859375 23.589844 C 80.859375 22.882812 81.09375 22.339844 81.5625 21.964844 C 82.03125 21.582031 82.785156 21.371094 83.828125 21.339844 L 85.375 21.324219 L 85.375 20.949219 C 85.375 20.386719 85.253906 19.988281 85.015625 19.746094 C 84.773438 19.507812 84.40625 19.386719 83.90625 19.386719 C 83.382812 19.386719 83.007812 19.476562 82.78125 19.652344 C 82.550781 19.820312 82.410156 20.097656 82.359375 20.480469 L 81.171875 20.371094 C 81.367188 19.132812 82.285156 18.511719 83.921875 18.511719 C 84.785156 18.511719 85.4375 18.710938 85.875 19.105469 C 86.3125 19.503906 86.53125 20.074219 86.53125 20.824219 L 86.53125 23.777344 C 86.53125 24.121094 86.570312 24.382812 86.65625 24.558594 C 86.75 24.726562 86.921875 24.808594 87.171875 24.808594 C 87.273438 24.808594 87.398438 24.792969 87.546875 24.761719 L 87.546875 25.480469 C 87.253906 25.542969 86.957031 25.574219 86.65625 25.574219 C 86.238281 25.574219 85.929688 25.464844 85.734375 25.246094 C 85.546875 25.019531 85.4375 24.667969 85.40625 24.199219 L 85.375 24.199219 C 85.082031 24.722656 84.738281 25.089844 84.34375 25.308594 C 83.957031 25.527344 83.488281 25.636719 82.9375 25.636719 Z M 83.203125 24.777344 C 83.617188 24.777344 83.988281 24.683594 84.3125 24.496094 C 84.644531 24.308594 84.90625 24.050781 85.09375 23.714844 C 85.28125 23.382812 85.375 23.039062 85.375 22.683594 L 85.375 22.121094 L 84.125 22.152344 C 83.582031 22.152344 83.171875 22.207031 82.890625 22.308594 C 82.617188 22.414062 82.410156 22.574219 82.265625 22.792969 C 82.117188 23.003906 82.046875 23.277344 82.046875 23.621094 C 82.046875 23.988281 82.144531 24.273438 82.34375 24.480469 C 82.539062 24.679688 82.828125 24.777344 83.203125 24.777344 Z M 91.054688 25.464844 C 90.679688 25.566406 90.292969 25.621094 89.898438 25.621094 C 88.980469 25.621094 88.523438 25.101562 88.523438 24.058594 L 88.523438 19.480469 L 87.742188 19.480469 L 87.742188 18.636719 L 88.570312 18.636719 L 88.914062 17.105469 L 89.679688 17.105469 L 89.679688 18.636719 L 90.945312 18.636719 L 90.945312 19.480469 L 89.679688 19.480469 L 89.679688 23.808594 C 89.679688 24.144531 89.730469 24.378906 89.835938 24.511719 C 89.9375 24.636719 90.125 24.699219 90.398438 24.699219 C 90.542969 24.699219 90.761719 24.675781 91.054688 24.621094 Z M 92.027344 17.183594 L 92.027344 16.089844 L 93.167969 16.089844 L 93.167969 17.183594 Z M 92.027344 25.511719 L 92.027344 18.636719 L 93.167969 18.636719 L 93.167969 25.511719 Z M 100.730469 22.074219 C 100.730469 23.273438 100.464844 24.167969 99.933594 24.761719 C 99.402344 25.347656 98.636719 25.636719 97.636719 25.636719 C 96.625 25.636719 95.863281 25.335938 95.355469 24.730469 C 94.84375 24.117188 94.589844 23.230469 94.589844 22.074219 C 94.589844 19.699219 95.613281 18.511719 97.667969 18.511719 C 98.71875 18.511719 99.488281 18.804688 99.980469 19.386719 C 100.480469 19.960938 100.730469 20.855469 100.730469 22.074219 Z M 99.527344 22.074219 C 99.527344 21.128906 99.386719 20.441406 99.105469 20.011719 C 98.824219 19.574219 98.347656 19.355469 97.683594 19.355469 C 97.015625 19.355469 96.53125 19.574219 96.230469 20.011719 C 95.9375 20.449219 95.792969 21.136719 95.792969 22.074219 C 95.792969 22.980469 95.9375 23.664062 96.230469 24.121094 C 96.519531 24.570312 96.984375 24.792969 97.621094 24.792969 C 98.308594 24.792969 98.796875 24.574219 99.089844 24.136719 C 99.378906 23.699219 99.527344 23.011719 99.527344 22.074219 Z M 106.507812 25.511719 L 106.507812 21.152344 C 106.507812 20.707031 106.460938 20.355469 106.367188 20.105469 C 106.28125 19.855469 106.140625 19.679688 105.945312 19.574219 C 105.757812 19.460938 105.476562 19.402344 105.101562 19.402344 C 104.546875 19.402344 104.109375 19.589844 103.789062 19.964844 C 103.476562 20.339844 103.320312 20.863281 103.320312 21.527344 L 103.320312 25.511719 L 102.179688 25.511719 L 102.179688 20.105469 C 102.179688 19.304688 102.164062 18.816406 102.132812 18.636719 L 103.210938 18.636719 C 103.21875 18.660156 103.226562 18.714844 103.226562 18.808594 C 103.234375 18.902344 103.242188 19.011719 103.242188 19.136719 C 103.25 19.253906 103.261719 19.480469 103.273438 19.824219 L 103.289062 19.824219 C 103.546875 19.347656 103.851562 19.007812 104.195312 18.808594 C 104.539062 18.613281 104.964844 18.511719 105.476562 18.511719 C 106.234375 18.511719 106.789062 18.699219 107.132812 19.074219 C 107.484375 19.449219 107.664062 20.070312 107.664062 20.933594 L 107.664062 25.511719 Z M 113.066406 24.621094 L 111.988281 24.621094 L 111.988281 24.433594 L 114.144531 22.105469 L 112.003906 19.746094 L 112.003906 19.542969 L 113.066406 19.542969 L 115.207031 21.902344 L 115.207031 22.292969 Z M 110.113281 24.621094 L 109.035156 24.621094 L 109.035156 24.433594 L 111.175781 22.105469 L 109.050781 19.746094 L 109.050781 19.542969 L 110.113281 19.542969 L 112.238281 21.902344 L 112.238281 22.292969 Z M 29 13.742188 "/>
<path style=" stroke:none;fill-rule:nonzero;fill:rgb(0%,0%,0%);fill-opacity:1;" d="M 50.015625 40.511719 L 47.9375 37.121094 L 45.75 37.121094 L 45.75 40.511719 L 43.875 40.511719 L 43.875 31.574219 L 48.34375 31.574219 C 49.40625 31.574219 50.222656 31.804688 50.796875 32.261719 C 51.378906 32.722656 51.671875 33.378906 51.671875 34.230469 C 51.671875 34.855469 51.492188 35.398438 51.140625 35.855469 C 50.785156 36.316406 50.304688 36.613281 49.703125 36.746094 L 52.125 40.511719 Z M 49.796875 34.308594 C 49.796875 33.457031 49.242188 33.027344 48.140625 33.027344 L 45.75 33.027344 L 45.75 35.667969 L 48.1875 35.667969 C 48.71875 35.667969 49.117188 35.550781 49.390625 35.308594 C 49.660156 35.070312 49.796875 34.738281 49.796875 34.308594 Z M 59.828125 37.074219 C 59.828125 38.191406 59.515625 39.066406 58.890625 39.699219 C 58.273438 40.324219 57.421875 40.636719 56.328125 40.636719 C 55.265625 40.636719 54.425781 40.320312 53.8125 39.683594 C 53.207031 39.050781 52.90625 38.179688 52.90625 37.074219 C 52.90625 35.972656 53.207031 35.101562 53.8125 34.464844 C 54.425781 33.832031 55.28125 33.511719 56.375 33.511719 C 57.488281 33.511719 58.34375 33.820312 58.9375 34.433594 C 59.53125 35.050781 59.828125 35.929688 59.828125 37.074219 Z M 57.953125 37.074219 C 57.953125 36.253906 57.816406 35.660156 57.546875 35.292969 C 57.285156 34.929688 56.898438 34.746094 56.390625 34.746094 C 55.304688 34.746094 54.765625 35.523438 54.765625 37.074219 C 54.765625 37.835938 54.894531 38.417969 55.15625 38.824219 C 55.425781 39.222656 55.8125 39.417969 56.3125 39.417969 C 57.40625 39.417969 57.953125 38.636719 57.953125 37.074219 Z M 61.234375 40.511719 L 61.234375 31.089844 L 63.015625 31.089844 L 63.015625 40.511719 Z M 67.660156 40.636719 C 66.628906 40.636719 65.835938 40.335938 65.285156 39.730469 C 64.730469 39.117188 64.457031 38.222656 64.457031 37.042969 C 64.457031 35.910156 64.738281 35.039062 65.300781 34.433594 C 65.863281 33.820312 66.660156 33.511719 67.691406 33.511719 C 68.667969 33.511719 69.417969 33.839844 69.941406 34.496094 C 70.460938 35.152344 70.722656 36.113281 70.722656 37.371094 L 70.722656 37.417969 L 66.316406 37.417969 C 66.316406 38.085938 66.441406 38.589844 66.691406 38.933594 C 66.941406 39.277344 67.292969 39.449219 67.753906 39.449219 C 68.378906 39.449219 68.773438 39.175781 68.941406 38.621094 L 70.628906 38.777344 C 70.136719 40.019531 69.148438 40.636719 67.660156 40.636719 Z M 67.660156 34.636719 C 67.242188 34.636719 66.917969 34.785156 66.691406 35.074219 C 66.460938 35.367188 66.339844 35.777344 66.332031 36.308594 L 69.003906 36.308594 C 68.972656 35.746094 68.835938 35.332031 68.597656 35.058594 C 68.367188 34.777344 68.054688 34.636719 67.660156 34.636719 Z M 76.078125 33.011719 L 76.078125 40.511719 L 74.203125 40.511719 L 74.203125 33.011719 L 71.3125 33.011719 L 71.3125 31.574219 L 78.96875 31.574219 L 78.96875 33.011719 Z M 79.945312 43.214844 C 79.515625 43.214844 79.140625 43.183594 78.820312 43.121094 L 78.820312 41.855469 C 79.046875 41.886719 79.25 41.902344 79.429688 41.902344 C 79.6875 41.902344 79.902344 41.859375 80.070312 41.777344 C 80.234375 41.703125 80.386719 41.574219 80.523438 41.386719 C 80.65625 41.199219 80.804688 40.886719 80.960938 40.449219 L 78.257812 33.636719 L 80.132812 33.636719 L 81.210938 36.855469 C 81.375 37.324219 81.589844 38.035156 81.851562 38.980469 L 82.007812 38.371094 L 82.429688 36.886719 L 83.445312 33.636719 L 85.304688 33.636719 L 82.585938 40.871094 C 82.21875 41.753906 81.839844 42.363281 81.445312 42.699219 C 81.058594 43.042969 80.558594 43.214844 79.945312 43.214844 Z M 92.785156 37.042969 C 92.785156 38.191406 92.554688 39.074219 92.097656 39.699219 C 91.636719 40.324219 90.992188 40.636719 90.160156 40.636719 C 89.667969 40.636719 89.246094 40.53125 88.894531 40.324219 C 88.539062 40.117188 88.261719 39.816406 88.066406 39.417969 L 88.035156 39.417969 C 88.054688 39.542969 88.066406 39.929688 88.066406 40.574219 L 88.066406 43.214844 L 86.285156 43.214844 L 86.285156 35.230469 C 86.285156 34.574219 86.269531 34.042969 86.238281 33.636719 L 87.972656 33.636719 C 87.992188 33.722656 88.007812 33.878906 88.019531 34.105469 C 88.039062 34.324219 88.050781 34.542969 88.050781 34.761719 L 88.066406 34.761719 C 88.472656 33.917969 89.207031 33.496094 90.269531 33.496094 C 91.070312 33.496094 91.691406 33.804688 92.128906 34.417969 C 92.566406 35.035156 92.785156 35.910156 92.785156 37.042969 Z M 90.925781 37.042969 C 90.925781 35.503906 90.449219 34.730469 89.503906 34.730469 C 89.035156 34.730469 88.675781 34.941406 88.425781 35.355469 C 88.175781 35.773438 88.050781 36.351562 88.050781 37.089844 C 88.050781 37.839844 88.175781 38.417969 88.425781 38.824219 C 88.675781 39.222656 89.035156 39.417969 89.503906 39.417969 C 90.449219 39.417969 90.925781 38.628906 90.925781 37.042969 Z M 97.039062 40.636719 C 96.007812 40.636719 95.214844 40.335938 94.664062 39.730469 C 94.109375 39.117188 93.835938 38.222656 93.835938 37.042969 C 93.835938 35.910156 94.117188 35.039062 94.679688 34.433594 C 95.242188 33.820312 96.039062 33.511719 97.070312 33.511719 C 98.046875 33.511719 98.796875 33.839844 99.320312 34.496094 C 99.839844 35.152344 100.101562 36.113281 100.101562 37.371094 L 100.101562 37.417969 L 95.695312 37.417969 C 95.695312 38.085938 95.820312 38.589844 96.070312 38.933594 C 96.320312 39.277344 96.671875 39.449219 97.132812 39.449219 C 97.757812 39.449219 98.152344 39.175781 98.320312 38.621094 L 100.007812 38.777344 C 99.515625 40.019531 98.527344 40.636719 97.039062 40.636719 Z M 97.039062 34.636719 C 96.621094 34.636719 96.296875 34.785156 96.070312 35.074219 C 95.839844 35.367188 95.71875 35.777344 95.710938 36.308594 L 98.382812 36.308594 C 98.351562 35.746094 98.214844 35.332031 97.976562 35.058594 C 97.746094 34.777344 97.433594 34.636719 97.039062 34.636719 Z M 43 28.742188 "/>
<path style=" stroke:none;fill-rule:nonzero;fill:rgb(0%,0%,0%);fill-opacity:1;" d="M 19.875 63.511719 L 19.875 59.152344 C 19.875 58.496094 19.78125 58.042969 19.59375 57.792969 C 19.414062 57.535156 19.09375 57.402344 18.625 57.402344 C 18.132812 57.402344 17.742188 57.589844 17.453125 57.964844 C 17.171875 58.332031 17.03125 58.851562 17.03125 59.527344 L 17.03125 63.511719 L 15.90625 63.511719 L 15.90625 58.105469 C 15.90625 57.304688 15.890625 56.816406 15.859375 56.636719 L 16.9375 56.636719 C 16.945312 56.660156 16.953125 56.714844 16.953125 56.808594 C 16.960938 56.902344 16.96875 57.011719 16.96875 57.136719 C 16.976562 57.253906 16.988281 57.480469 17 57.824219 L 17.015625 57.824219 C 17.253906 57.335938 17.53125 56.996094 17.84375 56.808594 C 18.164062 56.613281 18.554688 56.511719 19.015625 56.511719 C 19.535156 56.511719 19.945312 56.617188 20.25 56.824219 C 20.550781 57.035156 20.765625 57.367188 20.890625 57.824219 L 20.90625 57.824219 C 21.144531 57.355469 21.429688 57.023438 21.765625 56.824219 C 22.097656 56.617188 22.503906 56.511719 22.984375 56.511719 C 23.679688 56.511719 24.1875 56.707031 24.5 57.089844 C 24.8125 57.464844 24.96875 58.082031 24.96875 58.933594 L 24.96875 63.511719 L 23.84375 63.511719 L 23.84375 59.152344 C 23.84375 58.496094 23.75 58.042969 23.5625 57.792969 C 23.382812 57.535156 23.054688 57.402344 22.578125 57.402344 C 22.085938 57.402344 21.703125 57.589844 21.421875 57.964844 C 21.140625 58.332031 21 58.851562 21 59.527344 L 21 63.511719 Z M 27.828125 56.636719 L 27.828125 60.996094 C 27.828125 61.457031 27.867188 61.808594 27.953125 62.058594 C 28.046875 62.308594 28.1875 62.492188 28.375 62.605469 C 28.570312 62.710938 28.859375 62.761719 29.234375 62.761719 C 29.785156 62.761719 30.21875 62.574219 30.53125 62.199219 C 30.851562 61.816406 31.015625 61.289062 31.015625 60.621094 L 31.015625 56.636719 L 32.15625 56.636719 L 32.15625 62.042969 C 32.15625 62.847656 32.164062 63.335938 32.1875 63.511719 L 31.109375 63.511719 C 31.109375 63.492188 31.101562 63.433594 31.09375 63.339844 C 31.09375 63.246094 31.085938 63.144531 31.078125 63.027344 C 31.078125 62.902344 31.070312 62.675781 31.0625 62.339844 L 31.046875 62.339844 C 30.785156 62.808594 30.484375 63.144531 30.140625 63.339844 C 29.796875 63.535156 29.363281 63.636719 28.84375 63.636719 C 28.09375 63.636719 27.539062 63.449219 27.1875 63.074219 C 26.84375 62.699219 26.671875 62.082031 26.671875 61.214844 L 26.671875 56.636719 Z M 33.933594 63.511719 L 33.933594 54.089844 L 35.074219 54.089844 L 35.074219 63.511719 Z M 39.464844 63.464844 C 39.089844 63.566406 38.703125 63.621094 38.308594 63.621094 C 37.390625 63.621094 36.933594 63.101562 36.933594 62.058594 L 36.933594 57.480469 L 36.152344 57.480469 L 36.152344 56.636719 L 36.980469 56.636719 L 37.324219 55.105469 L 38.089844 55.105469 L 38.089844 56.636719 L 39.355469 56.636719 L 39.355469 57.480469 L 38.089844 57.480469 L 38.089844 61.808594 C 38.089844 62.144531 38.140625 62.378906 38.246094 62.511719 C 38.347656 62.636719 38.535156 62.699219 38.808594 62.699219 C 38.953125 62.699219 39.171875 62.675781 39.464844 62.621094 Z M 40.4375 55.183594 L 40.4375 54.089844 L 41.578125 54.089844 L 41.578125 55.183594 Z M 40.4375 63.511719 L 40.4375 56.636719 L 41.578125 56.636719 L 41.578125 63.511719 Z M 49.136719 60.042969 C 49.136719 62.441406 48.292969 63.636719 46.605469 63.636719 C 45.550781 63.636719 44.84375 63.242188 44.480469 62.449219 L 44.449219 62.449219 C 44.457031 62.480469 44.464844 62.839844 44.464844 63.527344 L 44.464844 66.214844 L 43.324219 66.214844 L 43.324219 58.042969 C 43.324219 57.335938 43.3125 56.867188 43.292969 56.636719 L 44.386719 56.636719 C 44.394531 56.660156 44.402344 56.722656 44.402344 56.824219 C 44.410156 56.929688 44.421875 57.089844 44.433594 57.308594 C 44.441406 57.519531 44.449219 57.664062 44.449219 57.746094 L 44.480469 57.746094 C 44.6875 57.320312 44.957031 57.011719 45.292969 56.824219 C 45.625 56.628906 46.0625 56.527344 46.605469 56.527344 C 47.449219 56.527344 48.078125 56.816406 48.496094 57.386719 C 48.921875 57.949219 49.136719 58.835938 49.136719 60.042969 Z M 47.933594 60.074219 C 47.933594 59.117188 47.800781 58.433594 47.542969 58.027344 C 47.28125 57.613281 46.871094 57.402344 46.308594 57.402344 C 45.859375 57.402344 45.503906 57.503906 45.246094 57.699219 C 44.996094 57.886719 44.800781 58.183594 44.667969 58.589844 C 44.53125 58.988281 44.464844 59.507812 44.464844 60.152344 C 44.464844 61.058594 44.605469 61.726562 44.886719 62.152344 C 45.175781 62.582031 45.652344 62.792969 46.308594 62.792969 C 46.871094 62.792969 47.28125 62.585938 47.542969 62.167969 C 47.800781 61.753906 47.933594 61.054688 47.933594 60.074219 Z M 50.554688 63.511719 L 50.554688 54.089844 L 51.695312 54.089844 L 51.695312 63.511719 Z M 54.320312 60.324219 C 54.320312 61.105469 54.480469 61.710938 54.804688 62.136719 C 55.136719 62.566406 55.617188 62.777344 56.242188 62.777344 C 56.730469 62.777344 57.125 62.679688 57.429688 62.480469 C 57.730469 62.285156 57.933594 62.035156 58.039062 61.730469 L 59.039062 62.011719 C 58.632812 63.097656 57.699219 63.636719 56.242188 63.636719 C 55.21875 63.636719 54.445312 63.335938 53.914062 62.730469 C 53.382812 62.128906 53.117188 61.226562 53.117188 60.027344 C 53.117188 58.894531 53.382812 58.023438 53.914062 57.417969 C 54.445312 56.816406 55.203125 56.511719 56.195312 56.511719 C 58.214844 56.511719 59.226562 57.730469 59.226562 60.167969 L 59.226562 60.324219 Z M 58.039062 59.449219 C 57.976562 58.722656 57.792969 58.191406 57.492188 57.855469 C 57.1875 57.523438 56.75 57.355469 56.179688 57.355469 C 55.625 57.355469 55.183594 57.542969 54.851562 57.917969 C 54.527344 58.285156 54.355469 58.792969 54.335938 59.449219 Z M 15 51.742188 "/>
<path style=" stroke:none;fill-rule:nonzero;fill:rgb(0%,0%,0%);fill-opacity:1;" d="M 21.03125 76.621094 C 21.03125 77.269531 20.785156 77.769531 20.296875 78.121094 C 19.804688 78.464844 19.125 78.636719 18.25 78.636719 C 17.394531 78.636719 16.734375 78.496094 16.265625 78.214844 C 15.804688 77.933594 15.503906 77.496094 15.359375 76.902344 L 16.375 76.699219 C 16.46875 77.074219 16.664062 77.347656 16.96875 77.511719 C 17.28125 77.679688 17.707031 77.761719 18.25 77.761719 C 18.820312 77.761719 19.242188 77.675781 19.515625 77.496094 C 19.785156 77.320312 19.921875 77.054688 19.921875 76.699219 C 19.921875 76.429688 19.828125 76.210938 19.640625 76.042969 C 19.453125 75.878906 19.148438 75.738281 18.734375 75.621094 L 17.921875 75.402344 C 17.265625 75.238281 16.796875 75.074219 16.515625 74.917969 C 16.242188 74.753906 16.03125 74.554688 15.875 74.324219 C 15.71875 74.085938 15.640625 73.800781 15.640625 73.464844 C 15.640625 72.832031 15.859375 72.351562 16.296875 72.027344 C 16.742188 71.707031 17.394531 71.542969 18.25 71.542969 C 19.007812 71.542969 19.613281 71.679688 20.0625 71.949219 C 20.507812 72.210938 20.789062 72.632812 20.90625 73.214844 L 19.875 73.339844 C 19.8125 73.039062 19.640625 72.808594 19.359375 72.652344 C 19.085938 72.488281 18.71875 72.402344 18.25 72.402344 C 17.738281 72.402344 17.359375 72.480469 17.109375 72.636719 C 16.867188 72.792969 16.75 73.027344 16.75 73.339844 C 16.75 73.539062 16.796875 73.699219 16.890625 73.824219 C 16.992188 73.949219 17.144531 74.058594 17.34375 74.152344 C 17.539062 74.238281 17.960938 74.355469 18.609375 74.511719 C 19.210938 74.667969 19.644531 74.816406 19.90625 74.949219 C 20.175781 75.074219 20.390625 75.214844 20.546875 75.371094 C 20.703125 75.527344 20.820312 75.710938 20.90625 75.917969 C 20.988281 76.117188 21.03125 76.351562 21.03125 76.621094 Z M 22.375 70.183594 L 22.375 69.089844 L 23.515625 69.089844 L 23.515625 70.183594 Z M 22.375 78.511719 L 22.375 71.636719 L 23.515625 71.636719 L 23.515625 78.511719 Z M 29.625 78.511719 L 29.625 74.152344 C 29.625 73.707031 29.578125 73.355469 29.484375 73.105469 C 29.398438 72.855469 29.257812 72.679688 29.0625 72.574219 C 28.875 72.460938 28.59375 72.402344 28.21875 72.402344 C 27.664062 72.402344 27.226562 72.589844 26.90625 72.964844 C 26.59375 73.339844 26.4375 73.863281 26.4375 74.527344 L 26.4375 78.511719 L 25.296875 78.511719 L 25.296875 73.105469 C 25.296875 72.304688 25.28125 71.816406 25.25 71.636719 L 26.328125 71.636719 C 26.335938 71.660156 26.34375 71.714844 26.34375 71.808594 C 26.351562 71.902344 26.359375 72.011719 26.359375 72.136719 C 26.367188 72.253906 26.378906 72.480469 26.390625 72.824219 L 26.40625 72.824219 C 26.664062 72.347656 26.96875 72.007812 27.3125 71.808594 C 27.65625 71.613281 28.082031 71.511719 28.59375 71.511719 C 29.351562 71.511719 29.90625 71.699219 30.25 72.074219 C 30.601562 72.449219 30.78125 73.070312 30.78125 73.933594 L 30.78125 78.511719 Z M 35.101562 81.214844 C 34.351562 81.214844 33.75 81.0625 33.304688 80.761719 C 32.855469 80.46875 32.570312 80.050781 32.445312 79.511719 L 33.601562 79.355469 C 33.671875 79.667969 33.839844 79.90625 34.101562 80.074219 C 34.359375 80.25 34.703125 80.339844 35.132812 80.339844 C 36.265625 80.339844 36.835938 79.671875 36.835938 78.339844 L 36.835938 77.230469 L 36.820312 77.230469 C 36.601562 77.679688 36.304688 78.011719 35.929688 78.230469 C 35.554688 78.449219 35.117188 78.558594 34.617188 78.558594 C 33.773438 78.558594 33.152344 78.285156 32.757812 77.730469 C 32.359375 77.167969 32.164062 76.289062 32.164062 75.089844 C 32.164062 73.871094 32.375 72.976562 32.804688 72.402344 C 33.230469 71.832031 33.875 71.542969 34.742188 71.542969 C 35.230469 71.542969 35.652344 71.652344 36.007812 71.871094 C 36.359375 72.089844 36.636719 72.410156 36.835938 72.824219 L 36.851562 72.824219 C 36.851562 72.691406 36.855469 72.464844 36.867188 72.152344 C 36.886719 71.839844 36.90625 71.667969 36.929688 71.636719 L 38.007812 71.636719 C 37.984375 71.867188 37.976562 72.339844 37.976562 73.058594 L 37.976562 78.308594 C 37.976562 80.246094 37.015625 81.214844 35.101562 81.214844 Z M 36.835938 75.074219 C 36.835938 74.523438 36.757812 74.042969 36.601562 73.636719 C 36.453125 73.230469 36.242188 72.925781 35.960938 72.714844 C 35.679688 72.496094 35.367188 72.386719 35.023438 72.386719 C 34.4375 72.386719 34.011719 72.601562 33.742188 73.027344 C 33.480469 73.445312 33.351562 74.128906 33.351562 75.074219 C 33.351562 76.011719 33.46875 76.691406 33.710938 77.105469 C 33.960938 77.511719 34.390625 77.714844 35.007812 77.714844 C 35.359375 77.714844 35.679688 77.613281 35.960938 77.402344 C 36.242188 77.195312 36.453125 76.894531 36.601562 76.496094 C 36.757812 76.101562 36.835938 75.628906 36.835938 75.074219 Z M 39.726562 78.511719 L 39.726562 69.089844 L 40.867188 69.089844 L 40.867188 78.511719 Z M 43.488281 75.324219 C 43.488281 76.105469 43.648438 76.710938 43.972656 77.136719 C 44.304688 77.566406 44.785156 77.777344 45.410156 77.777344 C 45.898438 77.777344 46.292969 77.679688 46.597656 77.480469 C 46.898438 77.285156 47.101562 77.035156 47.207031 76.730469 L 48.207031 77.011719 C 47.800781 78.097656 46.867188 78.636719 45.410156 78.636719 C 44.386719 78.636719 43.613281 78.335938 43.082031 77.730469 C 42.550781 77.128906 42.285156 76.226562 42.285156 75.027344 C 42.285156 73.894531 42.550781 73.023438 43.082031 72.417969 C 43.613281 71.816406 44.371094 71.511719 45.363281 71.511719 C 47.382812 71.511719 48.394531 72.730469 48.394531 75.167969 L 48.394531 75.324219 Z M 47.207031 74.449219 C 47.144531 73.722656 46.960938 73.191406 46.660156 72.855469 C 46.355469 72.523438 45.917969 72.355469 45.347656 72.355469 C 44.792969 72.355469 44.351562 72.542969 44.019531 72.917969 C 43.695312 73.285156 43.523438 73.792969 43.503906 74.449219 Z M 15 66.742188 "/>
<path style=" stroke:none;fill-rule:nonzero;fill:rgb(75.294118%,75.294118%,75.294118%);fill-opacity:0.2;" d="M 177 17 L 279 17 L 279 54 L 177 54 Z M 177 17 "/>
<path style=" stroke:none;fill-rule:nonzero;fill:rgb(100%,100%,100%);fill-opacity:1;" d="M 170 10 L 272 10 L 272 47 L 170 47 Z M 170 10 "/>
<path style="fill:none;stroke-width:1;stroke-linecap:butt;stroke-linejoin:miter;stroke:rgb(0%,0%,0%);stroke-opacity:1;stroke-miterlimit:10;" d="M 200 56 L 302 56 L 302 93 L 200 93 Z M 200 56 Z M 200 56 " transform="matrix(1,0,0,1,-30,-46)"/>
<path style=" stroke:none;fill-rule:nonzero;fill:rgb(0%,0%,0%);fill-opacity:1;" d="M 180.625 24.621094 L 178.484375 22.292969 L 178.484375 21.902344 L 180.625 19.542969 L 181.6875 19.542969 L 181.6875 19.746094 L 179.546875 22.105469 L 181.703125 24.433594 L 181.703125 24.621094 Z M 177.65625 24.621094 L 175.53125 22.292969 L 175.53125 21.902344 L 177.65625 19.542969 L 178.71875 19.542969 L 178.71875 19.746094 L 176.59375 22.105469 L 178.734375 24.433594 L 178.734375 24.621094 Z M 188.917969 22.042969 C 188.917969 24.441406 188.074219 25.636719 186.386719 25.636719 C 185.332031 25.636719 184.625 25.242188 184.261719 24.449219 L 184.230469 24.449219 C 184.238281 24.480469 184.246094 24.839844 184.246094 25.527344 L 184.246094 28.214844 L 183.105469 28.214844 L 183.105469 20.042969 C 183.105469 19.335938 183.09375 18.867188 183.074219 18.636719 L 184.167969 18.636719 C 184.175781 18.660156 184.183594 18.722656 184.183594 18.824219 C 184.191406 18.929688 184.203125 19.089844 184.214844 19.308594 C 184.222656 19.519531 184.230469 19.664062 184.230469 19.746094 L 184.261719 19.746094 C 184.46875 19.320312 184.738281 19.011719 185.074219 18.824219 C 185.40625 18.628906 185.84375 18.527344 186.386719 18.527344 C 187.230469 18.527344 187.859375 18.816406 188.277344 19.386719 C 188.703125 19.949219 188.917969 20.835938 188.917969 22.042969 Z M 187.714844 22.074219 C 187.714844 21.117188 187.582031 20.433594 187.324219 20.027344 C 187.0625 19.613281 186.652344 19.402344 186.089844 19.402344 C 185.640625 19.402344 185.285156 19.503906 185.027344 19.699219 C 184.777344 19.886719 184.582031 20.183594 184.449219 20.589844 C 184.3125 20.988281 184.246094 21.507812 184.246094 22.152344 C 184.246094 23.058594 184.386719 23.726562 184.667969 24.152344 C 184.957031 24.582031 185.433594 24.792969 186.089844 24.792969 C 186.652344 24.792969 187.0625 24.585938 187.324219 24.167969 C 187.582031 23.753906 187.714844 23.054688 187.714844 22.074219 Z M 190.367188 25.511719 L 190.367188 20.246094 C 190.367188 19.757812 190.351562 19.222656 190.320312 18.636719 L 191.398438 18.636719 C 191.4375 19.417969 191.460938 19.886719 191.460938 20.042969 L 191.476562 20.042969 C 191.664062 19.460938 191.871094 19.058594 192.101562 18.839844 C 192.339844 18.621094 192.679688 18.511719 193.117188 18.511719 C 193.261719 18.511719 193.414062 18.535156 193.570312 18.574219 L 193.570312 19.621094 C 193.421875 19.582031 193.21875 19.558594 192.960938 19.558594 C 192.492188 19.558594 192.132812 19.769531 191.882812 20.183594 C 191.632812 20.589844 191.507812 21.175781 191.507812 21.933594 L 191.507812 25.511719 Z M 194.664062 17.183594 L 194.664062 16.089844 L 195.804688 16.089844 L 195.804688 17.183594 Z M 194.664062 25.511719 L 194.664062 18.636719 L 195.804688 18.636719 L 195.804688 25.511719 Z M 201.554688 25.511719 L 201.554688 21.152344 C 201.554688 20.496094 201.460938 20.042969 201.273438 19.792969 C 201.09375 19.535156 200.773438 19.402344 200.304688 19.402344 C 199.8125 19.402344 199.421875 19.589844 199.132812 19.964844 C 198.851562 20.332031 198.710938 20.851562 198.710938 21.527344 L 198.710938 25.511719 L 197.585938 25.511719 L 197.585938 20.105469 C 197.585938 19.304688 197.570312 18.816406 197.539062 18.636719 L 198.617188 18.636719 C 198.625 18.660156 198.632812 18.714844 198.632812 18.808594 C 198.640625 18.902344 198.648438 19.011719 198.648438 19.136719 C 198.65625 19.253906 198.667969 19.480469 198.679688 19.824219 L 198.695312 19.824219 C 198.933594 19.335938 199.210938 18.996094 199.523438 18.808594 C 199.84375 18.613281 200.234375 18.511719 200.695312 18.511719 C 201.214844 18.511719 201.625 18.617188 201.929688 18.824219 C 202.230469 19.035156 202.445312 19.367188 202.570312 19.824219 L 202.585938 19.824219 C 202.824219 19.355469 203.109375 19.023438 203.445312 18.824219 C 203.777344 18.617188 204.183594 18.511719 204.664062 18.511719 C 205.359375 18.511719 205.867188 18.707031 206.179688 19.089844 C 206.492188 19.464844 206.648438 20.082031 206.648438 20.933594 L 206.648438 25.511719 L 205.523438 25.511719 L 205.523438 21.152344 C 205.523438 20.496094 205.429688 20.042969 205.242188 19.792969 C 205.0625 19.535156 204.734375 19.402344 204.257812 19.402344 C 203.765625 19.402344 203.382812 19.589844 203.101562 19.964844 C 202.820312 20.332031 202.679688 20.851562 202.679688 21.527344 L 202.679688 25.511719 Z M 208.382812 17.183594 L 208.382812 16.089844 L 209.523438 16.089844 L 209.523438 17.183594 Z M 208.382812 25.511719 L 208.382812 18.636719 L 209.523438 18.636719 L 209.523438 25.511719 Z M 213.914062 25.464844 C 213.539062 25.566406 213.152344 25.621094 212.757812 25.621094 C 211.839844 25.621094 211.382812 25.101562 211.382812 24.058594 L 211.382812 19.480469 L 210.601562 19.480469 L 210.601562 18.636719 L 211.429688 18.636719 L 211.773438 17.105469 L 212.539062 17.105469 L 212.539062 18.636719 L 213.804688 18.636719 L 213.804688 19.480469 L 212.539062 19.480469 L 212.539062 23.808594 C 212.539062 24.144531 212.589844 24.378906 212.695312 24.511719 C 212.796875 24.636719 212.984375 24.699219 213.257812 24.699219 C 213.402344 24.699219 213.621094 24.675781 213.914062 24.621094 Z M 214.882812 17.183594 L 214.882812 16.089844 L 216.023438 16.089844 L 216.023438 17.183594 Z M 214.882812 25.511719 L 214.882812 18.636719 L 216.023438 18.636719 L 216.023438 25.511719 Z M 220.789062 25.511719 L 219.445312 25.511719 L 216.945312 18.636719 L 218.164062 18.636719 L 219.679688 23.105469 C 219.730469 23.285156 219.875 23.789062 220.117188 24.621094 L 220.335938 23.871094 L 220.585938 23.121094 L 222.148438 18.636719 L 223.351562 18.636719 Z M 225.148438 22.324219 C 225.148438 23.105469 225.308594 23.710938 225.632812 24.136719 C 225.964844 24.566406 226.445312 24.777344 227.070312 24.777344 C 227.558594 24.777344 227.953125 24.679688 228.257812 24.480469 C 228.558594 24.285156 228.761719 24.035156 228.867188 23.730469 L 229.867188 24.011719 C 229.460938 25.097656 228.527344 25.636719 227.070312 25.636719 C 226.046875 25.636719 225.273438 25.335938 224.742188 24.730469 C 224.210938 24.128906 223.945312 23.226562 223.945312 22.027344 C 223.945312 20.894531 224.210938 20.023438 224.742188 19.417969 C 225.273438 18.816406 226.03125 18.511719 227.023438 18.511719 C 229.042969 18.511719 230.054688 19.730469 230.054688 22.167969 L 230.054688 22.324219 Z M 228.867188 21.449219 C 228.804688 20.722656 228.621094 20.191406 228.320312 19.855469 C 228.015625 19.523438 227.578125 19.355469 227.007812 19.355469 C 226.453125 19.355469 226.011719 19.542969 225.679688 19.917969 C 225.355469 20.285156 225.183594 20.792969 225.164062 21.449219 Z M 235.207031 17.558594 L 235.207031 25.511719 L 233.988281 25.511719 L 233.988281 17.558594 L 230.925781 17.558594 L 230.925781 16.574219 L 238.269531 16.574219 L 238.269531 17.558594 Z M 239.070312 28.214844 C 238.757812 28.214844 238.492188 28.1875 238.273438 28.136719 L 238.273438 27.277344 C 238.4375 27.308594 238.617188 27.324219 238.804688 27.324219 C 239.523438 27.324219 240.085938 26.796875 240.492188 25.746094 L 240.601562 25.480469 L 237.882812 18.636719 L 239.101562 18.636719 L 240.554688 22.433594 C 240.574219 22.496094 240.59375 22.570312 240.617188 22.652344 C 240.648438 22.738281 240.742188 23.011719 240.898438 23.480469 C 241.0625 23.949219 241.152344 24.210938 241.164062 24.261719 L 241.617188 23.011719 L 243.117188 18.636719 L 244.320312 18.636719 L 241.679688 25.511719 C 241.398438 26.238281 241.132812 26.78125 240.882812 27.136719 C 240.640625 27.5 240.371094 27.769531 240.070312 27.949219 C 239.777344 28.125 239.445312 28.214844 239.070312 28.214844 Z M 251.039062 22.042969 C 251.039062 24.441406 250.195312 25.636719 248.507812 25.636719 C 247.453125 25.636719 246.746094 25.242188 246.382812 24.449219 L 246.351562 24.449219 C 246.359375 24.480469 246.367188 24.839844 246.367188 25.527344 L 246.367188 28.214844 L 245.226562 28.214844 L 245.226562 20.042969 C 245.226562 19.335938 245.214844 18.867188 245.195312 18.636719 L 246.289062 18.636719 C 246.296875 18.660156 246.304688 18.722656 246.304688 18.824219 C 246.3125 18.929688 246.324219 19.089844 246.335938 19.308594 C 246.34375 19.519531 246.351562 19.664062 246.351562 19.746094 L 246.382812 19.746094 C 246.589844 19.320312 246.859375 19.011719 247.195312 18.824219 C 247.527344 18.628906 247.964844 18.527344 248.507812 18.527344 C 249.351562 18.527344 249.980469 18.816406 250.398438 19.386719 C 250.824219 19.949219 251.039062 20.835938 251.039062 22.042969 Z M 249.835938 22.074219 C 249.835938 21.117188 249.703125 20.433594 249.445312 20.027344 C 249.183594 19.613281 248.773438 19.402344 248.210938 19.402344 C 247.761719 19.402344 247.40625 19.503906 247.148438 19.699219 C 246.898438 19.886719 246.703125 20.183594 246.570312 20.589844 C 246.433594 20.988281 246.367188 21.507812 246.367188 22.152344 C 246.367188 23.058594 246.507812 23.726562 246.789062 24.152344 C 247.078125 24.582031 247.554688 24.792969 248.210938 24.792969 C 248.773438 24.792969 249.183594 24.585938 249.445312 24.167969 C 249.703125 23.753906 249.835938 23.054688 249.835938 22.074219 Z M 253.332031 22.324219 C 253.332031 23.105469 253.492188 23.710938 253.816406 24.136719 C 254.148438 24.566406 254.628906 24.777344 255.253906 24.777344 C 255.742188 24.777344 256.136719 24.679688 256.441406 24.480469 C 256.742188 24.285156 256.945312 24.035156 257.050781 23.730469 L 258.050781 24.011719 C 257.644531 25.097656 256.710938 25.636719 255.253906 25.636719 C 254.230469 25.636719 253.457031 25.335938 252.925781 24.730469 C 252.394531 24.128906 252.128906 23.226562 252.128906 22.027344 C 252.128906 20.894531 252.394531 20.023438 252.925781 19.417969 C 253.457031 18.816406 254.214844 18.511719 255.207031 18.511719 C 257.226562 18.511719 258.238281 19.730469 258.238281 22.167969 L 258.238281 22.324219 Z M 257.050781 21.449219 C 256.988281 20.722656 256.804688 20.191406 256.503906 19.855469 C 256.199219 19.523438 255.761719 19.355469 255.191406 19.355469 C 254.636719 19.355469 254.195312 19.542969 253.863281 19.917969 C 253.539062 20.285156 253.367188 20.792969 253.347656 21.449219 Z M 263.375 24.621094 L 262.296875 24.621094 L 262.296875 24.433594 L 264.453125 22.105469 L 262.3125 19.746094 L 262.3125 19.542969 L 263.375 19.542969 L 265.515625 21.902344 L 265.515625 22.292969 Z M 260.421875 24.621094 L 259.34375 24.621094 L 259.34375 24.433594 L 261.484375 22.105469 L 259.359375 19.746094 L 259.359375 19.542969 L 260.421875 19.542969 L 262.546875 21.902344 L 262.546875 22.292969 Z M 175 13.742188 "/>
<path style=" stroke:none;fill-rule:nonzero;fill:rgb(0%,0%,0%);fill-opacity:1;" d="M 206.328125 40.636719 C 205.398438 40.636719 204.6875 40.441406 204.1875 40.042969 C 203.6875 39.636719 203.359375 38.988281 203.203125 38.089844 L 205.0625 37.808594 C 205.132812 38.277344 205.273438 38.621094 205.484375 38.839844 C 205.691406 39.058594 205.976562 39.167969 206.34375 39.167969 C 206.707031 39.167969 206.984375 39.042969 207.171875 38.792969 C 207.367188 38.542969 207.46875 38.191406 207.46875 37.730469 L 207.46875 33.027344 L 205.6875 33.027344 L 205.6875 31.574219 L 209.34375 31.574219 L 209.34375 37.683594 C 209.34375 38.613281 209.078125 39.335938 208.546875 39.855469 C 208.015625 40.378906 207.273438 40.636719 206.328125 40.636719 Z M 218.386719 37.933594 C 218.386719 38.808594 218.0625 39.480469 217.417969 39.949219 C 216.769531 40.410156 215.816406 40.636719 214.558594 40.636719 C 213.410156 40.636719 212.511719 40.433594 211.855469 40.027344 C 211.207031 39.621094 210.792969 39.007812 210.605469 38.183594 L 212.417969 37.886719 C 212.542969 38.355469 212.78125 38.699219 213.136719 38.917969 C 213.488281 39.128906 213.980469 39.230469 214.605469 39.230469 C 215.917969 39.230469 216.574219 38.835938 216.574219 38.042969 C 216.574219 37.792969 216.496094 37.585938 216.339844 37.417969 C 216.191406 37.253906 215.984375 37.117188 215.714844 37.011719 C 215.441406 36.898438 214.917969 36.761719 214.136719 36.605469 C 213.46875 36.449219 213.003906 36.324219 212.746094 36.230469 C 212.484375 36.128906 212.246094 36.011719 212.027344 35.886719 C 211.816406 35.761719 211.640625 35.613281 211.496094 35.433594 C 211.347656 35.246094 211.234375 35.035156 211.152344 34.792969 C 211.066406 34.542969 211.027344 34.257812 211.027344 33.933594 C 211.027344 33.132812 211.328125 32.519531 211.933594 32.089844 C 212.535156 31.652344 213.421875 31.433594 214.589844 31.433594 C 215.691406 31.433594 216.519531 31.613281 217.074219 31.964844 C 217.636719 32.308594 217.996094 32.878906 218.152344 33.667969 L 216.339844 33.917969 C 216.246094 33.535156 216.050781 33.246094 215.761719 33.058594 C 215.480469 32.863281 215.074219 32.761719 214.542969 32.761719 C 213.40625 32.761719 212.839844 33.117188 212.839844 33.824219 C 212.839844 34.066406 212.902344 34.257812 213.027344 34.402344 C 213.152344 34.550781 213.328125 34.675781 213.558594 34.777344 C 213.796875 34.882812 214.28125 35.011719 215.011719 35.167969 C 215.863281 35.347656 216.472656 35.511719 216.839844 35.667969 C 217.214844 35.824219 217.511719 36.007812 217.730469 36.214844 C 217.949219 36.414062 218.109375 36.660156 218.214844 36.949219 C 218.328125 37.230469 218.386719 37.558594 218.386719 37.933594 Z M 228.464844 35.996094 C 228.464844 36.933594 228.28125 37.757812 227.917969 38.464844 C 227.550781 39.164062 227.027344 39.699219 226.339844 40.074219 C 225.652344 40.449219 224.847656 40.636719 223.933594 40.636719 C 222.527344 40.636719 221.421875 40.226562 220.621094 39.402344 C 219.828125 38.570312 219.433594 37.433594 219.433594 35.996094 C 219.433594 34.558594 219.828125 33.441406 220.621094 32.636719 C 221.421875 31.835938 222.53125 31.433594 223.949219 31.433594 C 225.363281 31.433594 226.46875 31.839844 227.261719 32.652344 C 228.0625 33.464844 228.464844 34.582031 228.464844 35.996094 Z M 226.558594 35.996094 C 226.558594 35.039062 226.328125 34.285156 225.871094 33.730469 C 225.410156 33.179688 224.769531 32.902344 223.949219 32.902344 C 223.113281 32.902344 222.46875 33.179688 222.011719 33.730469 C 221.550781 34.273438 221.324219 35.027344 221.324219 35.996094 C 221.324219 36.976562 221.558594 37.753906 222.027344 38.324219 C 222.496094 38.886719 223.128906 39.167969 223.933594 39.167969 C 224.777344 39.167969 225.421875 38.894531 225.871094 38.339844 C 226.328125 37.789062 226.558594 37.007812 226.558594 35.996094 Z M 235.328125 40.511719 L 231.4375 33.621094 C 231.507812 34.289062 231.546875 34.824219 231.546875 35.230469 L 231.546875 40.511719 L 229.890625 40.511719 L 229.890625 31.574219 L 232.03125 31.574219 L 235.984375 38.511719 C 235.898438 37.878906 235.859375 37.292969 235.859375 36.761719 L 235.859375 31.574219 L 237.53125 31.574219 L 237.53125 40.511719 Z M 203 28.742188 "/>
<path style=" stroke:none;fill-rule:nonzero;fill:rgb(75.294118%,75.294118%,75.294118%);fill-opacity:0.2;" d="M 321 17 L 451 17 L 451 87 L 321 87 Z M 321 17 "/>
<path style=" stroke:none;fill-rule:nonzero;fill:rgb(100%,100%,100%);fill-opacity:1;" d="M 314 10 L 444 10 L 444 80 L 314 80 Z M 314 10 "/>
<path style="fill:none;stroke-width:1;stroke-linecap:butt;stroke-linejoin:miter;stroke:rgb(0%,0%,0%);stroke-opacity:1;stroke-miterlimit:10;" d="M 344 56 L 474 56 L 474 126 L 344 126 Z M 344 56 Z M 344 56 " transform="matrix(1,0,0,1,-30,-46)"/>
<path style="fill:none;stroke-width:1;stroke-linecap:butt;stroke-linejoin:miter;stroke:rgb(0%,0%,0%);stroke-opacity:1;stroke-miterlimit:10;" d="M 344 94 L 476 94 " transform="matrix(1,0,0,1,-30,-46)"/>
<path style="fill:none;stroke-width:1;stroke-linecap:butt;stroke-linejoin:miter;stroke:rgb(0%,0%,0%);stroke-opacity:1;stroke-miterlimit:10;" d="M 344 117 L 474 117 " transform="matrix(1,0,0,1,-30,-46)"/>
<path style=" stroke:none;fill-rule:nonzero;fill:rgb(0%,0%,0%);fill-opacity:1;" d="M 351.625 24.621094 L 349.484375 22.292969 L 349.484375 21.902344 L 351.625 19.542969 L 352.6875 19.542969 L 352.6875 19.746094 L 350.546875 22.105469 L 352.703125 24.433594 L 352.703125 24.621094 Z M 348.65625 24.621094 L 346.53125 22.292969 L 346.53125 21.902344 L 348.65625 19.542969 L 349.71875 19.542969 L 349.71875 19.746094 L 347.59375 22.105469 L 349.734375 24.433594 L 349.734375 24.621094 Z M 354.433594 25.511719 L 354.433594 16.574219 L 355.636719 16.574219 L 355.636719 25.511719 Z M 362.078125 25.511719 L 362.078125 21.152344 C 362.078125 20.707031 362.03125 20.355469 361.9375 20.105469 C 361.851562 19.855469 361.710938 19.679688 361.515625 19.574219 C 361.328125 19.460938 361.046875 19.402344 360.671875 19.402344 C 360.117188 19.402344 359.679688 19.589844 359.359375 19.964844 C 359.046875 20.339844 358.890625 20.863281 358.890625 21.527344 L 358.890625 25.511719 L 357.75 25.511719 L 357.75 20.105469 C 357.75 19.304688 357.734375 18.816406 357.703125 18.636719 L 358.78125 18.636719 C 358.789062 18.660156 358.796875 18.714844 358.796875 18.808594 C 358.804688 18.902344 358.8125 19.011719 358.8125 19.136719 C 358.820312 19.253906 358.832031 19.480469 358.84375 19.824219 L 358.859375 19.824219 C 359.117188 19.347656 359.421875 19.007812 359.765625 18.808594 C 360.109375 18.613281 360.535156 18.511719 361.046875 18.511719 C 361.804688 18.511719 362.359375 18.699219 362.703125 19.074219 C 363.054688 19.449219 363.234375 20.070312 363.234375 20.933594 L 363.234375 25.511719 Z M 367.589844 25.464844 C 367.214844 25.566406 366.828125 25.621094 366.433594 25.621094 C 365.515625 25.621094 365.058594 25.101562 365.058594 24.058594 L 365.058594 19.480469 L 364.277344 19.480469 L 364.277344 18.636719 L 365.105469 18.636719 L 365.449219 17.105469 L 366.214844 17.105469 L 366.214844 18.636719 L 367.480469 18.636719 L 367.480469 19.480469 L 366.214844 19.480469 L 366.214844 23.808594 C 366.214844 24.144531 366.265625 24.378906 366.371094 24.511719 C 366.472656 24.636719 366.660156 24.699219 366.933594 24.699219 C 367.078125 24.699219 367.296875 24.675781 367.589844 24.621094 Z M 369.4375 22.324219 C 369.4375 23.105469 369.597656 23.710938 369.921875 24.136719 C 370.253906 24.566406 370.734375 24.777344 371.359375 24.777344 C 371.847656 24.777344 372.242188 24.679688 372.546875 24.480469 C 372.847656 24.285156 373.050781 24.035156 373.15625 23.730469 L 374.15625 24.011719 C 373.75 25.097656 372.816406 25.636719 371.359375 25.636719 C 370.335938 25.636719 369.5625 25.335938 369.03125 24.730469 C 368.5 24.128906 368.234375 23.226562 368.234375 22.027344 C 368.234375 20.894531 368.5 20.023438 369.03125 19.417969 C 369.5625 18.816406 370.320312 18.511719 371.3125 18.511719 C 373.332031 18.511719 374.34375 19.730469 374.34375 22.167969 L 374.34375 22.324219 Z M 373.15625 21.449219 C 373.09375 20.722656 372.910156 20.191406 372.609375 19.855469 C 372.304688 19.523438 371.867188 19.355469 371.296875 19.355469 C 370.742188 19.355469 370.300781 19.542969 369.96875 19.917969 C 369.644531 20.285156 369.472656 20.792969 369.453125 21.449219 Z M 375.820312 25.511719 L 375.820312 20.246094 C 375.820312 19.757812 375.804688 19.222656 375.773438 18.636719 L 376.851562 18.636719 C 376.890625 19.417969 376.914062 19.886719 376.914062 20.042969 L 376.929688 20.042969 C 377.117188 19.460938 377.324219 19.058594 377.554688 18.839844 C 377.792969 18.621094 378.132812 18.511719 378.570312 18.511719 C 378.714844 18.511719 378.867188 18.535156 379.023438 18.574219 L 379.023438 19.621094 C 378.875 19.582031 378.671875 19.558594 378.414062 19.558594 C 377.945312 19.558594 377.585938 19.769531 377.335938 20.183594 C 377.085938 20.589844 376.960938 21.175781 376.960938 21.933594 L 376.960938 25.511719 Z M 381.542969 19.480469 L 381.542969 25.511719 L 380.402344 25.511719 L 380.402344 19.480469 L 379.433594 19.480469 L 379.433594 18.636719 L 380.402344 18.636719 L 380.402344 17.871094 C 380.402344 17.246094 380.535156 16.800781 380.808594 16.527344 C 381.078125 16.246094 381.5 16.105469 382.074219 16.105469 C 382.386719 16.105469 382.652344 16.132812 382.871094 16.183594 L 382.871094 17.042969 C 382.683594 17.011719 382.515625 16.996094 382.371094 16.996094 C 382.078125 16.996094 381.863281 17.074219 381.730469 17.230469 C 381.605469 17.378906 381.542969 17.644531 381.542969 18.027344 L 381.542969 18.636719 L 382.871094 18.636719 L 382.871094 19.480469 Z M 385.484375 25.636719 C 384.796875 25.636719 384.273438 25.457031 383.921875 25.089844 C 383.578125 24.726562 383.40625 24.226562 383.40625 23.589844 C 383.40625 22.882812 383.640625 22.339844 384.109375 21.964844 C 384.578125 21.582031 385.332031 21.371094 386.375 21.339844 L 387.921875 21.324219 L 387.921875 20.949219 C 387.921875 20.386719 387.800781 19.988281 387.5625 19.746094 C 387.320312 19.507812 386.953125 19.386719 386.453125 19.386719 C 385.929688 19.386719 385.554688 19.476562 385.328125 19.652344 C 385.097656 19.820312 384.957031 20.097656 384.90625 20.480469 L 383.71875 20.371094 C 383.914062 19.132812 384.832031 18.511719 386.46875 18.511719 C 387.332031 18.511719 387.984375 18.710938 388.421875 19.105469 C 388.859375 19.503906 389.078125 20.074219 389.078125 20.824219 L 389.078125 23.777344 C 389.078125 24.121094 389.117188 24.382812 389.203125 24.558594 C 389.296875 24.726562 389.46875 24.808594 389.71875 24.808594 C 389.820312 24.808594 389.945312 24.792969 390.09375 24.761719 L 390.09375 25.480469 C 389.800781 25.542969 389.503906 25.574219 389.203125 25.574219 C 388.785156 25.574219 388.476562 25.464844 388.28125 25.246094 C 388.09375 25.019531 387.984375 24.667969 387.953125 24.199219 L 387.921875 24.199219 C 387.628906 24.722656 387.285156 25.089844 386.890625 25.308594 C 386.503906 25.527344 386.035156 25.636719 385.484375 25.636719 Z M 385.75 24.777344 C 386.164062 24.777344 386.535156 24.683594 386.859375 24.496094 C 387.191406 24.308594 387.453125 24.050781 387.640625 23.714844 C 387.828125 23.382812 387.921875 23.039062 387.921875 22.683594 L 387.921875 22.121094 L 386.671875 22.152344 C 386.128906 22.152344 385.71875 22.207031 385.4375 22.308594 C 385.164062 22.414062 384.957031 22.574219 384.8125 22.792969 C 384.664062 23.003906 384.59375 23.277344 384.59375 23.621094 C 384.59375 23.988281 384.691406 24.273438 384.890625 24.480469 C 385.085938 24.679688 385.375 24.777344 385.75 24.777344 Z M 391.835938 22.042969 C 391.835938 22.960938 391.976562 23.636719 392.257812 24.074219 C 392.546875 24.511719 392.984375 24.730469 393.570312 24.730469 C 393.976562 24.730469 394.3125 24.621094 394.585938 24.402344 C 394.855469 24.183594 395.023438 23.847656 395.085938 23.386719 L 396.242188 23.464844 C 396.15625 24.132812 395.875 24.664062 395.398438 25.058594 C 394.929688 25.445312 394.328125 25.636719 393.601562 25.636719 C 392.632812 25.636719 391.890625 25.335938 391.382812 24.730469 C 390.882812 24.128906 390.632812 23.242188 390.632812 22.074219 C 390.632812 20.917969 390.886719 20.039062 391.398438 19.433594 C 391.90625 18.820312 392.636719 18.511719 393.585938 18.511719 C 394.28125 18.511719 394.859375 18.695312 395.320312 19.058594 C 395.789062 19.425781 396.085938 19.929688 396.210938 20.574219 L 395.023438 20.652344 C 394.96875 20.277344 394.820312 19.980469 394.570312 19.761719 C 394.328125 19.535156 393.992188 19.417969 393.554688 19.417969 C 392.949219 19.417969 392.511719 19.621094 392.242188 20.027344 C 391.96875 20.425781 391.835938 21.097656 391.835938 22.042969 Z M 398.335938 22.324219 C 398.335938 23.105469 398.496094 23.710938 398.820312 24.136719 C 399.152344 24.566406 399.632812 24.777344 400.257812 24.777344 C 400.746094 24.777344 401.140625 24.679688 401.445312 24.480469 C 401.746094 24.285156 401.949219 24.035156 402.054688 23.730469 L 403.054688 24.011719 C 402.648438 25.097656 401.714844 25.636719 400.257812 25.636719 C 399.234375 25.636719 398.460938 25.335938 397.929688 24.730469 C 397.398438 24.128906 397.132812 23.226562 397.132812 22.027344 C 397.132812 20.894531 397.398438 20.023438 397.929688 19.417969 C 398.460938 18.816406 399.21875 18.511719 400.210938 18.511719 C 402.230469 18.511719 403.242188 19.730469 403.242188 22.167969 L 403.242188 22.324219 Z M 402.054688 21.449219 C 401.992188 20.722656 401.808594 20.191406 401.507812 19.855469 C 401.203125 19.523438 400.765625 19.355469 400.195312 19.355469 C 399.640625 19.355469 399.199219 19.542969 398.867188 19.917969 C 398.542969 20.285156 398.371094 20.792969 398.351562 21.449219 Z M 408.382812 24.621094 L 407.304688 24.621094 L 407.304688 24.433594 L 409.460938 22.105469 L 407.320312 19.746094 L 407.320312 19.542969 L 408.382812 19.542969 L 410.523438 21.902344 L 410.523438 22.292969 Z M 405.429688 24.621094 L 404.351562 24.621094 L 404.351562 24.433594 L 406.492188 22.105469 L 404.367188 19.746094 L 404.367188 19.542969 L 405.429688 19.542969 L 407.554688 21.902344 L 407.554688 22.292969 Z M 346 13.742188 "/>
<path style=" stroke:none;fill-rule:nonzero;fill:rgb(0%,0%,0%);fill-opacity:1;" d="M 369.3125 40.511719 L 365.421875 33.621094 C 365.492188 34.289062 365.53125 34.824219 365.53125 35.230469 L 365.53125 40.511719 L 363.875 40.511719 L 363.875 31.574219 L 366.015625 31.574219 L 369.96875 38.511719 C 369.882812 37.878906 369.84375 37.292969 369.84375 36.761719 L 369.84375 31.574219 L 371.515625 31.574219 L 371.515625 40.511719 Z M 379.828125 37.074219 C 379.828125 38.191406 379.515625 39.066406 378.890625 39.699219 C 378.273438 40.324219 377.421875 40.636719 376.328125 40.636719 C 375.265625 40.636719 374.425781 40.320312 373.8125 39.683594 C 373.207031 39.050781 372.90625 38.179688 372.90625 37.074219 C 372.90625 35.972656 373.207031 35.101562 373.8125 34.464844 C 374.425781 33.832031 375.28125 33.511719 376.375 33.511719 C 377.488281 33.511719 378.34375 33.820312 378.9375 34.433594 C 379.53125 35.050781 379.828125 35.929688 379.828125 37.074219 Z M 377.953125 37.074219 C 377.953125 36.253906 377.816406 35.660156 377.546875 35.292969 C 377.285156 34.929688 376.898438 34.746094 376.390625 34.746094 C 375.304688 34.746094 374.765625 35.523438 374.765625 37.074219 C 374.765625 37.835938 374.894531 38.417969 375.15625 38.824219 C 375.425781 39.222656 375.8125 39.417969 376.3125 39.417969 C 377.40625 39.417969 377.953125 38.636719 377.953125 37.074219 Z M 385.6875 40.511719 C 385.664062 40.449219 385.644531 40.292969 385.625 40.042969 C 385.601562 39.785156 385.59375 39.566406 385.59375 39.386719 L 385.5625 39.386719 C 385.175781 40.222656 384.445312 40.636719 383.375 40.636719 C 382.570312 40.636719 381.953125 40.324219 381.515625 39.699219 C 381.078125 39.074219 380.859375 38.207031 380.859375 37.089844 C 380.859375 35.945312 381.085938 35.066406 381.546875 34.449219 C 382.003906 33.824219 382.65625 33.511719 383.5 33.511719 C 383.988281 33.511719 384.410156 33.617188 384.765625 33.824219 C 385.117188 34.023438 385.390625 34.324219 385.578125 34.730469 L 385.59375 34.730469 L 385.578125 33.605469 L 385.578125 31.089844 L 387.359375 31.089844 L 387.359375 39.011719 C 387.359375 39.441406 387.375 39.941406 387.40625 40.511719 Z M 385.609375 37.042969 C 385.609375 36.304688 385.484375 35.738281 385.234375 35.339844 C 384.984375 34.933594 384.617188 34.730469 384.140625 34.730469 C 383.660156 34.730469 383.300781 34.925781 383.0625 35.308594 C 382.832031 35.695312 382.71875 36.289062 382.71875 37.089844 C 382.71875 38.644531 383.1875 39.417969 384.125 39.417969 C 384.59375 39.417969 384.957031 39.214844 385.21875 38.808594 C 385.476562 38.394531 385.609375 37.804688 385.609375 37.042969 Z M 391.992188 40.636719 C 390.960938 40.636719 390.167969 40.335938 389.617188 39.730469 C 389.0625 39.117188 388.789062 38.222656 388.789062 37.042969 C 388.789062 35.910156 389.070312 35.039062 389.632812 34.433594 C 390.195312 33.820312 390.992188 33.511719 392.023438 33.511719 C 393 33.511719 393.75 33.839844 394.273438 34.496094 C 394.792969 35.152344 395.054688 36.113281 395.054688 37.371094 L 395.054688 37.417969 L 390.648438 37.417969 C 390.648438 38.085938 390.773438 38.589844 391.023438 38.933594 C 391.273438 39.277344 391.625 39.449219 392.085938 39.449219 C 392.710938 39.449219 393.105469 39.175781 393.273438 38.621094 L 394.960938 38.777344 C 394.46875 40.019531 393.480469 40.636719 391.992188 40.636719 Z M 391.992188 34.636719 C 391.574219 34.636719 391.25 34.785156 391.023438 35.074219 C 390.792969 35.367188 390.671875 35.777344 390.664062 36.308594 L 393.335938 36.308594 C 393.304688 35.746094 393.167969 35.332031 392.929688 35.058594 C 392.699219 34.777344 392.386719 34.636719 391.992188 34.636719 Z M 363 28.742188 "/>
<path style=" stroke:none;fill-rule:nonzero;fill:rgb(0%,0%,0%);fill-opacity:1;" d="M 324.625 62.621094 L 322.484375 60.292969 L 322.484375 59.902344 L 324.625 57.542969 L 325.6875 57.542969 L 325.6875 57.746094 L 323.546875 60.105469 L 325.703125 62.433594 L 325.703125 62.621094 Z M 321.65625 62.621094 L 319.53125 60.292969 L 319.53125 59.902344 L 321.65625 57.542969 L 322.71875 57.542969 L 322.71875 57.746094 L 320.59375 60.105469 L 322.734375 62.433594 L 322.734375 62.621094 Z M 327.136719 63.511719 L 327.136719 58.246094 C 327.136719 57.757812 327.121094 57.222656 327.089844 56.636719 L 328.167969 56.636719 C 328.207031 57.417969 328.230469 57.886719 328.230469 58.042969 L 328.246094 58.042969 C 328.433594 57.460938 328.640625 57.058594 328.871094 56.839844 C 329.109375 56.621094 329.449219 56.511719 329.886719 56.511719 C 330.03125 56.511719 330.183594 56.535156 330.339844 56.574219 L 330.339844 57.621094 C 330.191406 57.582031 329.988281 57.558594 329.730469 57.558594 C 329.261719 57.558594 328.902344 57.769531 328.652344 58.183594 C 328.402344 58.589844 328.277344 59.175781 328.277344 59.933594 L 328.277344 63.511719 Z M 332.308594 60.324219 C 332.308594 61.105469 332.46875 61.710938 332.792969 62.136719 C 333.125 62.566406 333.605469 62.777344 334.230469 62.777344 C 334.71875 62.777344 335.113281 62.679688 335.417969 62.480469 C 335.71875 62.285156 335.921875 62.035156 336.027344 61.730469 L 337.027344 62.011719 C 336.621094 63.097656 335.6875 63.636719 334.230469 63.636719 C 333.207031 63.636719 332.433594 63.335938 331.902344 62.730469 C 331.371094 62.128906 331.105469 61.226562 331.105469 60.027344 C 331.105469 58.894531 331.371094 58.023438 331.902344 57.417969 C 332.433594 56.816406 333.191406 56.511719 334.183594 56.511719 C 336.203125 56.511719 337.214844 57.730469 337.214844 60.167969 L 337.214844 60.324219 Z M 336.027344 59.449219 C 335.964844 58.722656 335.78125 58.191406 335.480469 57.855469 C 335.175781 57.523438 334.738281 57.355469 334.167969 57.355469 C 333.613281 57.355469 333.171875 57.542969 332.839844 57.917969 C 332.515625 58.285156 332.34375 58.792969 332.324219 59.449219 Z M 340.867188 63.636719 C 339.992188 63.636719 339.351562 63.347656 338.945312 62.761719 C 338.539062 62.167969 338.335938 61.285156 338.335938 60.105469 C 338.335938 57.710938 339.179688 56.511719 340.867188 56.511719 C 341.386719 56.511719 341.8125 56.605469 342.148438 56.792969 C 342.492188 56.980469 342.777344 57.289062 343.007812 57.714844 C 343.007812 57.582031 343.015625 57.363281 343.039062 57.058594 C 343.058594 56.746094 343.074219 56.582031 343.085938 56.558594 L 344.195312 56.558594 C 344.164062 56.808594 344.148438 57.433594 344.148438 58.433594 L 344.148438 66.214844 L 343.007812 66.214844 L 343.007812 63.417969 L 343.023438 62.386719 L 343.007812 62.386719 C 342.777344 62.835938 342.496094 63.160156 342.164062 63.355469 C 341.828125 63.542969 341.398438 63.636719 340.867188 63.636719 Z M 343.007812 59.996094 C 343.007812 59.101562 342.855469 58.441406 342.554688 58.011719 C 342.261719 57.574219 341.796875 57.355469 341.164062 57.355469 C 340.578125 57.355469 340.164062 57.574219 339.914062 58.011719 C 339.664062 58.441406 339.539062 59.128906 339.539062 60.074219 C 339.539062 61.035156 339.664062 61.722656 339.914062 62.136719 C 340.171875 62.554688 340.585938 62.761719 341.148438 62.761719 C 341.792969 62.761719 342.261719 62.535156 342.554688 62.074219 C 342.855469 61.605469 343.007812 60.914062 343.007812 59.996094 Z M 347.019531 56.636719 L 347.019531 60.996094 C 347.019531 61.457031 347.058594 61.808594 347.144531 62.058594 C 347.238281 62.308594 347.378906 62.492188 347.566406 62.605469 C 347.761719 62.710938 348.050781 62.761719 348.425781 62.761719 C 348.976562 62.761719 349.410156 62.574219 349.722656 62.199219 C 350.042969 61.816406 350.207031 61.289062 350.207031 60.621094 L 350.207031 56.636719 L 351.347656 56.636719 L 351.347656 62.042969 C 351.347656 62.847656 351.355469 63.335938 351.378906 63.511719 L 350.300781 63.511719 C 350.300781 63.492188 350.292969 63.433594 350.285156 63.339844 C 350.285156 63.246094 350.277344 63.144531 350.269531 63.027344 C 350.269531 62.902344 350.261719 62.675781 350.253906 62.339844 L 350.238281 62.339844 C 349.976562 62.808594 349.675781 63.144531 349.332031 63.339844 C 348.988281 63.535156 348.554688 63.636719 348.035156 63.636719 C 347.285156 63.636719 346.730469 63.449219 346.378906 63.074219 C 346.035156 62.699219 345.863281 62.082031 345.863281 61.214844 L 345.863281 56.636719 Z M 353.125 55.183594 L 353.125 54.089844 L 354.265625 54.089844 L 354.265625 55.183594 Z M 353.125 63.511719 L 353.125 56.636719 L 354.265625 56.636719 L 354.265625 63.511719 Z M 356.046875 63.511719 L 356.046875 58.246094 C 356.046875 57.757812 356.03125 57.222656 356 56.636719 L 357.078125 56.636719 C 357.117188 57.417969 357.140625 57.886719 357.140625 58.042969 L 357.15625 58.042969 C 357.34375 57.460938 357.550781 57.058594 357.78125 56.839844 C 358.019531 56.621094 358.359375 56.511719 358.796875 56.511719 C 358.941406 56.511719 359.09375 56.535156 359.25 56.574219 L 359.25 57.621094 C 359.101562 57.582031 358.898438 57.558594 358.640625 57.558594 C 358.171875 57.558594 357.8125 57.769531 357.5625 58.183594 C 357.3125 58.589844 357.1875 59.175781 357.1875 59.933594 L 357.1875 63.511719 Z M 361.21875 60.324219 C 361.21875 61.105469 361.378906 61.710938 361.703125 62.136719 C 362.035156 62.566406 362.515625 62.777344 363.140625 62.777344 C 363.628906 62.777344 364.023438 62.679688 364.328125 62.480469 C 364.628906 62.285156 364.832031 62.035156 364.9375 61.730469 L 365.9375 62.011719 C 365.53125 63.097656 364.597656 63.636719 363.140625 63.636719 C 362.117188 63.636719 361.34375 63.335938 360.8125 62.730469 C 360.28125 62.128906 360.015625 61.226562 360.015625 60.027344 C 360.015625 58.894531 360.28125 58.023438 360.8125 57.417969 C 361.34375 56.816406 362.101562 56.511719 363.09375 56.511719 C 365.113281 56.511719 366.125 57.730469 366.125 60.167969 L 366.125 60.324219 Z M 364.9375 59.449219 C 364.875 58.722656 364.691406 58.191406 364.390625 57.855469 C 364.085938 57.523438 363.648438 57.355469 363.078125 57.355469 C 362.523438 57.355469 362.082031 57.542969 361.75 57.917969 C 361.425781 58.285156 361.253906 58.792969 361.234375 59.449219 Z M 371.917969 62.402344 C 371.699219 62.851562 371.410156 63.167969 371.058594 63.355469 C 370.714844 63.542969 370.285156 63.636719 369.777344 63.636719 C 368.902344 63.636719 368.261719 63.347656 367.855469 62.761719 C 367.449219 62.179688 367.246094 61.292969 367.246094 60.105469 C 367.246094 57.710938 368.089844 56.511719 369.777344 56.511719 C 370.296875 56.511719 370.730469 56.613281 371.074219 56.808594 C 371.417969 56.996094 371.699219 57.300781 371.917969 57.714844 L 371.917969 54.089844 L 373.058594 54.089844 L 373.058594 62.089844 C 373.058594 62.808594 373.066406 63.285156 373.089844 63.511719 L 371.996094 63.511719 C 371.984375 63.441406 371.96875 63.285156 371.949219 63.042969 C 371.9375 62.792969 371.933594 62.582031 371.933594 62.402344 Z M 368.449219 60.074219 C 368.449219 61.035156 368.574219 61.722656 368.824219 62.136719 C 369.074219 62.554688 369.484375 62.761719 370.058594 62.761719 C 370.703125 62.761719 371.171875 62.539062 371.464844 62.089844 C 371.765625 61.644531 371.917969 60.945312 371.917969 59.996094 C 371.917969 59.089844 371.765625 58.425781 371.464844 57.996094 C 371.171875 57.570312 370.707031 57.355469 370.074219 57.355469 C 369.5 57.355469 369.082031 57.570312 368.824219 57.996094 C 368.574219 58.425781 368.449219 59.117188 368.449219 60.074219 Z M 378.492188 62.621094 L 377.414062 62.621094 L 377.414062 62.433594 L 379.570312 60.105469 L 377.429688 57.746094 L 377.429688 57.542969 L 378.492188 57.542969 L 380.632812 59.902344 L 380.632812 60.292969 Z M 375.539062 62.621094 L 374.460938 62.621094 L 374.460938 62.433594 L 376.601562 60.105469 L 374.476562 57.746094 L 374.476562 57.542969 L 375.539062 57.542969 L 377.664062 59.902344 L 377.664062 60.292969 Z M 385.425781 59.652344 L 385.425781 62.371094 L 384.488281 62.371094 L 384.488281 59.652344 L 381.800781 59.652344 L 381.800781 58.730469 L 384.488281 58.730469 L 384.488281 56.011719 L 385.425781 56.011719 L 385.425781 58.730469 L 388.113281 58.730469 L 388.113281 59.652344 Z M 389.625 55.183594 L 389.625 54.089844 L 390.765625 54.089844 L 390.765625 55.183594 Z M 389.625 63.511719 L 389.625 56.636719 L 390.765625 56.636719 L 390.765625 63.511719 Z M 396.859375 62.402344 C 396.640625 62.851562 396.351562 63.167969 396 63.355469 C 395.65625 63.542969 395.226562 63.636719 394.71875 63.636719 C 393.84375 63.636719 393.203125 63.347656 392.796875 62.761719 C 392.390625 62.179688 392.1875 61.292969 392.1875 60.105469 C 392.1875 57.710938 393.03125 56.511719 394.71875 56.511719 C 395.238281 56.511719 395.671875 56.613281 396.015625 56.808594 C 396.359375 56.996094 396.640625 57.300781 396.859375 57.714844 L 396.859375 54.089844 L 398 54.089844 L 398 62.089844 C 398 62.808594 398.007812 63.285156 398.03125 63.511719 L 396.9375 63.511719 C 396.925781 63.441406 396.910156 63.285156 396.890625 63.042969 C 396.878906 62.792969 396.875 62.582031 396.875 62.402344 Z M 393.390625 60.074219 C 393.390625 61.035156 393.515625 61.722656 393.765625 62.136719 C 394.015625 62.554688 394.425781 62.761719 395 62.761719 C 395.644531 62.761719 396.113281 62.539062 396.40625 62.089844 C 396.707031 61.644531 396.859375 60.945312 396.859375 59.996094 C 396.859375 59.089844 396.707031 58.425781 396.40625 57.996094 C 396.113281 57.570312 395.648438 57.355469 395.015625 57.355469 C 394.441406 57.355469 394.023438 57.570312 393.765625 57.996094 C 393.515625 58.425781 393.390625 59.117188 393.390625 60.074219 Z M 400.058594 57.964844 L 400.058594 56.636719 L 401.292969 56.636719 L 401.292969 57.964844 Z M 400.058594 63.511719 L 400.058594 62.199219 L 401.292969 62.199219 L 401.292969 63.511719 Z M 407.296875 63.511719 L 407.296875 54.574219 L 408.5 54.574219 L 408.5 63.511719 Z M 418.472656 58.949219 C 418.472656 59.867188 418.289062 60.675781 417.925781 61.371094 C 417.570312 62.058594 417.058594 62.589844 416.394531 62.964844 C 415.738281 63.332031 414.976562 63.511719 414.113281 63.511719 L 410.769531 63.511719 L 410.769531 54.574219 L 413.738281 54.574219 C 415.246094 54.574219 416.414062 54.957031 417.238281 55.714844 C 418.058594 56.464844 418.472656 57.542969 418.472656 58.949219 Z M 417.253906 58.949219 C 417.253906 57.835938 416.945312 56.992188 416.332031 56.417969 C 415.726562 55.835938 414.851562 55.542969 413.707031 55.542969 L 411.988281 55.542969 L 411.988281 62.542969 L 413.972656 62.542969 C 414.628906 62.542969 415.207031 62.402344 415.707031 62.121094 C 416.207031 61.832031 416.585938 61.414062 416.847656 60.871094 C 417.117188 60.332031 417.253906 59.691406 417.253906 58.949219 Z M 425.960938 66.214844 C 425.429688 66.214844 425.015625 66.046875 424.726562 65.714844 C 424.433594 65.390625 424.289062 64.9375 424.289062 64.355469 L 424.289062 62.058594 C 424.289062 61.558594 424.179688 61.191406 423.960938 60.949219 C 423.742188 60.710938 423.398438 60.582031 422.929688 60.558594 L 422.929688 59.746094 C 423.386719 59.726562 423.726562 59.597656 423.945312 59.355469 C 424.171875 59.117188 424.289062 58.746094 424.289062 58.246094 L 424.289062 55.949219 C 424.289062 55.355469 424.429688 54.898438 424.710938 54.574219 C 424.992188 54.253906 425.40625 54.089844 425.960938 54.089844 L 426.820312 54.089844 L 426.820312 54.917969 L 426.429688 54.917969 C 426.042969 54.917969 425.765625 55.035156 425.601562 55.261719 C 425.433594 55.480469 425.351562 55.820312 425.351562 56.277344 L 425.351562 58.527344 C 425.351562 58.933594 425.234375 59.285156 425.007812 59.574219 C 424.789062 59.855469 424.496094 60.042969 424.132812 60.136719 L 424.132812 60.152344 C 424.507812 60.238281 424.804688 60.425781 425.023438 60.714844 C 425.242188 60.996094 425.351562 61.347656 425.351562 61.761719 L 425.351562 64.027344 C 425.351562 64.472656 425.433594 64.8125 425.601562 65.042969 C 425.765625 65.269531 426.042969 65.386719 426.429688 65.386719 L 426.820312 65.386719 L 426.820312 66.214844 Z M 427.925781 55.183594 L 427.925781 54.089844 L 429.066406 54.089844 L 429.066406 55.183594 Z M 427.925781 63.511719 L 427.925781 56.636719 L 429.066406 56.636719 L 429.066406 63.511719 Z M 435.15625 62.402344 C 434.9375 62.851562 434.648438 63.167969 434.296875 63.355469 C 433.953125 63.542969 433.523438 63.636719 433.015625 63.636719 C 432.140625 63.636719 431.5 63.347656 431.09375 62.761719 C 430.6875 62.179688 430.484375 61.292969 430.484375 60.105469 C 430.484375 57.710938 431.328125 56.511719 433.015625 56.511719 C 433.535156 56.511719 433.96875 56.613281 434.3125 56.808594 C 434.65625 56.996094 434.9375 57.300781 435.15625 57.714844 L 435.15625 54.089844 L 436.296875 54.089844 L 436.296875 62.089844 C 436.296875 62.808594 436.304688 63.285156 436.328125 63.511719 L 435.234375 63.511719 C 435.222656 63.441406 435.207031 63.285156 435.1875 63.042969 C 435.175781 62.792969 435.171875 62.582031 435.171875 62.402344 Z M 431.6875 60.074219 C 431.6875 61.035156 431.8125 61.722656 432.0625 62.136719 C 432.3125 62.554688 432.722656 62.761719 433.296875 62.761719 C 433.941406 62.761719 434.410156 62.539062 434.703125 62.089844 C 435.003906 61.644531 435.15625 60.945312 435.15625 59.996094 C 435.15625 59.089844 435.003906 58.425781 434.703125 57.996094 C 434.410156 57.570312 433.945312 57.355469 433.3125 57.355469 C 432.738281 57.355469 432.320312 57.570312 432.0625 57.996094 C 431.8125 58.425781 431.6875 59.117188 431.6875 60.074219 Z M 437.765625 65.386719 C 438.148438 65.386719 438.425781 65.269531 438.59375 65.042969 C 438.757812 64.8125 438.84375 64.472656 438.84375 64.027344 L 438.84375 61.761719 C 438.84375 61.347656 438.953125 60.996094 439.171875 60.714844 C 439.398438 60.425781 439.703125 60.238281 440.078125 60.152344 L 440.078125 60.136719 C 439.710938 60.054688 439.414062 59.871094 439.1875 59.589844 C 438.957031 59.300781 438.84375 58.945312 438.84375 58.527344 L 438.84375 56.277344 C 438.84375 55.820312 438.757812 55.480469 438.59375 55.261719 C 438.425781 55.035156 438.148438 54.917969 437.765625 54.917969 L 437.390625 54.917969 L 437.390625 54.089844 L 438.21875 54.089844 C 438.78125 54.089844 439.203125 54.253906 439.484375 54.574219 C 439.765625 54.898438 439.90625 55.355469 439.90625 55.949219 L 439.90625 58.246094 C 439.90625 58.738281 440.015625 59.105469 440.234375 59.355469 C 440.460938 59.597656 440.8125 59.726562 441.28125 59.746094 L 441.28125 60.558594 C 440.800781 60.570312 440.453125 60.699219 440.234375 60.949219 C 440.015625 61.191406 439.90625 61.558594 439.90625 62.058594 L 439.90625 64.355469 C 439.90625 64.9375 439.757812 65.390625 439.46875 65.714844 C 439.175781 66.046875 438.757812 66.214844 438.21875 66.214844 L 437.390625 66.214844 L 437.390625 65.386719 Z M 319 51.742188 "/>
</g>
</svg>
